<svg width="24" height="24" viewBox="0 0 24 24" fill="none" xmlns="http://www.w3.org/2000/svg">
<path d="M12.25 4C7.69409 4 4 7.69409 4 12.25C4 16.8059 7.69409 20.5 12.25 20.5C16.8059 20.5 20.5 16.8059 20.5 12.25C20.5 7.69409 16.8059 4 12.25 4ZM12.25 19.1004C8.46752 19.1004 5.39955 16.0325 5.39955 12.25C5.39955 8.46752 8.46752 5.39955 12.25 5.39955C16.0325 5.39955 19.1004 8.46752 19.1004 12.25C19.1004 16.0325 16.0325 19.1004 12.25 19.1004Z" fill="#9EA4AB"/>
<path d="M11.366 9.00893C11.366 9.24336 11.4591 9.46819 11.6249 9.63396C11.7906 9.79973 12.0155 9.89286 12.2499 9.89286C12.4843 9.89286 12.7092 9.79973 12.8749 9.63396C13.0407 9.46819 13.1338 9.24336 13.1338 9.00893C13.1338 8.7745 13.0407 8.54967 12.8749 8.3839C12.7092 8.21813 12.4843 8.125 12.2499 8.125C12.0155 8.125 11.7906 8.21813 11.6249 8.3839C11.4591 8.54967 11.366 8.7745 11.366 9.00893ZM12.6919 11.0714H11.8079C11.7269 11.0714 11.6606 11.1377 11.6606 11.2188V16.2277C11.6606 16.3087 11.7269 16.375 11.8079 16.375H12.6919C12.7729 16.375 12.8392 16.3087 12.8392 16.2277V11.2188C12.8392 11.1377 12.7729 11.0714 12.6919 11.0714Z" fill="#9EA4AB"/>
</svg>
