<svg width="11" height="6" viewBox="0 0 11 6" fill="none" xmlns="http://www.w3.org/2000/svg">
<path d="M6.53259 5.655L10.7701 1.41C10.8404 1.34028 10.8962 1.25733 10.9343 1.16593C10.9723 1.07454 10.9919 0.976509 10.9919 0.8775C10.9919 0.778491 10.9723 0.680462 10.9343 0.589067C10.8962 0.497673 10.8404 0.414722 10.7701 0.345C10.6296 0.205312 10.4395 0.126905 10.2413 0.126905C10.0432 0.126905 9.85312 0.205312 9.71259 0.345L5.96259 4.0575L2.2501 0.344999C2.10957 0.205311 1.91949 0.126905 1.72135 0.126905C1.52321 0.126905 1.33312 0.205311 1.1926 0.344999C1.12173 0.41446 1.06535 0.497294 1.02673 0.588701C0.988107 0.680107 0.968008 0.778269 0.967596 0.877499C0.968008 0.97673 0.988107 1.07489 1.02673 1.1663C1.06535 1.2577 1.12173 1.34054 1.1926 1.41L5.43009 5.655C5.50033 5.73113 5.58557 5.79188 5.68044 5.83344C5.77531 5.875 5.87777 5.89645 5.98134 5.89645C6.08492 5.89645 6.18737 5.875 6.28225 5.83344C6.37712 5.79188 6.46236 5.73113 6.53259 5.655Z" fill="#BBC2C9"/>
</svg>
