<svg width="19" height="16" viewBox="0 0 19 16" fill="none" xmlns="http://www.w3.org/2000/svg">
<path d="M16.1418 5.99916C17.5581 5.99916 18.7409 4.82394 18.7409 3.40011C18.7409 1.97628 17.5581 0.801056 16.1418 0.801056C14.718 0.801056 13.5428 1.97628 13.5428 3.40011C13.5428 4.82394 14.718 5.99916 16.1418 5.99916ZM3.01099 15.3331H15.1625C16.6165 15.3331 17.4602 14.4894 17.4602 12.8772V6.80524C17.0233 6.99358 16.5487 7.07645 16.0514 7.04631V12.7266L11.9758 8.68861L14.1982 6.5039C13.8291 6.2779 13.5051 5.97656 13.2565 5.63002L9.86645 8.97488C9.55005 9.28376 9.28638 9.41936 9.00764 9.41936C8.7289 9.41936 8.46523 9.28376 8.14882 8.97488L2.66445 3.55078C2.76991 3.52818 2.89045 3.51311 3.01852 3.51311H12.4956C12.458 3.03097 12.5408 2.53376 12.7216 2.09681H2.83018C1.37622 2.09681 0.532471 2.93303 0.532471 4.55273V12.8772C0.532471 14.4894 1.38375 15.3331 3.01099 15.3331ZM1.94123 4.6582L6.03945 8.68861L1.94123 12.7416V4.6582ZM9.00764 10.7603C9.56511 10.7603 10.1 10.5343 10.6424 9.99944L11.0567 9.59263L15.3584 13.8641C15.2454 13.8942 15.1173 13.9093 14.9742 13.9093H3.01852C2.88292 13.9093 2.75485 13.8942 2.64185 13.8716L6.95853 9.59263L7.36534 9.99944C7.91528 10.5343 8.44263 10.7603 9.00764 10.7603Z" fill="#9EA4AB"/>
</svg>
