<svg width="18" height="14" viewBox="0 0 18 14" fill="none" xmlns="http://www.w3.org/2000/svg">
<path d="M11.3499 0.550018C11.1844 0.846424 11.0369 1.15253 10.9083 1.46668C9.6439 1.26673 8.35596 1.26673 7.0916 1.46668C6.96292 1.15253 6.81543 0.846424 6.64993 0.550018C5.45892 0.753519 4.3011 1.11797 3.20826 1.63335C1.25405 4.45359 0.367795 7.87748 0.708264 11.2917C1.9818 12.2491 3.41115 12.9792 4.93326 13.45C5.27986 12.9922 5.58918 12.5073 5.85826 12C5.36166 11.8169 4.88434 11.5852 4.43326 11.3084C4.55698 11.226 4.67401 11.1341 4.78326 11.0334C6.09865 11.6669 7.5399 11.996 8.99993 11.996C10.46 11.996 11.9012 11.6669 13.2166 11.0334C13.3333 11.1334 13.4499 11.225 13.5666 11.3084C13.1131 11.5831 12.6362 11.8173 12.1416 12.0084C12.3995 12.5271 12.7006 13.0233 13.0416 13.4917C14.5618 13.0225 15.9887 12.2922 17.2583 11.3334C17.6069 7.91852 16.7199 4.49184 14.7583 1.67502C13.6777 1.14897 12.5313 0.770577 11.3499 0.550018V0.550018ZM6.23326 9.34168C5.81625 9.31175 5.42705 9.12142 5.14736 8.81066C4.86768 8.4999 4.71926 8.09287 4.73326 7.67502C4.71715 7.25662 4.86484 6.84842 5.14494 6.53719C5.42505 6.22597 5.81548 6.03624 6.23326 6.00835C6.65105 6.03624 7.04148 6.22597 7.32159 6.53719C7.60169 6.84842 7.74938 7.25662 7.73326 7.67502C7.74938 8.09342 7.60169 8.50162 7.32159 8.81284C7.04148 9.12407 6.65105 9.31379 6.23326 9.34168V9.34168ZM11.7666 9.34168C11.3496 9.31175 10.9604 9.12142 10.6807 8.81066C10.401 8.4999 10.2526 8.09287 10.2666 7.67502C10.2505 7.25662 10.3982 6.84842 10.6783 6.53719C10.9584 6.22597 11.3488 6.03624 11.7666 6.00835C12.1852 6.03416 12.5769 6.22327 12.8574 6.53497C13.1379 6.84668 13.2849 7.25606 13.2666 7.67502C13.2849 8.09398 13.1379 8.50336 12.8574 8.81506C12.5769 9.12677 12.1852 9.31587 11.7666 9.34168V9.34168Z" fill="#9EA4AB"/>
</svg>
