<svg width="20" height="20" viewBox="0 0 20 20" fill="none" xmlns="http://www.w3.org/2000/svg">
<path d="M7.52494 15.5406C7.01869 17.0781 5.79994 18.2031 4.00931 18.8031C3.20386 19.069 2.36352 19.2143 1.51556 19.2344C1.31665 19.2344 1.12589 19.1554 0.985234 19.0147C0.844582 18.8741 0.765564 18.6833 0.765564 18.4844C0.785642 17.6364 0.930962 16.7961 1.19681 15.9906C1.79681 14.2 2.92181 12.9813 4.45931 12.475C4.55458 12.4332 4.65752 12.4116 4.76157 12.4117C4.86562 12.4118 4.96851 12.4336 5.06371 12.4756C5.1589 12.5176 5.24431 12.5789 5.3145 12.6558C5.38469 12.7326 5.43814 12.8231 5.47143 12.9217C5.50473 13.0203 5.51715 13.1247 5.5079 13.2284C5.49865 13.332 5.46794 13.4326 5.41772 13.5237C5.36749 13.6148 5.29886 13.6945 5.21617 13.7577C5.13349 13.8209 5.03857 13.8661 4.93744 13.8906C3.09056 14.5094 2.51869 16.5063 2.34056 17.6594C3.49369 17.4813 5.49056 16.9094 6.10931 15.0625C6.1847 14.8908 6.32165 14.7536 6.49318 14.6779C6.66471 14.6022 6.85838 14.5935 7.03601 14.6535C7.21365 14.7135 7.36237 14.8378 7.45287 15.002C7.54337 15.1663 7.56908 15.3584 7.52494 15.5406ZM16.8906 8.40625L16.0562 9.25V14.9969C16.0535 15.394 15.8953 15.7743 15.6156 16.0563L12.5781 19.0844C12.4403 19.2254 12.2754 19.3372 12.0934 19.4129C11.9113 19.4886 11.7159 19.5268 11.5187 19.525C11.3724 19.5262 11.2268 19.504 11.0874 19.4594C10.8265 19.3812 10.5917 19.2334 10.4084 19.0319C10.2251 18.8304 10.1001 18.5828 10.0468 18.3156L9.30619 14.6125L5.38744 10.6938L1.68431 9.95313C1.41714 9.89989 1.16952 9.77489 0.968013 9.59155C0.766511 9.40822 0.61874 9.17347 0.540564 8.9125C0.461771 8.65341 0.455048 8.37775 0.521117 8.11513C0.587186 7.85251 0.72355 7.61284 0.915564 7.42188L3.94369 4.38438C4.22562 4.10464 4.60591 3.94646 5.00306 3.94375H10.7499L11.5937 3.10938C14.2749 0.428129 17.0218 0.503129 18.0812 0.662504C18.3988 0.706457 18.6935 0.852955 18.9202 1.07972C19.147 1.30648 19.2935 1.60109 19.3374 1.91875C19.4968 2.97813 19.5718 5.725 16.8906 8.40625ZM1.97494 8.48125L5.50931 9.18438L9.24994 5.44375H5.00306L1.97494 8.48125ZM6.82181 10L9.99994 13.1781L15.8312 7.34688C16.5624 6.61563 18.2312 4.64688 17.8562 2.14375C15.3531 1.76875 13.3843 3.4375 12.6531 4.16875L6.82181 10ZM14.5562 10.75L10.8156 14.4906L11.5187 18.025L14.5562 14.9969V10.75Z" fill="#9EA4AB"/>
</svg>
