<svg width="83" height="14" viewBox="0 0 83 14" fill="none" xmlns="http://www.w3.org/2000/svg">
<path d="M2.65769 5.472C2.65769 5.20768 2.68666 4.90353 2.74459 4.55955C2.80252 4.2192 2.91839 3.8897 3.09581 3.57107C3.27323 3.25605 3.52307 2.98811 3.84532 2.77448C4.10602 2.60068 4.44638 2.50292 4.85191 2.47033H12.4738V0.0516186H4.87726C4.87726 0.0516186 4.87726 0.0516186 4.87364 0.0516186H4.84105V0.0552394C4.1893 0.0842061 3.58462 0.207314 3.03426 0.431806C2.40423 0.688885 1.86473 1.05459 1.41575 1.52892C0.966762 2.00325 0.615541 2.57896 0.369325 3.24881C0.123108 3.91867 0 4.65732 0 5.46838V8.50626C0 9.31733 0.123108 10.056 0.369325 10.7258C0.615541 11.3957 0.963141 11.9678 1.41212 12.4421C1.86111 12.9164 2.40061 13.2821 3.03426 13.5428C3.58462 13.7673 4.1893 13.8868 4.84105 13.9194V13.923H4.87364C4.87364 13.923 4.87364 13.923 4.87726 13.923H12.4738V11.5079H4.85191C4.44638 11.4753 4.10602 11.3776 3.84532 11.2038C3.52307 10.9902 3.27323 10.7222 3.09581 10.4072C2.91839 10.0922 2.80252 9.76269 2.74459 9.41871C2.68666 9.07835 2.65769 8.7742 2.65769 8.50626V5.472Z" fill="#383D42"/>
<path d="M22.612 13.9266L30.1795 0.0515747L37.7471 13.9266H34.825L30.1904 5.58058L25.5557 13.9266H22.612Z" fill="#383D42"/>
<path d="M57.9659 13.9265H60.3593V6.33359H54.852V8.72696H57.9659V13.9265Z" fill="#383D42"/>
<path d="M50.543 5.472C50.543 5.20768 50.572 4.90353 50.6299 4.55955C50.6879 4.2192 50.8037 3.8897 50.9812 3.57107C51.1586 3.25605 51.4084 2.98811 51.7307 2.77448C51.9914 2.60068 52.3317 2.50292 52.7373 2.47033H60.3591V0.0516186H52.7626C52.7626 0.0516186 52.7626 0.0516186 52.759 0.0516186H52.7264V0.0552394C52.0747 0.084206 51.47 0.207314 50.9196 0.431806C50.2896 0.688885 49.7501 1.05459 49.3011 1.52892C48.8521 2.00325 48.5009 2.57896 48.2547 3.24881C48.0085 3.91867 47.8854 4.65732 47.8854 5.46838V8.50626C47.8854 9.31733 48.0085 10.056 48.2547 10.7258C48.5009 11.3957 48.8485 11.9678 49.2975 12.4457C49.7465 12.9201 50.286 13.2858 50.9196 13.5465C51.47 13.7709 52.0747 13.8904 52.7264 13.923V13.9266H52.759C52.759 13.9266 52.759 13.9266 52.7626 13.9266L60.3593 13.9265L60.3591 11.5115H52.7373C52.3317 11.479 51.9914 11.3812 51.7307 11.2074C51.4084 10.9938 51.1586 10.7258 50.9812 10.4108C50.8037 10.0958 50.6879 9.76631 50.6299 9.42233C50.572 9.08197 50.543 8.77782 50.543 8.50988V5.472Z" fill="#383D42"/>
<path d="M83 0.0516797H70.4973V13.9484H83V11.5551H73.155V2.40522H83V0.0516797Z" fill="#383D42"/>
<path d="M81.396 8.26741L78.4341 5.73283L75.4723 8.26741H81.396Z" fill="#383D42"/>
</svg>
