<svg width="24" height="24" viewBox="0 0 24 24" fill="none" xmlns="http://www.w3.org/2000/svg">
<path d="M16.1872 16.2302V15.2493C16.1872 14.729 15.9805 14.2299 15.6125 13.862C15.2446 13.4941 14.7456 13.2874 14.2253 13.2874H10.3014C9.78107 13.2874 9.28204 13.4941 8.91411 13.862C8.54618 14.2299 8.33948 14.729 8.33948 15.2493V16.2302M14.22 9.36549C14.22 10.449 13.3417 11.3274 12.2581 11.3274C11.1746 11.3274 10.2962 10.449 10.2962 9.36549C10.2962 8.28195 11.1746 7.40356 12.2581 7.40356C13.3417 7.40356 14.22 8.28195 14.22 9.36549Z" stroke="#1D2939" stroke-width="1.5" stroke-linecap="round" stroke-linejoin="round"/>
<path d="M1.97708 16C0.984539 13.8752 0.739921 11.4913 1.2811 9.21763C1.82228 6.94392 3.11906 4.90717 4.97065 3.42279C6.82223 1.9384 9.12531 1.08918 11.5233 1.00664C13.9212 0.924099 16.2803 1.61283 18.2351 2.9662M17.3636 3.65271C17.3636 2.67601 18.1777 1.88424 19.1818 1.88424C20.186 1.88424 21 2.67601 21 3.65271C21 4.62941 20.186 5.42118 19.1818 5.42118C18.1777 5.42118 17.3636 4.62941 17.3636 3.65271Z" stroke="#1D2939" stroke-width="1.5"/>
<path d="M22.0229 8C23.0155 10.1248 23.2601 12.5087 22.7189 14.7824C22.1777 17.0561 20.8809 19.0928 19.0294 20.5772C17.1778 22.0616 14.8747 22.9108 12.4767 22.9934C10.0788 23.0759 7.71974 22.3872 5.7649 21.0338M6.63636 20.3473C6.63636 21.324 5.82233 22.1158 4.81818 22.1158C3.81403 22.1158 3 21.324 3 20.3473C3 19.3706 3.81403 18.5788 4.81818 18.5788C5.82233 18.5788 6.63636 19.3706 6.63636 20.3473Z" stroke="#1D2939" stroke-width="1.5"/>
</svg>
