<svg width="18" height="15" viewBox="0 0 18 15" fill="none" xmlns="http://www.w3.org/2000/svg">
<path d="M2.55127 14.755H15.4411C17.0758 14.755 17.9271 13.9113 17.9271 12.2991V3.13086C17.9271 1.51869 17.0758 0.674942 15.4411 0.674942H2.55127C0.924037 0.674942 0.0727539 1.51116 0.0727539 3.13086V12.2991C0.0727539 13.9113 0.924037 14.755 2.55127 14.755ZM13.6104 6.89006C13.6104 5.65457 12.9324 4.98409 11.6819 4.98409H1.57192V3.26646C1.57192 2.53571 1.95612 2.1741 2.6492 2.1741H15.3431C16.0362 2.1741 16.4204 2.53571 16.4204 3.26646V12.1635C16.4204 12.8942 16.0362 13.2559 15.3431 13.2559H13.6104V6.89006ZM2.6492 13.2559C1.95612 13.2559 1.57192 12.8942 1.57192 12.1635V6.23465H8.17878V13.2559H2.6492ZM11.5613 6.23465C12.0736 6.23465 12.3599 6.52846 12.3599 7.04827V13.2559H9.42934V6.23465H11.5613Z" fill="#1A85FF"/>
</svg>
