<svg width="24" height="24" viewBox="0 0 24 24" fill="none" xmlns="http://www.w3.org/2000/svg">
<path d="M19.5379 8.62391C19.3843 9.07608 19.1432 9.49358 18.8283 9.85256C18.5133 10.2115 18.1308 10.505 17.7025 10.7161C17.2741 10.9273 16.8084 11.052 16.3319 11.0831C15.8554 11.1143 15.3774 11.0512 14.9252 10.8977C14.473 10.7441 14.0555 10.5029 13.6965 10.188C13.3376 9.87309 13.0441 9.49054 12.833 9.06221C12.6219 8.63387 12.4971 8.16815 12.466 7.69162C12.4348 7.2151 12.4979 6.7371 12.6514 6.28493C12.805 5.83276 13.0462 5.41526 13.3611 5.05628C13.676 4.6973 14.0586 4.40387 14.4869 4.19273C14.9152 3.98159 15.381 3.85689 15.8575 3.82574C16.334 3.79459 16.812 3.8576 17.2642 4.01118C17.7163 4.16476 18.1338 4.4059 18.4928 4.72083C18.8518 5.03576 19.1452 5.41831 19.3564 5.84664C19.5675 6.27497 19.6922 6.74069 19.7234 7.21722C19.7545 7.69374 19.6915 8.17174 19.5379 8.62391L19.5379 8.62391Z" stroke="black" stroke-width="1.5"/>
<path d="M2 7.22711H12.4646" stroke="black" stroke-width="1.5" stroke-linecap="round"/>
<path d="M19.7311 7.45441H22.0039" stroke="black" stroke-width="1.5" stroke-linecap="round"/>
<path d="M4.46599 15.3762C4.61957 14.924 4.8607 14.5065 5.17563 14.1475C5.49056 13.7885 5.87311 13.4951 6.30144 13.2839C6.72977 13.0728 7.1955 12.9481 7.67202 12.917C8.14855 12.8858 8.62654 12.9488 9.07872 13.1024C9.53089 13.256 9.94838 13.4971 10.3074 13.812C10.6663 14.127 10.9598 14.5095 11.1709 14.9379C11.3821 15.3662 11.5068 15.8319 11.5379 16.3084C11.5691 16.785 11.506 17.263 11.3525 17.7151C11.1989 18.1673 10.9577 18.5848 10.6428 18.9438C10.3279 19.3028 9.94534 19.5962 9.51701 19.8073C9.08868 20.0185 8.62295 20.1432 8.14643 20.1743C7.6699 20.2055 7.19191 20.1425 6.73974 19.9889C6.28756 19.8353 5.87007 19.5942 5.51109 19.2792C5.15211 18.9643 4.85867 18.5818 4.64753 18.1534C4.4364 17.7251 4.31169 17.2594 4.28054 16.7828C4.24939 16.3063 4.31241 15.8283 4.46599 15.3761L4.46599 15.3762Z" stroke="black" stroke-width="1.5"/>
<path d="M22.0039 16.7729H11.5393" stroke="black" stroke-width="1.5" stroke-linecap="round"/>
<path d="M4.27277 16.5457H2" stroke="black" stroke-width="1.5" stroke-linecap="round"/>
</svg>
