<svg width="18" height="18" viewBox="0 0 18 18" fill="none" xmlns="http://www.w3.org/2000/svg">
<path d="M1 14.1667V8.9C1 6.80479 1.83232 4.79539 3.31386 3.31386C4.79539 1.83232 6.80479 1 8.9 1C10.9952 1 13.0046 1.83232 14.4861 3.31386C15.9677 4.79539 16.8 6.80479 16.8 8.9V14.1667" stroke="#9EA4AB" stroke-width="1.75556" stroke-linecap="round" stroke-linejoin="round"/>
<path fill-rule="evenodd" clip-rule="evenodd" d="M16.8 15.0444C16.8 15.51 16.615 15.9566 16.2858 16.2858C15.9566 16.615 15.51 16.8 15.0444 16.8H14.1667C13.7011 16.8 13.2545 16.615 12.9253 16.2858C12.5961 15.9566 12.4111 15.51 12.4111 15.0444V12.4111C12.4111 11.9455 12.5961 11.499 12.9253 11.1697C13.2545 10.8405 13.7011 10.6555 14.1667 10.6555H16.8V15.0444ZM1 15.0444C1 15.51 1.18496 15.9566 1.51419 16.2858C1.84342 16.615 2.28995 16.8 2.75556 16.8H3.63333C4.09894 16.8 4.54547 16.615 4.8747 16.2858C5.20393 15.9566 5.38889 15.51 5.38889 15.0444V12.4111C5.38889 11.9455 5.20393 11.499 4.8747 11.1697C4.54547 10.8405 4.09894 10.6555 3.63333 10.6555H1V15.0444Z" stroke="#9EA4AB" stroke-width="1.75556" stroke-linecap="round" stroke-linejoin="round"/>
</svg>
