<svg width="18" height="13" viewBox="0 0 18 13" fill="none" xmlns="http://www.w3.org/2000/svg">
<path d="M17.6208 1.93976C17.5162 1.56607 17.317 1.22571 17.0423 0.951618C16.7676 0.67753 16.4268 0.479009 16.0529 0.375278C14.6493 4.84569e-05 9.00681 4.85476e-05 9.00681 4.85476e-05C9.00681 4.85476e-05 3.37499 -0.00895257 1.95677 0.375278C1.58345 0.479464 1.24333 0.678194 0.969264 0.952256C0.695201 1.22632 0.496472 1.56645 0.392285 1.93976C0.125743 3.37667 -0.00553358 4.8354 0.00017866 6.29681C-0.00242212 7.75119 0.128834 9.20273 0.392285 10.633C0.496809 11.0066 0.695597 11.3469 0.969564 11.6215C1.24353 11.8961 1.58348 12.0956 1.95677 12.2009C3.36037 12.5761 9.00681 12.5761 9.00681 12.5761C9.00681 12.5761 14.6353 12.5761 16.0529 12.2009C16.4268 12.096 16.7674 11.8967 17.042 11.6221C17.3166 11.3476 17.5159 11.0069 17.6208 10.633C17.879 9.20358 18.005 7.74991 17.996 6.29681C18.005 4.83415 17.8818 3.37824 17.6208 1.93976V1.93976ZM7.20436 8.9898V3.59201L11.9012 6.29681L7.20436 8.9898Z" fill="#9EA4AB"/>
</svg>
