<svg width="20" height="18" viewBox="0 0 20 18" fill="none" xmlns="http://www.w3.org/2000/svg">
<path d="M9.99965 6.66765V10.001M9.99965 13.3343H10.008M8.57465 2.38432L1.51632 14.1677C1.37079 14.4197 1.29379 14.7054 1.29298 14.9964C1.29216 15.2874 1.36756 15.5736 1.51167 15.8264C1.65579 16.0793 1.86359 16.2899 2.11441 16.4375C2.36523 16.5851 2.65032 16.6645 2.94132 16.6677H17.058C17.349 16.6645 17.6341 16.5851 17.8849 16.4375C18.1357 16.2899 18.3435 16.0793 18.4876 15.8264C18.6317 15.5736 18.7071 15.2874 18.7063 14.9964C18.7055 14.7054 18.6285 14.4197 18.483 14.1677L11.4247 2.38432C11.2761 2.13941 11.0669 1.93692 10.8173 1.79639C10.5677 1.65586 10.2861 1.58203 9.99965 1.58203C9.71321 1.58203 9.43159 1.65586 9.18199 1.79639C8.93238 1.93692 8.72321 2.13941 8.57465 2.38432Z" stroke="#101828" stroke-width="1.5" stroke-linecap="round" stroke-linejoin="round"/>
</svg>
