<svg width="18" height="20" viewBox="0 0 18 20" fill="none" xmlns="http://www.w3.org/2000/svg">
<path d="M10.4417 17.5013C10.2952 17.7539 10.0849 17.9635 9.83185 18.1092C9.57884 18.255 9.29198 18.3317 9 18.3317C8.70802 18.3317 8.42116 18.255 8.16814 18.1092C7.91513 17.9635 7.70484 17.7539 7.55833 17.5013M14 6.66797C14 5.34189 13.4732 4.07012 12.5355 3.13243C11.5979 2.19475 10.3261 1.66797 9 1.66797C7.67392 1.66797 6.40215 2.19475 5.46447 3.13243C4.52678 4.07012 4 5.34189 4 6.66797C4 12.5013 1.5 14.168 1.5 14.168H16.5C16.5 14.168 14 12.5013 14 6.66797Z" stroke="#101828" stroke-width="1.5" stroke-linecap="round" stroke-linejoin="round"/>
</svg>
