<svg width="21" height="20" viewBox="0 0 21 20" fill="none" xmlns="http://www.w3.org/2000/svg">
<path d="M4.66602 12.5013H3.83268C3.39065 12.5013 2.96673 12.3257 2.65417 12.0131C2.34161 11.7006 2.16602 11.2767 2.16602 10.8346V3.33464C2.16602 2.89261 2.34161 2.46868 2.65417 2.15612C2.96673 1.84356 3.39065 1.66797 3.83268 1.66797H11.3327C11.7747 1.66797 12.1986 1.84356 12.5112 2.15612C12.8238 2.46868 12.9993 2.89261 12.9993 3.33464V4.16797M9.66602 7.5013H17.166C18.0865 7.5013 18.8327 8.24749 18.8327 9.16797V16.668C18.8327 17.5884 18.0865 18.3346 17.166 18.3346H9.66602C8.74554 18.3346 7.99935 17.5884 7.99935 16.668V9.16797C7.99935 8.24749 8.74554 7.5013 9.66602 7.5013Z" stroke="#344054" stroke-width="1.67" stroke-linecap="round" stroke-linejoin="round"/>
</svg>
