<svg width="20" height="19" viewBox="0 0 20 19" fill="none" xmlns="http://www.w3.org/2000/svg">
<path d="M14.1665 2.23528C14.3854 2.01641 14.6452 1.84279 14.9312 1.72434C15.2171 1.60589 15.5236 1.54492 15.8332 1.54492C16.1427 1.54492 16.4492 1.60589 16.7352 1.72434C17.0211 1.84279 17.281 2.01641 17.4998 2.23528C17.7187 2.45415 17.8923 2.71398 18.0108 2.99995C18.1292 3.28592 18.1902 3.59242 18.1902 3.90194C18.1902 4.21147 18.1292 4.51797 18.0108 4.80394C17.8923 5.0899 17.7187 5.34974 17.4998 5.56861L6.24984 16.8186L1.6665 18.0686L2.9165 13.4853L14.1665 2.23528Z" stroke="white" stroke-width="1.67" stroke-linecap="round" stroke-linejoin="round"/>
</svg>
