<svg width="24" height="24" viewBox="0 0 24 24" fill="none" xmlns="http://www.w3.org/2000/svg">
<path d="M12.0764 13.2271L12.6849 13.103C13.3817 12.9609 14.008 12.5826 14.4577 12.0322C14.9074 11.4817 15.1528 10.7928 15.1528 10.0822C15.1528 9.26478 14.8159 8.49276 14.2373 7.91472M12.0764 13.2271V14.9259M12.0764 13.2271C12.6832 13.2271 13.2679 12.9678 13.7724 12.631C14.277 12.2942 14.6702 11.8154 14.9024 11.2553C15.1346 10.6952 15.1954 10.0788 15.077 9.48423C14.9586 8.88961 14.6664 8.34342 14.2373 7.91472M14.2373 7.91472C13.8083 7.48603 13.2616 7.19408 12.6665 7.07581C12.0714 6.95753 11.4545 7.01823 10.8939 7.25024C10.3333 7.48225 9.85416 7.87514 9.51705 8.37923C9.17993 8.88333 9 9.47598 9 10.0822C9 9.26478 9.30809 8.4808 9.88662 7.90277C10.4651 7.32474 11.2498 7 12.068 7C12.8861 7 13.6588 7.33669 14.2373 7.91472ZM12 17H12.022M22 12C22 17.5228 17.5228 22 12 22C6.47715 22 2 17.5228 2 12C2 6.47715 6.47715 2 12 2C17.5228 2 22 6.47715 22 12Z" stroke="black" stroke-width="1.5" stroke-linecap="round" stroke-linejoin="round"/>
</svg>
