<svg width="16" height="16" viewBox="0 0 16 16" fill="none" xmlns="http://www.w3.org/2000/svg">
<path d="M5.64313 5.64266L3.28612 3.28564M3.28612 12.7137L5.64315 10.3567M10.3572 10.3567L12.7142 12.7137M12.7142 3.28561L10.3572 5.64264M14.6668 7.99967C14.6668 11.6816 11.6821 14.6663 8.00016 14.6663C4.31826 14.6663 1.3335 11.6816 1.3335 7.99967C1.3335 4.31778 4.31826 1.33301 8.00016 1.33301C11.6821 1.33301 14.6668 4.31778 14.6668 7.99967ZM11.3335 7.99967C11.3335 9.84062 9.84111 11.333 8.00016 11.333C6.15921 11.333 4.66683 9.84062 4.66683 7.99967C4.66683 6.15873 6.15921 4.66634 8.00016 4.66634C9.84111 4.66634 11.3335 6.15873 11.3335 7.99967Z" stroke-width="1.5" stroke-linecap="round" stroke-linejoin="round"/>
</svg>
