<svg width="16" height="16" viewBox="0 0 16 16" fill="none" xmlns="http://www.w3.org/2000/svg">
<path fill-rule="evenodd" clip-rule="evenodd" d="M11.2437 10.1742L15.2787 14.2092C15.4205 14.3512 15.5002 14.5436 15.5001 14.7443C15.5 14.9449 15.4202 15.1373 15.2783 15.2791C15.1364 15.4209 14.9439 15.5006 14.7433 15.5005C14.5427 15.5004 14.3503 15.4207 14.2084 15.2787L10.1734 11.2437C8.96723 12.178 7.45041 12.6177 5.93154 12.4733C4.41268 12.3289 3.00587 11.6113 1.99731 10.4664C0.988747 9.32164 0.454191 7.8356 0.502387 6.31065C0.550583 4.7857 1.17791 3.33639 2.25675 2.25755C3.33559 1.1787 4.78491 0.551376 6.30986 0.50318C7.83481 0.454984 9.32084 0.989541 10.4657 1.9981C11.6105 3.00667 12.3281 4.41347 12.4725 5.93234C12.6169 7.4512 12.1772 8.96803 11.2429 10.1742H11.2437ZM6.49995 11C7.69342 11 8.83801 10.5259 9.68193 9.68197C10.5258 8.83806 10.9999 7.69347 10.9999 6.49999C10.9999 5.30652 10.5258 4.16192 9.68193 3.31801C8.83801 2.4741 7.69342 1.99999 6.49995 1.99999C5.30647 1.99999 4.16188 2.4741 3.31797 3.31801C2.47405 4.16192 1.99995 5.30652 1.99995 6.49999C1.99995 7.69347 2.47405 8.83806 3.31797 9.68197C4.16188 10.5259 5.30647 11 6.49995 11Z" fill="#D6DADF"/>
</svg>
