<svg width="33" height="33" viewBox="0 0 33 33" fill="none" xmlns="http://www.w3.org/2000/svg">
<g clip-path="url(#clip0_8068_395677)">
<path d="M0.847656 11.8778C0.847656 9.87823 0.848045 8.40864 0.942879 7.24793C1.03724 6.09306 1.22259 5.28807 1.56822 4.60973C2.20205 3.36577 3.21343 2.3544 4.45739 1.72057C5.13573 1.37494 5.94071 1.18958 7.09559 1.09522C8.2563 1.00039 9.72589 1 11.7254 1H20.9699C22.9694 1 24.439 1.00039 25.5997 1.09522C26.7546 1.18958 27.5596 1.37494 28.2379 1.72057C29.4819 2.3544 30.4933 3.36577 31.1271 4.60973C31.4727 5.28807 31.6581 6.09306 31.7524 7.24793C31.8473 8.40864 31.8477 9.87823 31.8477 11.8778V21.1222C31.8477 23.1218 31.8473 24.5914 31.7524 25.7521C31.6581 26.9069 31.4727 27.7119 31.1271 28.3903C30.4933 29.6342 29.4819 30.6456 28.2379 31.2794C27.5596 31.6251 26.7546 31.8104 25.5997 31.9048C24.439 31.9996 22.9694 32 20.9699 32H11.7254C9.72589 32 8.25629 31.9996 7.09559 31.9048C5.94071 31.8104 5.13573 31.6251 4.45739 31.2794C3.21343 30.6456 2.20205 29.6342 1.56822 28.3903C1.22259 27.7119 1.03724 26.9069 0.942879 25.7521C0.848045 24.5914 0.847656 23.1218 0.847656 21.1222V11.8778Z" fill="white" stroke="#F2F4F7"/>
<path fill-rule="evenodd" clip-rule="evenodd" d="M13.7916 12.3538C13.7781 12.3538 13.752 12.3538 13.7385 12.3538C13.5146 12.3265 13.3303 12.1213 13.3303 11.8889C13.3168 11.67 13.1981 6.55514 16.0834 5.39273C16.8082 5.10551 17.4807 5.16018 18.0472 5.58422C18.7449 6.09022 19.2458 7.10221 19.5488 8.57923C19.7592 9.61861 19.7987 10.5212 19.7987 10.5623C19.8122 10.781 19.6414 10.9452 19.4166 10.9041C19.1927 10.8768 19.0084 10.6717 19.0084 10.4528C18.9689 9.52287 18.6658 6.96549 17.6651 6.22694C17.3486 5.99447 16.9529 5.96709 16.4791 6.15858C14.0019 7.15688 14.1206 11.9572 14.1206 12.0119C14.1206 12.2034 13.9894 12.3538 13.7916 12.3538Z" fill="#595961"/>
<path opacity="0.46" fill-rule="evenodd" clip-rule="evenodd" d="M17.9021 5.61201C17.3752 5.22905 16.7565 5.17437 16.084 5.43422C14.9115 5.91284 14.0816 7.17108 13.6734 9.08574C13.3704 10.4943 13.4099 11.7662 13.4099 11.8209C13.4099 11.8893 13.436 11.9577 13.489 12.0124C13.5412 12.0671 13.5942 12.1081 13.6599 12.1081C13.6734 12.1081 13.6869 12.1081 13.6994 12.1081C13.8181 12.1081 13.9107 12.0124 13.9107 11.8893C13.9107 11.8346 13.7921 6.95222 16.3349 5.92653C16.8483 5.72145 17.296 5.74874 17.6656 6.02227C18.732 6.80181 19.0484 9.44133 19.088 10.385C19.088 10.5217 19.2067 10.6585 19.3515 10.6721C19.4837 10.6858 19.5888 10.5901 19.5888 10.4533C19.5754 10.2892 19.4306 6.73344 17.9021 5.61201Z" fill="#B2B2C2"/>
<path opacity="0.46" fill-rule="evenodd" clip-rule="evenodd" d="M13.6724 11.944C13.6589 11.944 13.6589 11.944 13.6463 11.944C13.5672 11.9303 13.5006 11.8483 13.488 11.7662C13.488 11.7115 13.4485 10.467 13.7515 9.05834C14.1462 7.18475 14.977 5.9402 16.1225 5.47518C16.7681 5.21533 17.3481 5.27009 17.8489 5.62568C19.3244 6.70604 19.4692 10.2071 19.4692 10.3576C19.4692 10.4396 19.4035 10.4943 19.3244 10.4807C19.2453 10.467 19.1796 10.3986 19.1661 10.3029C19.1661 10.2618 19.0214 6.82916 17.6906 5.84446C17.295 5.55732 16.8077 5.51625 16.2547 5.73502C13.6724 6.81547 13.7911 11.7662 13.7911 11.8209C13.8037 11.8893 13.7515 11.944 13.6724 11.944Z" fill="#B2B2C2"/>
<path opacity="0.62" fill-rule="evenodd" clip-rule="evenodd" d="M14.7397 8.03382C14.8449 7.82873 14.9501 7.62356 15.0427 7.40479C15.0031 7.47315 14.7397 8.18432 13.9358 8.07489C13.9223 8.07489 14.4097 8.2253 14.7397 8.03382Z" fill="#595961"/>
<path opacity="0.62" fill-rule="evenodd" clip-rule="evenodd" d="M14.4505 8.90582C14.5297 8.68696 14.6088 8.45449 14.6618 8.23572C14.6357 8.31777 14.5036 9.05623 13.6602 9.05623C13.6602 9.05623 14.1475 9.15198 14.4505 8.90582Z" fill="#595961"/>
<path opacity="0.62" fill-rule="evenodd" clip-rule="evenodd" d="M19.0739 7.14247C18.9687 6.89622 18.85 6.66376 18.7313 6.4176C18.7709 6.49965 19.1665 7.27919 18.7188 7.83986C18.7188 7.83986 19.0613 7.56641 19.0739 7.14247Z" fill="#595961"/>
<path opacity="0.62" fill-rule="evenodd" clip-rule="evenodd" d="M18.3498 5.91199C18.1385 5.7342 17.9281 5.57009 17.7168 5.41968C17.7959 5.48804 18.4945 5.99404 18.455 6.75997C18.4415 6.75997 18.5602 6.30865 18.3498 5.91199Z" fill="#595961"/>
<path opacity="0.62" fill-rule="evenodd" clip-rule="evenodd" d="M15.1229 7.28118C15.2811 7.11708 15.4124 6.93929 15.5571 6.7478C15.505 6.80247 15.0698 7.36323 14.293 7.15806C14.293 7.15806 14.7407 7.4043 15.1229 7.28118Z" fill="#595961"/>
<path opacity="0.62" fill-rule="evenodd" clip-rule="evenodd" d="M15.6092 6.64978C15.7935 6.51306 15.9643 6.37624 16.1361 6.22583C16.0704 6.2669 15.5301 6.71814 14.7793 6.38993C14.7793 6.38993 15.2136 6.70445 15.6092 6.64978Z" fill="#595961"/>
<path opacity="0.62" fill-rule="evenodd" clip-rule="evenodd" d="M16.3209 6.20027C16.5448 6.1319 16.7562 6.04985 16.9666 5.9678C16.8874 5.99509 16.2157 6.24125 15.5566 5.72156C15.5701 5.72156 15.9127 6.1319 16.3209 6.20027Z" fill="#595961"/>
<path opacity="0.62" fill-rule="evenodd" clip-rule="evenodd" d="M16.9667 5.95258C17.151 5.97997 17.3353 5.99366 17.5196 6.00735C17.454 5.99366 16.874 5.95259 16.5449 5.40552C16.5449 5.40552 16.6771 5.77479 16.9667 5.95258Z" fill="#595961"/>
<path opacity="0.62" fill-rule="evenodd" clip-rule="evenodd" d="M17.73 6.25476C17.8613 6.40527 18.0069 6.55568 18.1643 6.6924C18.1121 6.63773 17.6644 6.1864 17.7696 5.62573C17.7561 5.62573 17.6113 5.94025 17.73 6.25476Z" fill="#595961"/>
<path opacity="0.74" fill-rule="evenodd" clip-rule="evenodd" d="M19.3244 10.2883C19.3244 10.1378 19.1796 6.67775 17.7437 5.62477C17.4668 5.41959 17.1638 5.32385 16.8473 5.32385C16.6099 5.32385 16.3599 5.37852 16.0964 5.48796C14.95 5.93928 14.1462 7.15646 13.7515 9.01635C13.4485 10.4113 13.488 11.6559 13.488 11.7105C13.488 11.7516 13.5276 11.7926 13.5672 11.7926H13.5797C13.6193 11.7926 13.6463 11.7653 13.6463 11.7242C13.6463 11.6696 13.5141 6.67775 16.1621 5.61108C16.742 5.37852 17.2429 5.41959 17.6646 5.73411C19.034 6.73251 19.1796 10.2199 19.1796 10.2609C19.1796 10.302 19.2192 10.343 19.2588 10.343C19.2588 10.343 19.2587 10.343 19.2713 10.343C19.2983 10.3566 19.3244 10.3293 19.3244 10.2883Z" fill="url(#paint0_linear_8068_395677)"/>
<path fill-rule="evenodd" clip-rule="evenodd" d="M19.5492 8.57823C19.2462 7.10122 18.7453 6.10282 18.0476 5.58313C17.6655 5.30968 17.2564 5.18656 16.8086 5.21394C17.1647 5.24123 17.4937 5.36436 17.7968 5.58313C18.4954 6.08922 18.9962 7.10122 19.2992 8.57823C19.5096 9.61761 19.5492 10.5202 19.5492 10.5613C19.5492 10.7254 19.4701 10.8485 19.3379 10.8895C19.3649 10.9031 19.391 10.9032 19.4045 10.9032C19.6283 10.9305 19.7992 10.78 19.7866 10.5613C19.7992 10.5202 19.7596 9.6313 19.5492 8.57823Z" fill="url(#paint1_linear_8068_395677)"/>
<path fill-rule="evenodd" clip-rule="evenodd" d="M16.2299 6.15907C13.7528 7.15738 13.8714 11.9577 13.8714 12.0124C13.8714 12.1765 13.7923 12.2996 13.6602 12.3406C13.6871 12.3543 13.6998 12.3543 13.7267 12.3543C13.7393 12.3543 13.7663 12.3543 13.7789 12.3543C13.9767 12.3543 14.1079 12.2039 14.1079 12.0124C14.1079 11.9577 13.9902 7.17107 16.4664 6.17277C16.6382 6.1044 16.7964 6.06333 16.9411 6.04964C16.7298 6.00866 16.4934 6.04964 16.2299 6.15907Z" fill="url(#paint2_linear_8068_395677)"/>
<path fill-rule="evenodd" clip-rule="evenodd" d="M19.9832 7.34853L8.81136 10.9316C8.81136 10.9316 8.33752 11.0684 8.21883 11.2188C8.10014 11.3692 8.07406 11.7932 8.07406 11.7932L6.34766 25.606L19.3116 28.1224L20.3132 7.33484C20.1685 7.30746 20.0228 7.33484 19.9832 7.34853Z" fill="url(#paint3_linear_8068_395677)"/>
<path fill-rule="evenodd" clip-rule="evenodd" d="M23.844 9.12528C23.844 9.12528 23.8305 9.01584 23.7649 8.97486C23.7118 8.93379 23.6462 8.93379 23.6462 8.93379L21.8146 8.79707L20.4713 7.41579C20.4182 7.37472 20.3652 7.34743 20.2996 7.33374L19.2988 28.1213L26.3202 26.5486L23.844 9.12528Z" fill="url(#paint4_linear_8068_395677)"/>
<path fill-rule="evenodd" clip-rule="evenodd" d="M15.3731 18.889C15.1752 18.6155 14.9388 18.3693 14.7014 18.1505C14.464 17.9317 14.2141 17.7539 13.9632 17.5898C13.7924 17.4803 13.6341 17.3709 13.5019 17.2615C13.3707 17.1521 13.2655 17.0427 13.1863 16.947C13.1072 16.8375 13.0415 16.7418 13.002 16.6325C12.9624 16.523 12.9489 16.4136 12.9489 16.3042C12.9489 16.1537 12.9885 16.0033 13.0416 15.8802C13.0937 15.7572 13.1863 15.6477 13.278 15.552C13.3841 15.4563 13.5019 15.3879 13.6476 15.3332C13.7924 15.2785 13.9632 15.2512 14.1475 15.2375C14.3453 15.2238 14.5431 15.2375 14.7275 15.2512C14.9118 15.2648 15.0835 15.3058 15.2544 15.3468C15.4126 15.3879 15.5708 15.4426 15.7021 15.4973C15.8343 15.552 15.9656 15.6067 16.0582 15.6614L16.9277 12.9809C16.7964 12.9126 16.6382 12.8441 16.4664 12.8031C16.2821 12.7484 16.0843 12.7074 15.8604 12.68C15.6365 12.6527 15.3991 12.639 15.1491 12.639C14.8992 12.639 14.6358 12.6527 14.3588 12.6937C13.7663 12.7758 13.2385 12.9399 12.7646 13.186C12.3169 13.4186 11.9212 13.7194 11.5921 14.0887C11.2756 14.4443 11.0256 14.8545 10.8413 15.3195C10.6696 15.7709 10.5644 16.2769 10.5383 16.8238C10.5248 17.1521 10.5509 17.453 10.63 17.7265C10.6957 18 10.8018 18.2599 10.9465 18.506C11.0778 18.7522 11.2495 18.9711 11.4339 19.1761C11.6182 19.3813 11.8421 19.5728 12.066 19.7506C12.2503 19.8873 12.4085 20.024 12.5407 20.1472C12.672 20.2703 12.7781 20.3933 12.8563 20.5301C12.9355 20.6532 12.9885 20.7763 13.0281 20.913C13.0676 21.0361 13.0811 21.1728 13.0676 21.3097C13.0676 21.4464 13.0281 21.5831 12.975 21.6925C12.9229 21.802 12.8563 21.9114 12.7511 21.9935C12.6594 22.0755 12.5407 22.1302 12.4086 22.1576C12.2773 22.1848 12.119 22.1985 11.9473 22.1712C11.7504 22.1439 11.5525 22.0892 11.3682 22.0071C11.1839 21.9387 10.9987 21.843 10.8279 21.7472C10.657 21.6516 10.4988 21.5421 10.3666 21.4464C10.2219 21.3506 10.1031 21.2412 10.0114 21.1592L9.41797 23.1969C9.51058 23.3337 9.64189 23.4568 9.78665 23.5798C9.93231 23.7029 10.1032 23.826 10.301 23.9491C10.4988 24.0585 10.7092 24.1679 10.9331 24.2636C11.157 24.3594 11.4078 24.4414 11.6578 24.5099H11.6713H11.6838H11.6973H11.7108C12.2503 24.6329 12.7646 24.6603 13.252 24.5919C13.7528 24.5235 14.214 24.3457 14.6087 24.0722C15.017 23.785 15.3469 23.402 15.5969 22.896C15.8478 22.39 15.9925 21.7746 16.0186 21.0771C16.0321 20.6395 15.9791 20.2566 15.8604 19.901C15.7417 19.4907 15.5709 19.1761 15.3731 18.889Z" fill="url(#paint5_linear_8068_395677)"/>
<path opacity="0.226763" fill-rule="evenodd" clip-rule="evenodd" d="M9.50383 23.3102C9.47326 23.2739 9.44446 23.2369 9.41838 23.1989L10.0118 21.1611C10.0199 21.1687 10.0289 21.1766 10.0379 21.1846C10.126 21.2634 10.2358 21.3614 10.367 21.4483C10.4992 21.5441 10.6575 21.6535 10.8283 21.7492C10.9991 21.8449 11.1843 21.9406 11.3686 22.0091C11.553 22.0911 11.7508 22.1458 11.9477 22.1732C12.1195 22.2005 12.2777 22.1869 12.409 22.1595C12.5412 22.1321 12.6598 22.0774 12.7515 21.9954C12.8567 21.9133 12.9233 21.8039 12.9755 21.6945C13.0285 21.585 13.068 21.4483 13.068 21.3116C13.0815 21.1748 13.068 21.0381 13.0285 20.9149C12.9889 20.7782 12.9359 20.6551 12.8567 20.5321C12.7821 20.402 12.6832 20.2845 12.56 20.1674C12.6248 20.2405 12.6796 20.3156 12.7255 20.3952C12.8046 20.5184 12.8568 20.6414 12.8963 20.7782C12.9359 20.9012 12.9494 21.0381 12.9359 21.1748C12.9359 21.3116 12.8963 21.4483 12.8442 21.5577C12.7911 21.6672 12.7255 21.7765 12.6203 21.8586C12.5277 21.9406 12.409 21.9954 12.2777 22.0227C12.1455 22.0501 11.9873 22.0637 11.8165 22.0364C11.6186 22.0091 11.4208 21.9543 11.2365 21.8723C11.0522 21.8039 10.8678 21.7082 10.6961 21.6124C10.5252 21.5167 10.367 21.4073 10.2358 21.3116C10.1036 21.2247 9.99388 21.1266 9.90577 21.0479C9.89677 21.0398 9.88864 21.032 9.87964 21.0244L9.28711 23.0621C9.34555 23.1491 9.42021 23.2306 9.50383 23.3102ZM11.4451 19.1905C11.3956 19.1416 11.348 19.0919 11.3021 19.0413C11.1178 18.8362 10.947 18.6174 10.8148 18.3712C10.67 18.125 10.5648 17.8652 10.4992 17.5917C10.4201 17.3182 10.3931 17.0173 10.4065 16.689C10.4326 16.142 10.5387 15.636 10.7096 15.1847C10.8939 14.7197 11.1448 14.3095 11.4604 13.9539C11.7904 13.5846 12.1851 13.2837 12.6328 13.0512C13.1076 12.8051 13.6345 12.641 14.227 12.5589C14.504 12.5178 14.7674 12.5042 15.0174 12.5042C15.2683 12.5042 15.5056 12.5178 15.7295 12.5452C15.9534 12.5726 16.1512 12.6136 16.3356 12.6683C16.5064 12.7093 16.6647 12.7777 16.7968 12.846L16.7761 12.91C16.6808 12.8686 16.5765 12.8313 16.4668 12.8051C16.2825 12.7504 16.0847 12.7093 15.8608 12.6819C15.6369 12.6547 15.3995 12.641 15.1496 12.641C14.8996 12.641 14.6362 12.6547 14.3592 12.6956C13.7667 12.7777 13.2389 12.9418 12.765 13.188C12.3173 13.4205 11.9216 13.7213 11.5925 14.0906C11.276 14.4462 11.0261 14.8564 10.8417 15.3215C10.67 15.7728 10.5648 16.2788 10.5387 16.8258C10.5253 17.1541 10.5513 17.4549 10.6305 17.7284C10.6961 18.002 10.8022 18.2618 10.9469 18.508C11.0782 18.7541 11.2499 18.973 11.4343 19.1781C11.4379 19.1822 11.4415 19.1864 11.4451 19.1905ZM13.2344 17.0049C13.3063 17.0862 13.3963 17.1748 13.5024 17.2634C13.6345 17.3728 13.7928 17.4823 13.9636 17.5917C14.2145 17.7558 14.4644 17.9336 14.7018 18.1524C14.771 18.2161 14.8394 18.282 14.9077 18.3504C14.798 18.2325 14.6838 18.1209 14.5696 18.0157C14.3331 17.7968 14.0823 17.619 13.8323 17.4549C13.6606 17.3455 13.5024 17.2361 13.3711 17.1267C13.3216 17.0859 13.2766 17.0451 13.2344 17.0049Z" fill="black"/>
<path opacity="0.41" fill-rule="evenodd" clip-rule="evenodd" d="M22.2635 24.2516L21.8157 8.79766L21.7366 8.71561L21.9479 24.0328C21.9479 24.0328 20.0903 26.9594 19.8133 26.8774C19.4051 26.7543 20.6172 7.5668 20.6172 7.5668L20.485 7.43008C20.4329 7.389 20.3663 7.36171 20.3142 7.34802L19.326 27.8484L19.3125 28.1356L19.6551 27.6843L22.2635 24.2516Z" fill="url(#paint6_linear_8068_395677)"/>
<path fill-rule="evenodd" clip-rule="evenodd" d="M17.2156 8.23581C17.0582 8.87854 16.8604 9.48028 16.7157 9.84956C16.623 10.0684 16.7282 10.2735 16.9261 10.3009C17.1374 10.3283 17.3738 10.1778 17.453 9.95899C17.4664 9.91792 17.8216 9.02904 18.0464 7.97597V7.96228L17.2156 8.23581Z" fill="url(#paint7_linear_8068_395677)"/>
<path fill-rule="evenodd" clip-rule="evenodd" d="M11.2742 10.1519C11.0899 10.5621 10.9056 10.9177 10.7734 11.1639C10.6556 11.3691 10.7212 11.5878 10.919 11.6425C11.116 11.711 11.3794 11.5878 11.4981 11.3827C11.5116 11.3554 11.8937 10.6853 12.2363 9.83728L11.2742 10.1519Z" fill="url(#paint8_linear_8068_395677)"/>
<path opacity="0.32" fill-rule="evenodd" clip-rule="evenodd" d="M19.3125 28.1215L22.2635 24.2511L26.3483 26.5487L19.3125 28.1215Z" fill="url(#paint9_linear_8068_395677)"/>
<path opacity="0.19" fill-rule="evenodd" clip-rule="evenodd" d="M19.3125 28.1215L22.2374 24.2511L26.3483 26.5487L19.3125 28.1215Z" fill="url(#paint10_linear_8068_395677)"/>
<path opacity="0.19" fill-rule="evenodd" clip-rule="evenodd" d="M19.3125 28.1215L22.2374 24.2511L26.3483 26.5487L19.3125 28.1215Z" fill="url(#paint11_linear_8068_395677)"/>
<path opacity="0.6" fill-rule="evenodd" clip-rule="evenodd" d="M16.44 17.2905C17.9685 19.4376 18.9962 21.7625 19.5096 24.0191L20.3135 7.32064C20.1687 7.29334 20.0231 7.32064 19.9835 7.33433L8.81163 10.9312C8.81163 10.9312 8.70639 10.9585 8.57422 11.0132C11.4074 12.0252 14.2398 14.1997 16.44 17.2905Z" fill="url(#paint12_linear_8068_395677)"/>
<path fill-rule="evenodd" clip-rule="evenodd" d="M23.7773 8.98768C23.8438 9.04244 23.8438 9.12449 23.8438 9.12449L26.294 26.534L22.2622 24.2365L21.8145 8.78259L23.6199 8.91931C23.6325 8.933 23.7116 8.933 23.7773 8.98768Z" fill="url(#paint13_linear_8068_395677)"/>
<path fill-rule="evenodd" clip-rule="evenodd" d="M23.488 9.02981C23.488 9.02981 23.5671 9.02981 23.6327 9.09817C23.6984 9.15293 23.7118 9.23498 23.7118 9.23498L26.1233 26.4531L26.3077 26.5625L23.8566 9.13924C23.8566 9.13924 23.844 9.05719 23.7909 9.00252C23.7253 8.94776 23.6327 8.94776 23.6327 8.94776L21.8281 8.81104L23.488 9.02981Z" fill="url(#paint14_linear_8068_395677)"/>
<path fill-rule="evenodd" clip-rule="evenodd" d="M6.34766 25.6054L19.3116 28.1218L19.9446 13.8713L7.9598 14.212L6.34766 25.6054Z" fill="url(#paint15_linear_8068_395677)"/>
<path opacity="0.3" fill-rule="evenodd" clip-rule="evenodd" d="M10.6027 11.1317C10.4849 11.4641 10.6008 11.8133 10.8634 11.9119C11.125 12.0105 11.4326 11.8209 11.5513 11.4886C11.669 11.1563 11.5522 10.807 11.2905 10.7085C11.0289 10.6099 10.7204 10.7994 10.6027 11.1317Z" fill="white"/>
<path opacity="0.89" fill-rule="evenodd" clip-rule="evenodd" d="M10.5888 10.972C10.4711 11.3043 10.5879 11.6536 10.8496 11.7522C11.1112 11.8508 11.4197 11.6612 11.5374 11.3289C11.6552 10.9965 11.5393 10.6472 11.2767 10.5487C11.0151 10.4501 10.7075 10.6396 10.5888 10.972Z" fill="black"/>
<path fill-rule="evenodd" clip-rule="evenodd" d="M21.8292 8.79707L20.485 7.41579C20.4329 7.37472 20.3663 7.34743 20.3142 7.33374L19.3125 28.1213L22.277 24.2373L21.8292 8.79707Z" fill="url(#paint16_linear_8068_395677)"/>
<path fill-rule="evenodd" clip-rule="evenodd" d="M19.9839 7.34835L8.81202 10.9314C8.81202 10.9314 8.33817 11.0682 8.21948 11.2186C8.20599 11.2323 8.20595 11.246 8.19336 11.2597L19.457 8.03214C19.5496 8.00476 19.7735 7.92271 19.7474 8.59282L19.0623 28.0949L19.2997 28.1359L20.3004 7.34835C20.1691 7.30728 20.0235 7.33466 19.9839 7.34835Z" fill="url(#paint17_linear_8068_395677)"/>
<path fill-rule="evenodd" clip-rule="evenodd" d="M19.9839 7.34835L8.81202 10.9314C8.81202 10.9314 8.33817 11.0682 8.21948 11.2186C8.20599 11.2323 8.20595 11.246 8.19336 11.2597L10.8018 10.5075L19.7735 7.62189C19.8131 7.6082 19.9578 7.58082 20.1026 7.6082L19.1144 28.0949L19.2997 28.1359L20.3004 7.34835C20.1691 7.30728 20.0235 7.33466 19.9839 7.34835Z" fill="url(#paint18_linear_8068_395677)"/>
<path opacity="0.32" fill-rule="evenodd" clip-rule="evenodd" d="M22.8558 24.5788L22.2624 24.2369L19.2988 28.1209L19.4562 28.0799C19.4562 28.0799 22.0655 24.5925 22.3019 24.4831C22.4737 24.4147 22.8558 24.5788 22.8558 24.5788Z" fill="url(#paint19_linear_8068_395677)"/>
<path opacity="0.57" fill-rule="evenodd" clip-rule="evenodd" d="M19.3125 28.1209L22.277 24.2369C22.2635 24.2506 20.3933 26.3704 19.3125 28.1209Z" fill="url(#paint20_linear_8068_395677)"/>
<path opacity="0.46" fill-rule="evenodd" clip-rule="evenodd" d="M26.347 26.5487L22.2757 24.2511C22.2622 24.2511 22.7369 24.3331 26.347 26.5487Z" fill="url(#paint21_linear_8068_395677)"/>
<path opacity="0.3" fill-rule="evenodd" clip-rule="evenodd" d="M16.6265 9.76814C16.5078 10.1005 16.6247 10.4499 16.8863 10.5485C17.1489 10.6471 17.4564 10.4576 17.5742 10.1252C17.6929 9.79283 17.576 9.44351 17.3144 9.3449C17.0527 9.24639 16.7443 9.43581 16.6265 9.76814Z" fill="white"/>
<path opacity="0.89" fill-rule="evenodd" clip-rule="evenodd" d="M16.6123 9.60838C16.4945 9.94079 16.6114 10.2901 16.8731 10.3887C17.1347 10.4872 17.4431 10.2978 17.5609 9.9654C17.6787 9.63307 17.5627 9.28375 17.301 9.18515C17.0385 9.08654 16.731 9.27606 16.6123 9.60838Z" fill="black"/>
<path fill-rule="evenodd" clip-rule="evenodd" d="M11.0648 11.6436C11.0514 11.6436 11.0253 11.6436 11.0118 11.6436C10.8014 11.6163 10.6566 11.4111 10.6827 11.1786C10.7088 10.9598 11.4596 5.84494 14.5427 4.68253C15.3196 4.3953 15.9787 4.44997 16.4795 4.87401C17.0855 5.38001 17.4146 6.39201 17.4676 7.86903C17.5072 8.90841 17.3886 9.81098 17.3886 9.85205C17.3625 10.0708 17.1647 10.235 16.9534 10.1939C16.743 10.1666 16.5847 9.96148 16.6243 9.74261C16.7429 8.81267 16.8742 6.25529 15.9922 5.51673C15.7152 5.28427 15.3331 5.25689 14.8197 5.44837C12.1717 6.44668 11.473 11.247 11.473 11.288C11.42 11.4932 11.2627 11.6436 11.0648 11.6436Z" fill="#595961"/>
<path opacity="0.46" fill-rule="evenodd" clip-rule="evenodd" d="M16.3215 4.90172C15.8603 4.51885 15.2542 4.46418 14.5295 4.72402C13.2779 5.20264 12.2241 6.4608 11.4994 8.36176C10.9599 9.77042 10.7747 11.0423 10.7747 11.097C10.7621 11.1654 10.7882 11.2337 10.8277 11.2885C10.8673 11.3432 10.9203 11.3842 10.986 11.3842C10.9985 11.3842 11.012 11.3842 11.0255 11.3842C11.1442 11.3842 11.2494 11.2885 11.2629 11.1654C11.2755 11.1107 11.9741 6.22833 14.7013 5.20264C15.2542 4.99747 15.702 5.02485 16.0185 5.29838C16.9536 6.07792 16.8223 8.71735 16.7036 9.66099C16.6902 9.7978 16.7828 9.93452 16.914 9.94821C17.0462 9.9619 17.1775 9.86616 17.191 9.72944C17.2045 9.57894 17.6657 6.02325 16.3215 4.90172Z" fill="#B2B2C2"/>
<path opacity="0.81" fill-rule="evenodd" clip-rule="evenodd" d="M11.0121 11.2338C10.9986 11.2338 10.9986 11.2338 10.986 11.2338C10.9069 11.2201 10.8538 11.1381 10.8673 11.056C10.8808 11.0013 11.0517 9.75679 11.5921 8.34813C12.3168 6.47455 13.3445 5.22999 14.5691 4.76497C15.2678 4.50513 15.8342 4.55989 16.2685 4.91548C17.5597 5.99584 17.1119 9.49694 17.0858 9.64736C17.0724 9.72941 17.0067 9.78408 16.9141 9.77048C16.8359 9.75679 16.7828 9.68843 16.7828 9.59269C16.7828 9.55162 17.2306 6.11896 16.0716 5.13425C15.729 4.87441 15.2543 4.84711 14.6753 5.06589C11.8951 6.11896 11.1704 11.056 11.1704 11.1107C11.1569 11.179 11.0912 11.2338 11.0121 11.2338Z" fill="#B2B2C2"/>
<path opacity="0.42" fill-rule="evenodd" clip-rule="evenodd" d="M12.7503 7.32007C12.8951 7.11499 13.0272 6.90981 13.1585 6.69104C13.1064 6.7594 12.7242 7.47058 11.9339 7.36114C11.9204 7.36114 12.3817 7.51156 12.7503 7.32007Z" fill="#595961"/>
<path opacity="0.42" fill-rule="evenodd" clip-rule="evenodd" d="M12.3019 8.19562C12.4206 7.97675 12.5393 7.74429 12.631 7.52551C12.5914 7.60756 12.328 8.34603 11.498 8.34603C11.498 8.34603 11.9593 8.44177 12.3019 8.19562Z" fill="#595961"/>
<path opacity="0.42" fill-rule="evenodd" clip-rule="evenodd" d="M11.9602 9.10007C12.0654 8.86752 12.1446 8.63505 12.2237 8.40259C12.1842 8.48464 12.0394 9.23679 11.1699 9.33253C11.1699 9.31884 11.6437 9.37361 11.9602 9.10007Z" fill="#595961"/>
<path opacity="0.62" fill-rule="evenodd" clip-rule="evenodd" d="M17.2297 6.43226C17.1641 6.18601 17.0984 5.95355 17.0058 5.7074C17.0319 5.78945 17.2953 6.56898 16.7559 7.12966C16.7559 7.12966 17.1506 6.85621 17.2297 6.43226Z" fill="#595961"/>
<path opacity="0.62" fill-rule="evenodd" clip-rule="evenodd" d="M16.716 5.20178C16.5317 5.02399 16.3464 4.85989 16.1621 4.70947C16.2286 4.77783 16.8473 5.28383 16.6764 6.04968C16.663 6.04968 16.8608 5.59835 16.716 5.20178Z" fill="#595961"/>
<path opacity="0.62" fill-rule="evenodd" clip-rule="evenodd" d="M17.361 7.69182C17.3475 7.44566 17.308 7.18582 17.2684 6.93958C17.2684 7.03532 17.4006 7.84223 16.7676 8.27987C16.7676 8.27987 17.2027 8.08839 17.361 7.69182Z" fill="#595961"/>
<path opacity="0.62" fill-rule="evenodd" clip-rule="evenodd" d="M17.4267 8.97725C17.4402 8.7311 17.4402 8.47125 17.4267 8.2251C17.4267 8.32084 17.4401 9.12776 16.7676 9.49694C16.7676 9.48334 17.2289 9.34653 17.4267 8.97725Z" fill="#595961"/>
<path opacity="0.42" fill-rule="evenodd" clip-rule="evenodd" d="M11.6568 10.0969C11.736 9.85078 11.789 9.60462 11.8412 9.37207C11.8151 9.45412 11.6964 10.2337 10.8926 10.4251C10.9061 10.4251 11.3799 10.4115 11.6568 10.0969Z" fill="#595961"/>
<path opacity="0.42" fill-rule="evenodd" clip-rule="evenodd" d="M13.252 6.56744C13.4363 6.40333 13.608 6.22554 13.7663 6.03406C13.6997 6.08873 13.1728 6.64949 12.4355 6.44432C12.4481 6.44432 12.8564 6.69056 13.252 6.56744Z" fill="#595961"/>
<path opacity="0.42" fill-rule="evenodd" clip-rule="evenodd" d="M13.8433 5.93957C14.0546 5.80285 14.2524 5.66604 14.4493 5.51562C14.3711 5.5567 13.765 6.00793 13.0664 5.67973C13.0664 5.67973 13.4351 5.99424 13.8433 5.93957Z" fill="#595961"/>
<path opacity="0.62" fill-rule="evenodd" clip-rule="evenodd" d="M14.648 5.49006C14.8854 5.42161 15.1093 5.33956 15.3332 5.25751C15.2541 5.28489 14.5428 5.53104 13.9629 5.01135C13.9629 5.01135 14.2398 5.42161 14.648 5.49006Z" fill="#595961"/>
<path opacity="0.62" fill-rule="evenodd" clip-rule="evenodd" d="M15.3193 5.24238C15.5046 5.26976 15.6889 5.28345 15.8732 5.29714C15.8076 5.28345 15.2411 5.24238 14.9902 4.69531C15.0037 4.69531 15.0694 5.06459 15.3193 5.24238Z" fill="#595961"/>
<path opacity="0.62" fill-rule="evenodd" clip-rule="evenodd" d="M16.0325 5.54465C16.1512 5.69506 16.269 5.84548 16.3877 5.98229C16.3481 5.92753 15.9794 5.47629 16.1638 4.91553C16.1773 4.91553 15.9794 5.23013 16.0325 5.54465Z" fill="#595961"/>
<path fill-rule="evenodd" clip-rule="evenodd" d="M16.9409 9.57799C16.9535 9.42758 17.4022 5.96754 16.1506 4.91447C15.9132 4.70939 15.6237 4.61365 15.3072 4.61365C15.0698 4.61365 14.8064 4.66832 14.5295 4.77775C13.3174 5.22908 12.3032 6.44625 11.5919 8.30615C11.0515 9.70112 10.8807 10.9457 10.8672 11.0003C10.8672 11.0413 10.8933 11.0824 10.9329 11.0824H10.9463C10.9859 11.0824 11.012 11.055 11.012 11.014C11.0254 10.9593 11.7367 5.96754 14.569 4.90078C15.175 4.66832 15.6893 4.70939 16.058 5.02391C17.2565 6.02221 16.8088 9.50963 16.7962 9.5507C16.7962 9.59168 16.8223 9.63276 16.8618 9.63276C16.8618 9.63276 16.8618 9.63276 16.8744 9.63276C16.914 9.64645 16.9409 9.61906 16.9409 9.57799Z" fill="url(#paint22_linear_8068_395677)"/>
<path fill-rule="evenodd" clip-rule="evenodd" d="M17.4672 7.86803C17.4142 6.39101 17.0851 5.39261 16.4791 4.87292C16.15 4.59948 15.7544 4.47636 15.3066 4.50374C15.6492 4.53103 15.9648 4.65415 16.2292 4.87292C16.8352 5.37901 17.1642 6.39101 17.2164 7.86803C17.256 8.90741 17.1382 9.80998 17.1382 9.85105C17.1112 10.0152 17.006 10.1383 16.8738 10.1793C16.9008 10.1929 16.9134 10.1929 16.9403 10.1929C17.1507 10.2203 17.3486 10.0698 17.3747 9.85105C17.3882 9.80998 17.5068 8.9211 17.4672 7.86803Z" fill="url(#paint23_linear_8068_395677)"/>
<path fill-rule="evenodd" clip-rule="evenodd" d="M14.5574 5.44869C11.9094 6.447 11.2107 11.2473 11.2107 11.302C11.1847 11.4661 11.0785 11.5892 10.9473 11.6302C10.9733 11.6439 10.9868 11.6439 11.0129 11.6439C11.0264 11.6439 11.0525 11.6439 11.066 11.6439C11.2638 11.6439 11.4211 11.4935 11.4481 11.302C11.4607 11.2473 12.1458 6.46069 14.7938 5.46229C14.9791 5.39393 15.1364 5.35295 15.2821 5.33926C15.0843 5.31188 14.8334 5.35295 14.5574 5.44869Z" fill="url(#paint24_linear_8068_395677)"/>
</g>
<defs>
<linearGradient id="paint0_linear_8068_395677" x1="14.175" y1="5.35472" x2="13.7618" y2="10.9803" gradientUnits="userSpaceOnUse">
<stop stop-color="white" stop-opacity="0.65"/>
<stop offset="1" stop-color="white" stop-opacity="0.01"/>
</linearGradient>
<linearGradient id="paint1_linear_8068_395677" x1="17.1952" y1="8.57412" x2="20.1043" y2="11.1221" gradientUnits="userSpaceOnUse">
<stop stop-opacity="0.01"/>
<stop offset="1" stop-opacity="0.4"/>
</linearGradient>
<linearGradient id="paint2_linear_8068_395677" x1="16.0294" y1="11.5232" x2="19.1085" y2="8.65518" gradientUnits="userSpaceOnUse">
<stop stop-opacity="0.01"/>
<stop offset="1" stop-opacity="0.4"/>
</linearGradient>
<linearGradient id="paint3_linear_8068_395677" x1="12.1094" y1="3.15334" x2="0.149736" y2="16.9335" gradientUnits="userSpaceOnUse">
<stop stop-color="#B8D26E"/>
<stop offset="1" stop-color="#7FB525"/>
</linearGradient>
<linearGradient id="paint4_linear_8068_395677" x1="28.4692" y1="6.60217" x2="21.9055" y2="6.72405" gradientUnits="userSpaceOnUse">
<stop stop-color="#B4E034"/>
<stop offset="1" stop-color="#60A927"/>
</linearGradient>
<linearGradient id="paint5_linear_8068_395677" x1="8.94681" y1="15.7898" x2="3.56545" y2="28.8945" gradientUnits="userSpaceOnUse">
<stop stop-color="white"/>
<stop offset="1" stop-color="#CECEEB"/>
</linearGradient>
<linearGradient id="paint6_linear_8068_395677" x1="16.6627" y1="48.0641" x2="25.1857" y2="48.0469" gradientUnits="userSpaceOnUse">
<stop stop-color="#1D1D1B" stop-opacity="0.5"/>
<stop offset="0.038033" stop-color="#1D1D1B" stop-opacity="0.4837"/>
<stop offset="0.4243" stop-color="#1D1D1B" stop-opacity="0.3185"/>
<stop offset="1" stop-color="#1D1D1B" stop-opacity="0.01"/>
</linearGradient>
<linearGradient id="paint7_linear_8068_395677" x1="17.6508" y1="7.04441" x2="16.2368" y2="7.80541" gradientUnits="userSpaceOnUse">
<stop stop-opacity="0.01"/>
<stop offset="1" stop-opacity="0.4"/>
</linearGradient>
<linearGradient id="paint8_linear_8068_395677" x1="11.7229" y1="9.30301" x2="10.729" y2="10.1572" gradientUnits="userSpaceOnUse">
<stop stop-opacity="0.01"/>
<stop offset="1" stop-opacity="0.4"/>
</linearGradient>
<linearGradient id="paint9_linear_8068_395677" x1="21.4201" y1="26.5589" x2="21.5207" y2="27.8854" gradientUnits="userSpaceOnUse">
<stop stop-opacity="0.01"/>
<stop offset="1" stop-opacity="0.4"/>
</linearGradient>
<linearGradient id="paint10_linear_8068_395677" x1="19.0706" y1="24.617" x2="19.3039" y2="28.0658" gradientUnits="userSpaceOnUse">
<stop stop-color="white" stop-opacity="0.5"/>
<stop offset="0.0896271" stop-color="white" stop-opacity="0.4552"/>
<stop offset="1" stop-color="white" stop-opacity="0.01"/>
</linearGradient>
<linearGradient id="paint11_linear_8068_395677" x1="18.622" y1="25.1534" x2="19.037" y2="28.8375" gradientUnits="userSpaceOnUse">
<stop stop-opacity="0.01"/>
<stop offset="1" stop-opacity="0.4"/>
</linearGradient>
<linearGradient id="paint12_linear_8068_395677" x1="16.9929" y1="3.95768" x2="6.34955" y2="10.1134" gradientUnits="userSpaceOnUse">
<stop stop-color="white" stop-opacity="0.5"/>
<stop offset="1" stop-color="white" stop-opacity="0.01"/>
</linearGradient>
<linearGradient id="paint13_linear_8068_395677" x1="19.046" y1="36.1281" x2="28.4403" y2="36.1471" gradientUnits="userSpaceOnUse">
<stop stop-color="#1D1D1B" stop-opacity="0.5"/>
<stop offset="0.0896271" stop-color="#1D1D1B" stop-opacity="0.4552"/>
<stop offset="1" stop-color="#1D1D1B" stop-opacity="0.01"/>
</linearGradient>
<linearGradient id="paint14_linear_8068_395677" x1="25.7736" y1="8.29278" x2="24.4391" y2="8.61977" gradientUnits="userSpaceOnUse">
<stop stop-color="white" stop-opacity="0.4"/>
<stop offset="1" stop-color="white" stop-opacity="0.01"/>
</linearGradient>
<linearGradient id="paint15_linear_8068_395677" x1="13.8007" y1="28.274" x2="14.4946" y2="24.9285" gradientUnits="userSpaceOnUse">
<stop stop-color="#1D1D1B" stop-opacity="0.5"/>
<stop offset="0.0896271" stop-color="#1D1D1B" stop-opacity="0.4552"/>
<stop offset="1" stop-color="#1D1D1B" stop-opacity="0.01"/>
</linearGradient>
<linearGradient id="paint16_linear_8068_395677" x1="17.8136" y1="47.6377" x2="26.3672" y2="47.6451" gradientUnits="userSpaceOnUse">
<stop stop-color="#1D1D1B" stop-opacity="0.5"/>
<stop offset="1" stop-color="#1D1D1B" stop-opacity="0.01"/>
</linearGradient>
<linearGradient id="paint17_linear_8068_395677" x1="9.99705" y1="6.14317" x2="5.84859" y2="22.0814" gradientUnits="userSpaceOnUse">
<stop stop-color="white" stop-opacity="0.5"/>
<stop offset="1" stop-color="white" stop-opacity="0.01"/>
</linearGradient>
<linearGradient id="paint18_linear_8068_395677" x1="9.99705" y1="6.14317" x2="5.84859" y2="22.0814" gradientUnits="userSpaceOnUse">
<stop stop-color="white" stop-opacity="0.5"/>
<stop offset="1" stop-color="white" stop-opacity="0.01"/>
</linearGradient>
<linearGradient id="paint19_linear_8068_395677" x1="20.064" y1="22.8495" x2="16.785" y2="27.3626" gradientUnits="userSpaceOnUse">
<stop stop-color="white" stop-opacity="0.5"/>
<stop offset="0.0896271" stop-color="white" stop-opacity="0.4552"/>
<stop offset="1" stop-color="white" stop-opacity="0.01"/>
</linearGradient>
<linearGradient id="paint20_linear_8068_395677" x1="21.0541" y1="23.8871" x2="20.7295" y2="24.6148" gradientUnits="userSpaceOnUse">
<stop stop-opacity="0.01"/>
<stop offset="1" stop-opacity="0.4"/>
</linearGradient>
<linearGradient id="paint21_linear_8068_395677" x1="24.2727" y1="24.8499" x2="24.2566" y2="25.0455" gradientUnits="userSpaceOnUse">
<stop stop-opacity="0.01"/>
<stop offset="1" stop-opacity="0.4"/>
</linearGradient>
<linearGradient id="paint22_linear_8068_395677" x1="12.4659" y1="4.15328" x2="11.0484" y2="9.75318" gradientUnits="userSpaceOnUse">
<stop stop-color="white" stop-opacity="0.65"/>
<stop offset="1" stop-color="white" stop-opacity="0.01"/>
</linearGradient>
<linearGradient id="paint23_linear_8068_395677" x1="15.6375" y1="7.38315" x2="18.1034" y2="9.89011" gradientUnits="userSpaceOnUse">
<stop stop-opacity="0.01"/>
<stop offset="1" stop-opacity="0.4"/>
</linearGradient>
<linearGradient id="paint24_linear_8068_395677" x1="14.0628" y1="11.0762" x2="17.4698" y2="7.57733" gradientUnits="userSpaceOnUse">
<stop stop-opacity="0.01"/>
<stop offset="1" stop-opacity="0.4"/>
</linearGradient>
<clipPath id="clip0_8068_395677">
<rect width="32" height="32" fill="white" transform="translate(0.347656 0.5)"/>
</clipPath>
</defs>
</svg>
