<svg width="16" height="16" viewBox="0 0 16 16" fill="none" xmlns="http://www.w3.org/2000/svg">
<path d="M13.3332 12.0833C13.7474 12.0833 14.0832 11.7475 14.0832 11.3333C14.0832 10.9191 13.7474 10.5833 13.3332 10.5833V12.0833ZM2.6665 11.3333L2.13617 10.803C1.84328 11.0959 1.84328 11.5708 2.13617 11.8637L2.6665 11.3333ZM5.8635 9.197C6.15639 8.9041 6.15639 8.42923 5.8635 8.13634C5.57061 7.84344 5.09573 7.84344 4.80284 8.13634L5.8635 9.197ZM4.80284 14.5303C5.09573 14.8232 5.57061 14.8232 5.8635 14.5303C6.15639 14.2374 6.15639 13.7626 5.8635 13.4697L4.80284 14.5303ZM2.6665 3.91667C2.25229 3.91667 1.9165 4.25245 1.9165 4.66667C1.9165 5.08088 2.25229 5.41667 2.6665 5.41667V3.91667ZM13.3332 4.66667L13.8635 5.197C14.1564 4.9041 14.1564 4.42923 13.8635 4.13634L13.3332 4.66667ZM11.1968 1.46967C10.9039 1.17678 10.4291 1.17678 10.1362 1.46967C9.84328 1.76256 9.84328 2.23744 10.1362 2.53033L11.1968 1.46967ZM10.1362 6.803C9.84328 7.0959 9.84328 7.57077 10.1362 7.86366C10.4291 8.15656 10.9039 8.15656 11.1968 7.86366L10.1362 6.803ZM13.3332 10.5833H2.6665V12.0833H13.3332V10.5833ZM4.80284 8.13634L2.13617 10.803L3.19683 11.8637L5.8635 9.197L4.80284 8.13634ZM2.13617 11.8637L4.80284 14.5303L5.8635 13.4697L3.19683 10.803L2.13617 11.8637ZM2.6665 5.41667H13.3332V3.91667H2.6665V5.41667ZM10.1362 2.53033L12.8028 5.197L13.8635 4.13634L11.1968 1.46967L10.1362 2.53033ZM12.8028 4.13634L10.1362 6.803L11.1968 7.86366L13.8635 5.197L12.8028 4.13634Z" fill="#D9EEFF" stroke-width="0"/>
</svg>
