<svg width="80" height="81" viewBox="0 0 80 81" fill="none" xmlns="http://www.w3.org/2000/svg">
<path d="M68.9227 15.2578H49.4417C48.8743 15.2578 48.33 15.4832 47.9288 15.8845C47.5275 16.2857 47.302 16.83 47.302 17.3974V30.3784C47.302 30.9459 47.5274 31.4902 47.9287 31.8915C48.33 32.2927 48.8743 32.5182 49.4417 32.5182H55.129C55.4605 32.5182 55.7785 32.6499 56.0129 32.8843L58.5171 35.3884C58.6343 35.5056 58.7933 35.5714 58.959 35.5714C59.1247 35.5714 59.2837 35.5056 59.4009 35.3884L61.9051 32.8843C62.0212 32.7682 62.159 32.6761 62.3107 32.6133C62.4624 32.5504 62.6249 32.5181 62.7891 32.5181H68.9229C69.4903 32.518 70.0345 32.2926 70.4358 31.8913C70.837 31.4901 71.0625 30.9459 71.0625 30.3784V17.3976C71.0625 16.8301 70.837 16.2859 70.4357 15.8846C70.0345 15.4834 69.4902 15.2579 68.9227 15.2579V15.2578ZM11.0773 15.2578H30.5583C31.1257 15.2578 31.67 15.4832 32.0712 15.8845C32.4725 16.2857 32.698 16.83 32.698 17.3974V30.3784C32.698 30.9459 32.4726 31.4902 32.0713 31.8915C31.67 32.2927 31.1257 32.5182 30.5583 32.5182H24.871C24.5395 32.5182 24.2215 32.6499 23.9871 32.8843L21.4829 35.3884C21.3657 35.5056 21.2067 35.5714 21.041 35.5714C20.8753 35.5714 20.7163 35.5056 20.5991 35.3884L18.0948 32.8843C17.8604 32.6499 17.5425 32.5181 17.211 32.5181H11.0773C10.5098 32.5181 9.96558 32.2927 9.56431 31.8914C9.16303 31.4902 8.93757 30.946 8.9375 30.3786V17.3976C8.93753 16.8301 9.16299 16.2859 9.56426 15.8846C9.96554 15.4834 10.5098 15.2579 11.0773 15.2579V15.2578Z" fill="#DAFFEE"/>
<path d="M52.5531 28.5718C53.6175 28.5706 54.638 28.1473 55.3907 27.3947C56.1433 26.642 56.5667 25.6216 56.5679 24.5572V15.2539H49.4419C48.8744 15.2539 48.3301 15.4793 47.9288 15.8806C47.5276 16.2819 47.3021 16.8262 47.3021 17.3937V28.5717L52.5531 28.5718ZM30.5584 15.2542H23.4324V24.5572C23.4336 25.6216 23.8569 26.642 24.6096 27.3947C25.3622 28.1473 26.3827 28.5706 27.4471 28.5718H32.6981V17.3938C32.6981 16.8263 32.4727 16.282 32.0714 15.8807C31.6701 15.4795 31.1259 15.254 30.5584 15.254V15.2542Z" fill="#7DD5A0"/>
<path d="M52.5531 9.4375H27.4471C26.8796 9.4375 26.3354 9.66294 25.9341 10.0642C25.5328 10.4655 25.3074 11.0098 25.3074 11.5773V24.5583C25.3074 25.1257 25.5329 25.6699 25.9341 26.0712C26.3354 26.4725 26.8796 26.6979 27.4471 26.6979H35.0094C35.1735 26.6979 35.3361 26.7302 35.4877 26.7931C35.6394 26.8559 35.7772 26.948 35.8932 27.0641L38.3975 29.5683C38.5147 29.6854 38.6736 29.7512 38.8394 29.7512C39.0051 29.7512 39.164 29.6854 39.2812 29.5683L41.7855 27.064C42.0199 26.8296 42.3379 26.6979 42.6694 26.6979H52.5531C53.1206 26.6979 53.6648 26.4725 54.0661 26.0712C54.4674 25.6699 54.6928 25.1257 54.6929 24.5583V11.5773C54.6929 11.0098 54.4674 10.4655 54.0662 10.0642C53.6649 9.66294 53.1206 9.4375 52.5531 9.4375Z" fill="#DAFFEE"/>
<path d="M65.4375 25.7604H58.552C58.3034 25.7604 58.0649 25.8591 57.8891 26.035C57.7133 26.2108 57.6145 26.4492 57.6145 26.6979C57.6145 26.9465 57.7133 27.185 57.8891 27.3608C58.0649 27.5366 58.3034 27.6354 58.552 27.6354H65.4375C65.6861 27.6354 65.9246 27.5366 66.1004 27.3608C66.2762 27.185 66.375 26.9465 66.375 26.6979C66.375 26.4492 66.2762 26.2108 66.1004 26.035C65.9246 25.8591 65.6861 25.7604 65.4375 25.7604ZM49.0677 14.3177H30.9322C30.6836 14.3177 30.4452 14.4165 30.2693 14.5923C30.0935 14.7682 29.9947 15.0066 29.9947 15.2552C29.9947 15.5039 30.0935 15.7423 30.2693 15.9182C30.4452 16.094 30.6836 16.1927 30.9322 16.1927H49.0677C49.3164 16.1927 49.5548 16.094 49.7307 15.9182C49.9065 15.7423 50.0052 15.5039 50.0052 15.2552C50.0052 15.0066 49.9065 14.7682 49.7307 14.5923C49.5548 14.4165 49.3164 14.3177 49.0677 14.3177ZM68.9228 14.3177H55.6302V11.5773C55.6293 10.7614 55.3048 9.97922 54.7279 9.40233C54.151 8.82543 53.3689 8.50093 52.553 8.5H27.447C26.6311 8.50093 25.849 8.82543 25.2721 9.40233C24.6952 9.97922 24.3707 10.7614 24.3697 11.5773V14.3177H11.0773C10.2614 14.3186 9.47924 14.6431 8.90234 15.22C8.32544 15.7969 8.00093 16.579 8 17.3949V30.3759C8.00093 31.1917 8.32543 31.9739 8.90233 32.5508C9.47922 33.1277 10.2614 33.4522 11.0773 33.4531H17.211C17.252 33.453 17.2927 33.461 17.3306 33.4767C17.3685 33.4924 17.4029 33.5154 17.4319 33.5445L19.9361 36.049C20.2294 36.3415 20.6267 36.5058 21.0409 36.5058C21.4552 36.5058 21.8525 36.3415 22.1458 36.049L24.65 33.5446C24.7087 33.4862 24.7882 33.4533 24.871 33.4531H30.5583C31.3741 33.4522 32.1563 33.1277 32.7332 32.5508C33.3101 31.9739 33.6346 31.1917 33.6355 30.3759V27.6354H35.0093C35.0921 27.6356 35.1715 27.6685 35.2303 27.727L37.7345 30.2313C38.0278 30.5238 38.4251 30.688 38.8393 30.688C39.2535 30.688 39.6508 30.5238 39.9441 30.2313L42.4485 27.7267C42.5072 27.6684 42.5866 27.6356 42.6694 27.6354H46.3645V30.3759C46.3654 31.1917 46.6899 31.9739 47.2668 32.5508C47.8437 33.1277 48.6259 33.4522 49.4417 33.4531H55.129C55.2118 33.4533 55.2912 33.4862 55.35 33.5445L57.8543 36.049C58.1475 36.3415 58.5448 36.5058 58.9591 36.5058C59.3733 36.5058 59.7706 36.3415 60.0639 36.049L62.568 33.5446C62.597 33.5155 62.6314 33.4924 62.6694 33.4767C62.7074 33.461 62.748 33.453 62.7891 33.4531H68.9229C69.7387 33.4522 70.5209 33.1276 71.0977 32.5508C71.6746 31.9739 71.9991 31.1917 72 30.3759V17.3949C71.9991 16.579 71.6746 15.7969 71.0977 15.22C70.5208 14.6431 69.7386 14.3186 68.9228 14.3177ZM31.7605 30.3759C31.7601 30.6946 31.6334 31.0002 31.408 31.2256C31.1826 31.451 30.877 31.5778 30.5583 31.5781H24.871C24.5836 31.5773 24.299 31.6336 24.0335 31.7435C23.768 31.8535 23.5269 32.015 23.3243 32.2187L21.041 34.5021L18.7575 32.2187C18.5548 32.015 18.3138 31.8535 18.0483 31.7435C17.7828 31.6336 17.4981 31.5774 17.2107 31.5781H11.077C10.7583 31.5777 10.4528 31.4509 10.2274 31.2255C10.0021 31.0001 9.87536 30.6946 9.875 30.3759V17.3949C9.87536 17.0761 10.0022 16.7706 10.2275 16.5452C10.4529 16.3198 10.7585 16.1931 11.0773 16.1927H24.3697V24.5582C24.3707 25.3741 24.6952 26.1562 25.2721 26.7331C25.849 27.31 26.6312 27.6345 27.447 27.6354H31.7605V30.3759ZM42.6693 25.7604C42.3819 25.7596 42.0972 25.8158 41.8317 25.9258C41.5662 26.0358 41.3251 26.1973 41.1225 26.4011L38.8393 28.6844L36.5562 26.4014C36.3536 26.1975 36.1125 26.0359 35.847 25.9259C35.5814 25.8158 35.2967 25.7596 35.0093 25.7604H27.447C27.1283 25.76 26.8227 25.6333 26.5973 25.4079C26.3719 25.1826 26.2451 24.877 26.2447 24.5582V11.5773C26.2451 11.2585 26.3719 10.9529 26.5973 10.7275C26.8227 10.5021 27.1283 10.3754 27.447 10.375H52.553C52.8717 10.3754 53.1773 10.5021 53.4027 10.7275C53.6281 10.9529 53.7549 11.2585 53.7552 11.5773V24.5582C53.7549 24.877 53.6281 25.1826 53.4027 25.4079C53.1773 25.6333 52.8717 25.76 52.553 25.7604H42.6693ZM70.125 30.3759C70.1246 30.6946 69.9979 31.0002 69.7725 31.2256C69.5471 31.451 69.2415 31.5778 68.9228 31.5781H62.789C62.5016 31.5774 62.217 31.6336 61.9515 31.7436C61.686 31.8535 61.4449 32.015 61.2422 32.2187L58.959 34.5021L56.6758 32.2187C56.4731 32.015 56.232 31.8535 55.9665 31.7435C55.701 31.6336 55.4164 31.5773 55.129 31.5781H49.4417C49.123 31.5778 48.8174 31.451 48.592 31.2256C48.3666 31.0002 48.2399 30.6946 48.2395 30.3759V27.6354H52.553C53.3688 27.6345 54.151 27.31 54.7279 26.7331C55.3048 26.1562 55.6293 25.3741 55.6302 24.5582V16.1927H68.9228C69.2415 16.1931 69.5471 16.3198 69.7725 16.5452C69.9979 16.7706 70.1246 17.0761 70.125 17.3949V30.3759ZM65.4375 20.1354H58.552C58.3034 20.1354 58.0649 20.2341 57.8891 20.41C57.7133 20.5858 57.6145 20.8242 57.6145 21.0729C57.6145 21.3215 57.7133 21.56 57.8891 21.7358C58.0649 21.9116 58.3034 22.0104 58.552 22.0104H65.4375C65.6861 22.0104 65.9246 21.9116 66.1004 21.7358C66.2762 21.56 66.375 21.3215 66.375 21.0729C66.375 20.8242 66.2762 20.5858 66.1004 20.41C65.9246 20.2341 65.6861 20.1354 65.4375 20.1354ZM21.448 25.7604H14.5625C14.3139 25.7604 14.0754 25.8591 13.8996 26.035C13.7238 26.2108 13.625 26.4492 13.625 26.6979C13.625 26.9465 13.7238 27.185 13.8996 27.3608C14.0754 27.5366 14.3139 27.6354 14.5625 27.6354H21.448C21.6966 27.6354 21.9351 27.5366 22.1109 27.3608C22.2867 27.185 22.3855 26.9465 22.3855 26.6979C22.3855 26.4492 22.2867 26.2108 22.1109 26.035C21.9351 25.8591 21.6966 25.7604 21.448 25.7604ZM21.448 20.1354H14.5625C14.3139 20.1354 14.0754 20.2341 13.8996 20.41C13.7238 20.5858 13.625 20.8242 13.625 21.0729C13.625 21.3215 13.7238 21.56 13.8996 21.7358C14.0754 21.9116 14.3139 22.0104 14.5625 22.0104H21.448C21.6966 22.0104 21.9351 21.9116 22.1109 21.7358C22.2867 21.56 22.3855 21.3215 22.3855 21.0729C22.3855 20.8242 22.2867 20.5858 22.1109 20.41C21.9351 20.2341 21.6966 20.1354 21.448 20.1354ZM49.0677 19.9427H30.9322C30.6836 19.9427 30.4452 20.0415 30.2693 20.2173C30.0935 20.3932 29.9947 20.6316 29.9947 20.8802C29.9947 21.1289 30.0935 21.3673 30.2693 21.5432C30.4452 21.719 30.6836 21.8177 30.9322 21.8177H49.0677C49.3164 21.8177 49.5548 21.719 49.7307 21.5432C49.9065 21.3673 50.0052 21.1289 50.0052 20.8802C50.0052 20.6316 49.9065 20.3932 49.7307 20.2173C49.5548 20.0415 49.3164 19.9427 49.0677 19.9427Z" fill="#111111"/>
<path d="M24.6475 46.9113C24.6475 47.8026 24.4129 48.6781 23.9672 49.4499C23.5216 50.2217 22.8807 50.8626 22.1089 51.3083C21.3385 51.7576 20.462 51.9925 19.5702 51.9886C18.2236 51.9886 16.9322 51.4537 15.98 50.5015C15.0278 49.5493 14.4929 48.2579 14.4929 46.9113C14.4929 45.5647 15.0278 44.2733 15.98 43.3211C16.9322 42.369 18.2236 41.834 19.5702 41.834C20.462 41.8302 21.3385 42.0651 22.1089 42.5144C22.8807 42.96 23.5216 43.6009 23.9672 44.3728C24.4129 45.1446 24.6475 46.0201 24.6475 46.9113Z" fill="#60E69B"/>
<path d="M22.1092 51.3095C23.5113 51.3095 24.6479 49.3409 24.6479 46.9126C24.6479 44.4842 23.5113 42.5156 22.1092 42.5156C20.7071 42.5156 19.5706 44.4842 19.5706 46.9126C19.5706 49.3409 20.7071 51.3095 22.1092 51.3095Z" fill="#88FFBC"/>
<path d="M20.4933 51.8945C20.1899 51.9587 19.8803 51.9897 19.5702 51.9868C18.3461 51.9868 17.1722 51.5005 16.3066 50.635C15.4411 49.7694 14.9548 48.5955 14.9548 47.3714C14.9548 46.1473 15.4411 44.9734 16.3066 44.1079C17.1722 43.2423 18.3461 42.756 19.5702 42.756C19.8803 42.7532 20.1899 42.7841 20.4933 42.8484C19.4499 43.0602 18.5119 43.6263 17.8382 44.4506C17.1644 45.2749 16.7964 46.3068 16.7964 47.3714C16.7964 48.436 17.1644 49.4679 17.8382 50.2923C18.5119 51.1166 19.4499 51.6826 20.4933 51.8945Z" fill="#DDFFEC"/>
<path d="M19.5702 52.9109C18.4748 52.9109 17.404 52.586 16.4932 51.9775C15.5824 51.3689 14.8725 50.5039 14.4533 49.4919C14.0341 48.4799 13.9245 47.3663 14.1382 46.2919C14.3519 45.2176 14.8793 44.2307 15.6539 43.4562C16.4285 42.6816 17.4153 42.1541 18.4897 41.9404C19.564 41.7267 20.6776 41.8364 21.6897 42.2556C22.7017 42.6748 23.5667 43.3846 24.1752 44.2954C24.7838 45.2062 25.1086 46.277 25.1086 47.3724C25.1086 48.8413 24.5251 50.25 23.4865 51.2887C22.4478 52.3274 21.0391 52.9109 19.5702 52.9109Z" stroke="#111111" stroke-width="2"/>
<path d="M14.4014 62.5944C16.1367 63.9343 18.2249 64.7394 20.4106 64.9113C17.6488 65.1199 14.9081 64.2941 12.7214 62.5944C11.346 61.5421 10.3398 60.2959 10.3398 59.0221C10.3398 55.1175 14.4568 51.9883 19.5706 51.9883H20.4106C15.6937 52.3114 12.0014 55.3298 12.0014 59.0313C12.0014 60.2959 13.026 61.5421 14.4014 62.5944Z" fill="white"/>
<path d="M30.273 59.9903C30.273 61.4534 29.1109 61.8373 27.5544 63.0099C25.3388 64.7348 22.6111 65.6714 19.8032 65.6714C16.9952 65.6714 14.2675 64.7348 12.0519 63.0099C10.4643 61.8373 9.33325 61.4742 9.33325 59.9903C9.33325 55.6011 14.0234 51.0977 19.8032 51.0977C25.5829 51.0977 30.273 55.6011 30.273 59.9903Z" fill="#88FFBC"/>
<path d="M30.273 59.9903C30.273 61.4534 29.1109 61.8373 27.5544 63.0203C26.3036 63.9506 24.8986 64.6531 23.4038 65.0956C21.4738 65.6862 19.4304 65.806 17.4445 65.4449C15.4587 65.0839 13.5882 64.2525 11.9896 63.0203C10.4643 61.8373 9.33325 61.4742 9.33325 59.9903C9.33325 55.6011 14.0234 51.0977 19.8032 51.0977C21.0395 51.0966 22.2673 51.3035 23.4349 51.7099C27.4299 53.0588 30.273 56.5765 30.273 59.9903Z" fill="#60E69B"/>
<path d="M30.2727 59.9887C30.2727 61.4518 29.1105 61.8357 27.554 63.0187C26.3032 63.949 24.8982 64.6515 23.4034 65.094C21.9087 64.6515 20.5036 63.949 19.2528 63.0187C17.7275 61.8357 16.5964 61.4725 16.5964 59.9887C16.5964 56.5748 19.4396 53.0572 23.4346 51.6875C27.4295 53.0572 30.2727 56.5748 30.2727 59.9887Z" fill="#88FFBC"/>
<path d="M20.4935 64.9113C17.6966 65.1283 14.9184 64.303 12.6935 62.5944C11.2627 61.5421 10.2566 61.219 10.2566 59.899C10.2566 55.9944 14.4289 51.9883 19.5704 51.9883H20.4935C15.795 52.4406 12.1304 56.2344 12.1304 59.8898C12.1304 61.1913 13.1643 61.5329 14.5489 62.5852C16.2725 63.9037 18.3327 64.7099 20.4935 64.9113Z" fill="#DDFFEC"/>
<path d="M19.5701 65.8317C16.8734 65.8231 14.2537 64.9315 12.1117 63.2932C11.8163 63.0717 11.5486 62.8871 11.2902 62.7117C10.3671 62.0563 9.33325 61.3732 9.33325 59.8686C9.33325 55.2533 14.2163 51.0625 19.5701 51.0625C24.924 51.0625 29.807 55.2902 29.807 59.9332C29.807 61.4378 28.8101 62.1209 27.8501 62.7763C27.5916 62.9517 27.324 63.1363 27.0286 63.3578C24.8784 64.973 22.2594 65.8417 19.5701 65.8317Z" stroke="#111111" stroke-width="2"/>
<path d="M63.3143 46.9113C63.3142 47.8026 63.0796 48.6781 62.634 49.4499C62.1884 50.2217 61.5474 50.8626 60.7756 51.3083C60.0053 51.7576 59.1287 51.9925 58.237 51.9886C56.8904 51.9886 55.599 51.4537 54.6468 50.5015C53.6946 49.5493 53.1597 48.2579 53.1597 46.9113C53.1597 45.5647 53.6946 44.2733 54.6468 43.3211C55.599 42.369 56.8904 41.834 58.237 41.834C59.1287 41.8302 60.0053 42.0651 60.7756 42.5144C61.5474 42.96 62.1884 43.6009 62.634 44.3728C63.0796 45.1446 63.3142 46.0201 63.3143 46.9113Z" fill="#60E69B"/>
<path d="M60.776 51.3095C62.178 51.3095 63.3146 49.3409 63.3146 46.9126C63.3146 44.4842 62.178 42.5156 60.776 42.5156C59.3739 42.5156 58.2373 44.4842 58.2373 46.9126C58.2373 49.3409 59.3739 51.3095 60.776 51.3095Z" fill="#88FFBC"/>
<path d="M59.16 51.8945C58.8566 51.9587 58.5471 51.9897 58.237 51.9868C57.0129 51.9868 55.8389 51.5005 54.9734 50.635C54.1078 49.7694 53.6216 48.5955 53.6216 47.3714C53.6216 46.1473 54.1078 44.9734 54.9734 44.1079C55.8389 43.2423 57.0129 42.756 58.237 42.756C58.5471 42.7532 58.8566 42.7841 59.16 42.8484C58.1167 43.0602 57.1787 43.6263 56.5049 44.4506C55.8312 45.2749 55.4631 46.3068 55.4631 47.3714C55.4631 48.436 55.8312 49.4679 56.5049 50.2923C57.1787 51.1166 58.1167 51.6826 59.16 51.8945Z" fill="#DDFFEC"/>
<path d="M58.2369 52.9109C57.1415 52.9109 56.0707 52.586 55.1599 51.9775C54.2491 51.3689 53.5393 50.5039 53.1201 49.4919C52.7009 48.4799 52.5912 47.3663 52.8049 46.2919C53.0186 45.2176 53.5461 44.2307 54.3207 43.4562C55.0952 42.6816 56.0821 42.1541 57.1564 41.9404C58.2308 41.7267 59.3444 41.8364 60.3564 42.2556C61.3684 42.6748 62.2334 43.3846 62.842 44.2954C63.4505 45.2062 63.7754 46.277 63.7754 47.3724C63.7754 48.8413 63.1919 50.25 62.1532 51.2887C61.1145 52.3274 59.7058 52.9109 58.2369 52.9109Z" stroke="#111111" stroke-width="2"/>
<path d="M53.0681 62.5944C54.8035 63.9343 56.8917 64.7394 59.0773 64.9113C56.3156 65.1199 53.5749 64.2941 51.3881 62.5944C50.0127 61.5421 49.0066 60.2959 49.0066 59.0221C49.0066 55.1175 53.1235 51.9883 58.2373 51.9883H59.0773C54.3604 52.3114 50.6681 55.3298 50.6681 59.0313C50.6681 60.2959 51.6927 61.5421 53.0681 62.5944Z" fill="white"/>
<path d="M68.9398 59.9903C68.9398 61.4534 67.7776 61.8373 66.2211 63.0099C64.0055 64.7348 61.2778 65.6714 58.4699 65.6714C55.662 65.6714 52.9343 64.7348 50.7186 63.0099C49.131 61.8373 48 61.4742 48 59.9903C48 55.6011 52.6902 51.0977 58.4699 51.0977C64.2496 51.0977 68.9398 55.6011 68.9398 59.9903Z" fill="#88FFBC"/>
<path d="M68.9398 59.9903C68.9398 61.4534 67.7776 61.8373 66.2211 63.0203C64.9703 63.9506 63.5653 64.6531 62.0705 65.0956C60.1405 65.6862 58.0971 65.806 56.1113 65.4449C54.1255 65.0839 52.255 64.2525 50.6564 63.0203C49.131 61.8373 48 61.4742 48 59.9903C48 55.6011 52.6902 51.0977 58.4699 51.0977C59.7063 51.0966 60.934 51.3035 62.1017 51.7099C66.0966 53.0588 68.9398 56.5765 68.9398 59.9903Z" fill="#60E69B"/>
<path d="M68.9394 59.9887C68.9394 61.4518 67.7773 61.8357 66.2208 63.0187C64.97 63.949 63.5649 64.6515 62.0702 65.094C60.5754 64.6515 59.1704 63.949 57.9196 63.0187C56.3942 61.8357 55.2632 61.4725 55.2632 59.9887C55.2632 56.5748 58.1063 53.0572 62.1013 51.6875C66.0963 53.0572 68.9394 56.5748 68.9394 59.9887Z" fill="#88FFBC"/>
<path d="M59.1602 64.9113C56.3634 65.1283 53.5851 64.303 51.3603 62.5944C49.9295 61.5421 48.9233 61.219 48.9233 59.899C48.9233 55.9944 53.0956 51.9883 58.2372 51.9883H59.1602C54.4618 52.4406 50.7972 56.2344 50.7972 59.8898C50.7972 61.1913 51.831 61.5329 53.2156 62.5852C54.9392 63.9037 56.9995 64.7099 59.1602 64.9113Z" fill="#DDFFEC"/>
<path d="M58.2369 65.8317C55.5402 65.8231 52.9205 64.9315 50.7785 63.2932C50.4831 63.0717 50.2154 62.8871 49.9569 62.7117C49.0338 62.0563 48 61.3732 48 59.8686C48 55.2533 52.8831 51.0625 58.2369 51.0625C63.5907 51.0625 68.4738 55.2902 68.4738 59.9332C68.4738 61.4378 67.4769 62.1209 66.5169 62.7763C66.2584 62.9517 65.9907 63.1363 65.6953 63.3578C63.5451 64.973 60.9262 65.8417 58.2369 65.8317Z" stroke="#111111" stroke-width="2"/>
<path d="M45.6534 42.9878C45.6534 44.1266 45.3536 45.2453 44.7842 46.2316C44.2148 47.2178 43.3958 48.0368 42.4096 48.6062C41.4253 49.1803 40.3052 49.4804 39.1657 49.4755C37.4451 49.4755 35.7949 48.792 34.5782 47.5753C33.3615 46.3586 32.678 44.7084 32.678 42.9878C32.678 41.2671 33.3615 39.617 34.5782 38.4003C35.7949 37.1836 37.4451 36.5001 39.1657 36.5001C40.3052 36.4951 41.4253 36.7953 42.4096 37.3694C43.3958 37.9388 44.2148 38.7578 44.7842 39.744C45.3536 40.7302 45.6534 41.849 45.6534 42.9878Z" fill="#00F56E"/>
<path d="M42.4099 48.6059C44.2014 48.6059 45.6537 46.0905 45.6537 42.9875C45.6537 39.8846 44.2014 37.3691 42.4099 37.3691C40.6183 37.3691 39.166 39.8846 39.166 42.9875C39.166 46.0905 40.6183 48.6059 42.4099 48.6059Z" fill="#00CE54"/>
<path d="M40.3451 49.3569C39.9573 49.439 39.5618 49.4786 39.1656 49.4749C37.6014 49.4749 36.1014 48.8536 34.9954 47.7476C33.8894 46.6416 33.2681 45.1415 33.2681 43.5774C33.2681 42.0133 33.8894 40.5133 34.9954 39.4073C36.1014 38.3013 37.6014 37.6799 39.1656 37.6799C39.5618 37.6762 39.9573 37.7158 40.3451 37.7979C39.0119 38.0686 37.8133 38.7919 36.9524 39.8452C36.0915 40.8985 35.6211 42.217 35.6211 43.5774C35.6211 44.9378 36.0915 46.2563 36.9524 47.3096C37.8133 48.363 39.0119 49.0862 40.3451 49.3569Z" fill="#88FFBC"/>
<path d="M39.1659 50.654C37.7662 50.654 36.3979 50.2389 35.2341 49.4613C34.0703 48.6837 33.1632 47.5784 32.6276 46.2852C32.0919 44.9921 31.9518 43.5691 32.2249 42.1963C32.4979 40.8235 33.1719 39.5625 34.1617 38.5728C35.1514 37.5831 36.4124 36.9091 37.7852 36.636C39.158 36.3629 40.5809 36.5031 41.8741 37.0387C43.1672 37.5743 44.2725 38.4814 45.0502 39.6452C45.8278 40.809 46.2428 42.1773 46.2428 43.577C46.2428 45.4539 45.4972 47.254 44.17 48.5812C42.8428 49.9084 41.0428 50.654 39.1659 50.654Z" stroke="#111111" stroke-width="2"/>
<path d="M32.5609 63.0251C34.7783 64.7372 37.4466 65.766 40.2394 65.9856C36.7104 66.2522 33.2084 65.1969 30.4142 63.0251C28.6567 61.6805 27.3711 60.0881 27.3711 58.4604C27.3711 53.4712 32.6317 49.4727 39.1661 49.4727H40.2394C34.2122 49.8855 29.4942 53.7424 29.4942 58.4722C29.4942 60.0881 30.8034 61.6805 32.5609 63.0251Z" fill="white"/>
<path d="M52.8417 59.697C52.8417 61.5665 51.3567 62.0571 49.3678 63.5554C46.5367 65.7595 43.0513 66.9563 39.4633 66.9563C35.8754 66.9563 32.3899 65.7595 29.5588 63.5554C27.5302 62.0571 26.085 61.593 26.085 59.697C26.085 54.0884 32.078 48.334 39.4633 48.334C46.8486 48.334 52.8417 54.0884 52.8417 59.697Z" fill="#88FFBC"/>
<path d="M52.8417 59.697C52.8417 61.5665 51.3567 62.0571 49.3678 63.5686C47.7696 64.7574 45.9742 65.6551 44.0642 66.2204C41.598 66.9751 38.987 67.1282 36.4495 66.6669C33.912 66.2055 31.522 65.1431 29.4793 63.5686C27.5302 62.0571 26.085 61.593 26.085 59.697C26.085 54.0884 32.078 48.334 39.4633 48.334C41.0431 48.3326 42.6119 48.597 44.104 49.1163C49.2087 50.8399 52.8417 55.3348 52.8417 59.697Z" fill="#00F56E"/>
<path d="M52.8411 59.699C52.8411 61.5685 51.3561 62.0591 49.3673 63.5707C47.769 64.7595 45.9736 65.6571 44.0636 66.2225C42.1537 65.6571 40.3583 64.7595 38.76 63.5707C36.811 62.0591 35.3657 61.5951 35.3657 59.699C35.3657 55.3368 38.9987 50.842 44.1034 49.0918C49.2082 50.842 52.8411 55.3368 52.8411 59.699Z" fill="#00CE54"/>
<path d="M40.345 65.9856C36.7712 66.2629 33.2212 65.2084 30.3783 63.0251C28.5501 61.6805 27.2644 61.2676 27.2644 59.5809C27.2644 54.5917 32.5957 49.4727 39.1655 49.4727H40.345C34.3414 50.0506 29.6588 54.8983 29.6588 59.5692C29.6588 61.2322 30.9798 61.6687 32.7491 63.0133C34.9515 64.6981 37.5841 65.7283 40.345 65.9856Z" fill="#88FFBC"/>
<path d="M39.1656 67.1669C35.7197 67.1559 32.3723 66.0167 29.6352 63.9233C29.2578 63.6402 28.9158 63.4043 28.5855 63.1802C27.406 62.3427 26.085 61.4699 26.085 59.5473C26.085 53.6498 32.3245 48.2949 39.1656 48.2949C46.0067 48.2949 52.2462 53.697 52.2462 59.6299C52.2462 61.5525 50.9724 62.4253 49.7457 63.2627C49.4154 63.4868 49.0734 63.7227 48.6959 64.0058C45.9484 66.0697 42.6019 67.1797 39.1656 67.1669Z" stroke="#111111" stroke-width="2"/>
</svg>
