<svg width="80" height="83" viewBox="0 0 80 83" fill="none" xmlns="http://www.w3.org/2000/svg">
<path d="M59.7051 54.3L57.5451 32.7C57.4731 31.9591 57.1272 31.2717 56.5752 30.7723C56.0231 30.2729 55.3045 29.9975 54.5601 30H28.1801C27.4358 29.998 26.7175 30.2735 26.1655 30.7728C25.6135 31.2721 25.2675 31.9592 25.1951 32.7L23.0351 54.3C22.9373 55.2734 23.0445 56.2565 23.35 57.1859C23.6555 58.1152 24.1524 58.9703 24.8087 59.6958C25.465 60.4213 26.266 61.0012 27.1602 61.3981C28.0544 61.795 29.0218 62 30.0001 62H52.7401C53.7184 62 54.6858 61.795 55.58 61.3981C56.4742 61.0012 57.2752 60.4213 57.9315 59.6958C58.5877 58.9703 59.0847 58.1152 59.3901 57.1859C59.6956 56.2565 59.8029 55.2734 59.7051 54.3V54.3Z" fill="#3262FF"/>
<path d="M49.3699 35C49.1046 35 48.8503 34.8946 48.6628 34.7071C48.4752 34.5196 48.3699 34.2652 48.3699 34V29C48.3699 27.1435 47.6324 25.363 46.3196 24.0503C45.0069 22.7375 43.2264 22 41.3699 22C39.5134 22 37.7329 22.7375 36.4201 24.0503C35.1074 25.363 34.3699 27.1435 34.3699 29V34C34.3699 34.2652 34.2645 34.5196 34.077 34.7071C33.8894 34.8946 33.6351 35 33.3699 35C33.1047 35 32.8503 34.8946 32.6628 34.7071C32.4752 34.5196 32.3699 34.2652 32.3699 34V29C32.3699 26.613 33.3181 24.3239 35.0059 22.636C36.6937 20.9482 38.9829 20 41.3699 20C43.7568 20 46.046 20.9482 47.7338 22.636C49.4217 24.3239 50.3699 26.613 50.3699 29V34C50.3699 34.2652 50.2645 34.5196 50.077 34.7071C49.8894 34.8946 49.6351 35 49.3699 35Z" fill="#111111"/>
<path d="M33.3701 37C34.4747 37 35.3701 36.1046 35.3701 35C35.3701 33.8954 34.4747 33 33.3701 33C32.2655 33 31.3701 33.8954 31.3701 35C31.3701 36.1046 32.2655 37 33.3701 37Z" fill="#111111"/>
<path d="M49.3699 37C50.4744 37 51.3699 36.1046 51.3699 35C51.3699 33.8954 50.4744 33 49.3699 33C48.2653 33 47.3699 33.8954 47.3699 35C47.3699 36.1046 48.2653 37 49.3699 37Z" fill="#111111"/>
<path d="M52.7401 62H30.0001C29.0218 62 28.0544 61.795 27.1602 61.3981C26.266 61.0012 25.465 60.4213 24.8087 59.6958C24.1524 58.9703 23.6555 58.1152 23.35 57.1859C23.0445 56.2565 22.9373 55.2734 23.0351 54.3L25.1951 32.7C25.2675 31.9592 25.6135 31.2721 26.1655 30.7728C26.7175 30.2735 27.4358 29.998 28.1801 30H54.5601C55.3044 29.998 56.0227 30.2735 56.5747 30.7728C57.1267 31.2721 57.4727 31.9592 57.5451 32.7L59.7051 54.3C59.8029 55.2734 59.6956 56.2565 59.3901 57.1859C59.0847 58.1152 58.5877 58.9703 57.9315 59.6958C57.2752 60.4213 56.4742 61.0012 55.58 61.3981C54.6858 61.795 53.7184 62 52.7401 62V62ZM28.1801 32C27.9313 31.9988 27.691 32.0903 27.5061 32.2567C27.3212 32.4231 27.205 32.6525 27.1801 32.9L25.0251 54.5C24.9552 55.1953 25.0318 55.8975 25.2501 56.5613C25.4683 57.2252 25.8232 57.8359 26.2919 58.3541C26.7607 58.8724 27.3329 59.2866 27.9716 59.5701C28.6103 59.8535 29.3013 60 30.0001 60H52.7401C53.4389 60 54.1299 59.8535 54.7686 59.5701C55.4073 59.2866 55.9795 58.8724 56.4482 58.3541C56.917 57.8359 57.2719 57.2252 57.4901 56.5613C57.7083 55.8975 57.785 55.1953 57.7151 54.5L55.5551 32.9C55.5302 32.6525 55.414 32.4231 55.2291 32.2567C55.0442 32.0903 54.8039 31.9988 54.5551 32H28.1801Z" fill="#111111"/>
<path d="M37.2034 52.1654L45.5367 43.832M45.5367 43.832H37.2034M45.5367 43.832V52.1654" stroke="white" stroke-width="2" stroke-linecap="round" stroke-linejoin="round"/>
<path d="M53.8094 67.166V82.9074L45.3333 75.0367L53.8094 67.166Z" fill="#98A4FE"/>
<path d="M46.6665 75.2274H73.3332V56.5M46.6665 75.2274L52.7746 81.8333M46.6665 75.2274L52.7746 68.0674" stroke="#111111" stroke-width="1.36223" stroke-linecap="round"/>
<path d="M30.1906 18.9102V3.16878L38.6667 11.0395L30.1906 18.9102Z" fill="#98A4FE"/>
<path d="M37.3335 10.8488L10.6668 10.8488L10.6668 29.5762M37.3335 10.8488L31.2254 4.24284M37.3335 10.8488L31.2254 18.0087" stroke="#111111" stroke-width="1.36223" stroke-linecap="round"/>
</svg>
