<svg width="80" height="81" viewBox="0 0 80 81" fill="none" xmlns="http://www.w3.org/2000/svg">
<path d="M40.0002 24.8441C43.869 24.8441 47.0052 21.7078 47.0052 17.839C47.0052 13.9703 43.869 10.834 40.0002 10.834C36.1314 10.834 32.9951 13.9703 32.9951 17.839C32.9951 21.7078 36.1314 24.8441 40.0002 24.8441Z" fill="#FEDD60"/>
<path d="M55.3341 46.2721L64.0791 36.195C65.5067 34.55 67.9971 34.3737 69.6417 35.8008C70.54 36.5804 71.0005 37.6779 71.0005 38.7808C71.0005 39.6967 70.6825 40.6171 70.0354 41.3629L58.052 55.1726C56.4391 56.9156 54.1341 58.0531 51.7386 58.0531H51.4482H38.4869C36.3181 58.0531 34.2381 58.9147 32.7043 60.4485L30.1555 62.9973L15.9067 48.7484L15.9062 48.748L19.45 45.2042C20.9838 43.6709 23.0638 42.8092 25.2326 42.8092H33.4297H46.5707H51.539C52.5916 42.8092 53.5445 43.2355 54.2341 43.9255C54.847 44.538 55.2524 45.3588 55.3341 46.2721Z" fill="#F5C6B0"/>
<path d="M46.5705 28.8711C47.8484 28.8711 48.8938 29.9165 48.8938 31.1944C48.8938 31.8336 48.6326 32.4145 48.2113 32.8353C47.7901 33.2565 47.2092 33.5178 46.5705 33.5178H33.4296C32.1516 33.5178 31.1062 32.4724 31.1062 31.1944C31.1062 30.5553 31.3675 29.9744 31.7887 29.5536C32.21 29.1323 32.7908 28.8711 33.4296 28.8711H46.5705ZM46.5705 33.5178C47.8484 33.5178 48.8938 34.5632 48.8938 35.8411C48.8938 36.4803 48.6326 37.0612 48.2113 37.482C47.7901 37.9032 47.2092 38.1645 46.5705 38.1645H33.4296C32.1516 38.1645 31.1062 37.1191 31.1062 35.8411C31.1062 35.202 31.3675 34.6211 31.7887 34.2003C32.21 33.779 32.7908 33.5178 33.4296 33.5178H46.5705ZM46.5705 38.1645C47.8484 38.1645 48.8938 39.2099 48.8938 40.4879C48.8938 41.127 48.6326 41.7079 48.2113 42.1287C47.7901 42.55 47.2092 42.8112 46.5705 42.8112H33.4296C32.1516 42.8112 31.1062 41.7658 31.1062 40.4879C31.1062 39.8487 31.3675 39.2678 31.7887 38.847C32.21 38.4258 32.7908 38.1645 33.4296 38.1645H46.5705Z" fill="#FEDD60"/>
<path d="M30.1553 63.0008V63.0012L23.2486 69.9075L8.99976 55.6587L15.9065 48.752L30.1553 63.0008Z" fill="#FF7608"/>
<path d="M30.1554 64.0007C29.8996 64.0007 29.6438 63.9032 29.4483 63.7077C29.0579 63.3173 29.0579 62.684 29.4483 62.2936L31.9971 59.7448C32.8538 58.8881 33.8555 58.2185 34.9746 57.7552C36.0938 57.2914 37.2755 57.0564 38.4867 57.0564H51.7385C53.7439 57.0564 55.8244 56.1039 57.3073 54.5081L69.2799 40.7109C69.7445 40.1755 70.0003 39.4913 70.0003 38.7842C70.0003 37.9296 69.6307 37.1188 68.9862 36.5592C67.7607 35.4959 65.8978 35.6279 64.834 36.8538L56.089 46.9309C55.7269 47.348 55.0952 47.3926 54.6781 47.0309C54.261 46.6689 54.2165 46.0372 54.5781 45.6201L63.3232 35.5429C65.1099 33.4846 68.2382 33.2629 70.2966 35.0488C71.3791 35.9884 71.9999 37.35 71.9999 38.7842C71.9999 39.973 71.5703 41.123 70.7903 42.0217L58.8069 55.8314C58.7998 55.8394 58.7927 55.8473 58.7857 55.8552C57.8902 56.8227 56.7923 57.6252 55.611 58.176C54.3581 58.7602 53.0552 59.0565 51.7385 59.0565H38.4867C36.5696 59.0565 34.7671 59.8031 33.4113 61.159L30.8625 63.7077C30.6675 63.9028 30.4117 64.0007 30.1554 64.0007Z" fill="#111111"/>
<path d="M23.2488 70.9037C22.9929 70.9037 22.7371 70.8062 22.5417 70.6107L8.29281 56.3619C7.9024 55.9714 7.9024 55.3381 8.29281 54.9477L15.1995 48.041C15.387 47.8535 15.6416 47.748 15.9066 47.748C16.1716 47.748 16.4262 47.8535 16.6137 48.041L30.8626 62.2898C31.0501 62.4773 31.1555 62.7319 31.1555 62.9969C31.1555 63.2619 31.0501 63.5165 30.8626 63.704L23.9559 70.6107C23.7609 70.8057 23.5046 70.9037 23.2488 70.9037ZM10.4141 55.6548L23.2488 68.4895L28.7409 62.9973L15.9062 50.1627L10.4141 55.6548Z" fill="#111111"/>
<path d="M51.539 51.4331H37.4785C36.9264 51.4331 36.4785 50.9852 36.4785 50.4331C36.4785 49.881 36.9264 49.4331 37.4785 49.4331H51.5394C53.0894 49.4331 54.3507 48.1723 54.3507 46.6227C54.3507 46.5356 54.347 46.451 54.339 46.371C54.3386 46.3685 54.3386 46.366 54.3382 46.3635C54.2799 45.7135 53.992 45.0993 53.5274 44.6343C52.9965 44.1035 52.2903 43.811 51.5394 43.811H25.2326C23.3155 43.811 21.5129 44.5577 20.1575 45.9131L16.6137 49.4569C16.2233 49.8473 15.59 49.8473 15.1996 49.4569C14.8091 49.0664 14.8091 48.4331 15.1996 48.0427L18.7433 44.4989C19.6 43.6422 20.6017 42.9731 21.7209 42.5093C22.84 42.0455 24.0217 41.8105 25.233 41.8105H51.5398C52.8249 41.8105 54.0332 42.311 54.942 43.2197C55.7365 44.0143 56.2295 45.0656 56.3303 46.1802C56.3441 46.3231 56.3511 46.4714 56.3511 46.6218C56.3503 49.2752 54.192 51.4331 51.539 51.4331Z" fill="#111111"/>
<path d="M46.5707 43.8127H33.4298C31.5973 43.8127 30.1064 42.3219 30.1064 40.4894C30.1064 38.6569 31.5973 37.166 33.4298 37.166H46.5707C48.4033 37.166 49.8941 38.6569 49.8941 40.4894C49.8941 42.3219 48.4033 43.8127 46.5707 43.8127ZM33.4298 39.166C32.7002 39.166 32.1065 39.7598 32.1065 40.4894C32.1065 41.219 32.7002 41.8127 33.4298 41.8127H46.5707C47.3003 41.8127 47.8941 41.219 47.8941 40.4894C47.8941 39.7598 47.3003 39.166 46.5707 39.166H33.4298Z" fill="#111111"/>
<path d="M46.5707 39.1623H33.4298C31.5973 39.1623 30.1064 37.6715 30.1064 35.839C30.1064 34.0065 31.5973 32.5156 33.4298 32.5156H46.5707C48.4033 32.5156 49.8941 34.0065 49.8941 35.839C49.8941 37.6715 48.4033 39.1623 46.5707 39.1623ZM33.4298 34.5156C32.7002 34.5156 32.1065 35.1094 32.1065 35.839C32.1065 36.5686 32.7002 37.1623 33.4298 37.1623H46.5707C47.3003 37.1623 47.8941 36.5686 47.8941 35.839C47.8941 35.1094 47.3003 34.5156 46.5707 34.5156H33.4298Z" fill="#111111"/>
<path d="M46.5707 34.5158H33.4298C31.5973 34.5158 30.1064 33.0249 30.1064 31.1924C30.1064 29.3599 31.5973 27.8691 33.4298 27.8691H46.5707C48.4033 27.8691 49.8941 29.3599 49.8941 31.1924C49.8941 33.0249 48.4033 34.5158 46.5707 34.5158ZM33.4298 29.8691C32.7002 29.8691 32.1065 30.4628 32.1065 31.1924C32.1065 31.922 32.7002 32.5158 33.4298 32.5158H46.5707C47.3003 32.5158 47.8941 31.922 47.8941 31.1924C47.8941 30.4628 47.3003 29.8691 46.5707 29.8691H33.4298ZM42.3057 18.0219C42.109 17.7302 41.8099 17.4906 41.4161 17.309C41.1653 17.1948 40.7361 17.0702 40.104 16.9273L40.0732 16.9202C39.3215 16.7481 39.1894 16.6327 39.1832 16.6269C39.1294 16.5786 39.1074 16.5265 39.1074 16.4469C39.1074 16.3756 39.1249 16.2886 39.2557 16.1836C39.3265 16.1265 39.5136 16.0311 39.9665 16.0311H39.9774C40.2974 16.0327 40.5303 16.0911 40.6694 16.2052C40.7599 16.2794 40.8232 16.3806 40.8632 16.5144C40.9699 16.8702 41.3007 17.0994 41.6682 17.0706C41.9032 17.0527 42.1149 16.9315 42.249 16.7381C42.3836 16.5444 42.4228 16.3031 42.3574 16.0765C42.3003 15.8794 42.2136 15.6919 42.1007 15.5202C41.8861 15.1931 41.579 14.9435 41.1878 14.779C40.8361 14.6306 40.4332 14.5531 39.9915 14.5477C39.9719 14.5469 39.954 14.5469 39.9361 14.5469C39.5086 14.5469 39.1119 14.6215 38.7573 14.7681C38.374 14.9265 38.0757 15.1665 37.8694 15.481C37.6661 15.7927 37.5628 16.134 37.5628 16.4956C37.5628 16.8298 37.6503 17.1373 37.8223 17.4098C37.9915 17.6782 38.244 17.9011 38.5723 18.0732C38.8103 18.1994 39.1936 18.3252 39.744 18.4577C39.7903 18.4686 39.8349 18.4794 39.8807 18.4911C40.3903 18.6152 40.5978 18.6802 40.6819 18.7132C40.889 18.7919 40.9699 18.8682 40.9999 18.9065C41.0436 18.9632 41.0632 19.0248 41.0632 19.1065C41.0632 19.189 41.0378 19.2644 40.9853 19.3373C40.929 19.4157 40.8307 19.4823 40.6932 19.5352C40.5286 19.5994 40.3299 19.6319 40.1024 19.6319C40.0674 19.6319 40.0328 19.6311 39.9986 19.6294C39.7836 19.6194 39.5878 19.5765 39.4165 19.5019C39.239 19.4248 39.1115 19.3298 39.0374 19.2198C38.9878 19.1465 38.9482 19.0557 38.9194 18.9494C38.8282 18.6132 38.5203 18.3782 38.1698 18.3782C38.1469 18.3782 38.124 18.379 38.1015 18.3811C37.8765 18.4007 37.6715 18.5169 37.5386 18.6998C37.4069 18.8815 37.3603 19.1107 37.4107 19.3282C37.4711 19.5882 37.5761 19.8336 37.7232 20.0582C37.9611 20.4207 38.2923 20.6948 38.7069 20.8736C39.0582 21.0248 39.4811 21.109 39.9649 21.1244C40.0211 21.1261 40.0786 21.1273 40.1361 21.1273C40.5915 21.1273 41.0103 21.0411 41.3803 20.8715C41.769 20.6936 42.074 20.4369 42.2865 20.1086C42.4995 19.7798 42.6074 19.4223 42.6074 19.0457C42.6086 18.6661 42.5074 18.3223 42.3057 18.0219Z" fill="#111111"/>
<path d="M40.0003 15.7386C39.4482 15.7386 39.0002 15.2907 39.0002 14.7386V14.1211C39.0002 13.569 39.4482 13.1211 40.0003 13.1211C40.5523 13.1211 41.0003 13.569 41.0003 14.1211V14.7386C41.0003 15.2911 40.5523 15.7386 40.0003 15.7386ZM40.0003 22.5553C39.4482 22.5553 39.0002 22.1074 39.0002 21.5553V20.9378C39.0002 20.3857 39.4482 19.9378 40.0003 19.9378C40.5523 19.9378 41.0003 20.3857 41.0003 20.9378V21.5553C41.0003 22.1078 40.5523 22.5553 40.0003 22.5553Z" fill="#111111"/>
<path d="M40.0002 25.8441C35.586 25.8441 31.9951 22.2533 31.9951 17.839C31.9951 13.4248 35.586 9.83398 40.0002 9.83398C44.4144 9.83398 48.0052 13.4248 48.0052 17.839C48.0052 22.2533 44.4144 25.8441 40.0002 25.8441ZM40.0002 11.834C36.6889 11.834 33.9951 14.5278 33.9951 17.839C33.9951 21.1503 36.6889 23.8441 40.0002 23.8441C43.3115 23.8441 46.0052 21.1503 46.0052 17.839C46.0052 14.5278 43.3115 11.834 40.0002 11.834Z" fill="#111111"/>
</svg>
