<svg width="72" height="71" viewBox="0 0 72 71" fill="none" xmlns="http://www.w3.org/2000/svg">
<g clip-path="url(#clip0_1461_98896)">
<path d="M23.6761 11.3027L9.40297 25.5606C-0.459519 35.4137 -0.459519 51.3885 9.40297 61.2414C19.2655 71.0945 35.2557 71.0945 45.1182 61.2414L59.3912 46.9837L51.0422 38.6426L36.7691 52.9005C31.5261 58.1385 22.9949 58.1385 17.7519 52.9005C12.5089 47.6626 12.5089 39.1396 17.7519 33.9017L32.0249 19.6438L23.6761 11.3027Z" fill="#FFE6EC"/>
<path d="M51.0422 38.6426L47.9641 41.7175L53.2353 46.9837L38.9624 61.2416C34.8155 65.3844 29.5852 67.7848 24.1827 68.4438C31.6291 69.3521 39.4026 66.9517 45.1182 61.2416L59.3913 46.9837L51.0422 38.6426ZM25.8692 19.6438L11.5961 33.9017C6.35307 39.1397 6.35307 47.6626 11.5961 52.9005C15.0044 56.3057 19.8018 57.4947 24.1826 56.4727C21.8244 55.9226 19.5866 54.7335 17.7519 52.9005C12.5089 47.6624 12.5089 39.1396 17.7519 33.9017L32.025 19.6438L23.676 11.3027L20.598 14.3775L25.8692 19.6438Z" fill="#EBBBC7"/>
<path d="M23.6748 27.9851L32.025 19.6438L23.6761 11.3027L15.3276 19.6423L23.6748 27.9851Z" fill="#FA6D8E"/>
<path d="M28.2682 15.8905L23.6762 11.3027L20.598 14.3775L25.8694 19.6438L20.5979 24.9095L23.675 27.9851L32.0252 19.6438L28.2682 15.8905Z" fill="#FF3262"/>
<path d="M42.6938 46.9824L51.0412 55.3249L59.3914 46.9836L51.0424 38.6426L42.6938 46.9824Z" fill="#FA6D8E"/>
<path d="M51.0411 55.3249L51.3898 54.9766L59.3913 46.9835L51.0423 38.6426L51.0366 38.6482L47.9643 41.7174L53.2355 46.9835L47.9639 52.2496L51.0411 55.3249Z" fill="#FF3262"/>
<path d="M26.378 9.02644C26.3779 9.0263 26.3778 9.02617 26.3778 9.02617C25.9773 8.62522 25.9776 7.97571 26.3784 7.57517C27.0974 6.85685 27.9755 7.0039 28.4472 7.08297C28.517 7.09474 28.6074 7.10978 28.6825 7.11868C28.6736 7.04371 28.6586 6.95301 28.6469 6.88339C28.5684 6.41157 28.422 5.53348 29.1412 4.81502C29.86 4.09684 30.7381 4.24417 31.2097 4.32337C31.2792 4.335 31.3693 4.35019 31.444 4.35908C31.4353 4.28411 31.4201 4.1941 31.4086 4.12461C31.3298 3.6528 31.1834 2.7747 31.9024 2.05638C32.6213 1.3382 33.4994 1.48553 33.9709 1.56473C34.0701 1.58129 34.2113 1.60509 34.2899 1.60769C34.694 1.25325 35.3119 1.26611 35.6957 1.64982C35.6973 1.65146 35.6988 1.65297 35.7004 1.65475C36.0967 2.05624 36.0991 2.69796 35.6999 3.09672C34.981 3.8149 34.1029 3.66757 33.6314 3.58837C33.5619 3.57674 33.472 3.56155 33.3972 3.55266C33.4061 3.62749 33.4211 3.7175 33.4326 3.78699C33.5114 4.25881 33.6578 5.1369 32.9388 5.85522C32.2199 6.5734 31.3417 6.42607 30.8702 6.34687C30.8007 6.33524 30.7105 6.32006 30.6357 6.31117C30.6444 6.38613 30.6596 6.47642 30.6712 6.54604C30.7498 7.01786 30.8961 7.89595 30.177 8.61441C29.458 9.33273 28.5799 9.18567 28.1082 9.1066C28.0095 9.08991 27.8687 9.06639 27.7899 9.06365C27.3868 9.42671 26.7658 9.41412 26.378 9.02644ZM29.8568 12.5019C29.8566 12.5018 29.8565 12.5016 29.8565 12.5016C29.4561 12.1007 29.4564 11.4512 29.8572 11.0506C30.5762 10.3323 31.4543 10.4794 31.9259 10.5584C31.9957 10.5702 32.0861 10.5852 32.1612 10.5941C32.1523 10.5192 32.1373 10.4285 32.1257 10.3588C32.0472 9.88703 31.9008 9.00893 32.6199 8.29047C33.3388 7.57229 34.2169 7.71962 34.6884 7.79883C34.7579 7.81046 34.8479 7.8255 34.9227 7.83453C34.9139 7.7597 34.8988 7.66956 34.8873 7.59993C34.8085 7.12825 34.6622 6.25015 35.3812 5.5317C36.1 4.81352 36.9781 4.96085 37.4497 5.04005C37.5488 5.0566 37.69 5.08041 37.7687 5.08301C38.1728 4.72857 38.7907 4.74142 39.1744 5.12514C39.176 5.12678 39.1775 5.12828 39.1792 5.13006C39.5755 5.53156 39.5778 6.17327 39.1786 6.57204C38.4598 7.29022 37.5817 7.14289 37.1101 7.06368C37.0406 7.05206 36.9508 7.03687 36.8759 7.02798C36.8848 7.10281 36.8999 7.19282 36.9114 7.26231C36.9902 7.73412 37.1365 8.61222 36.4175 9.33068C35.6987 10.0489 34.8206 9.90153 34.349 9.82232C34.2795 9.8107 34.1894 9.79551 34.1146 9.78662C34.1234 9.86158 34.1385 9.95187 34.1501 10.0215C34.2286 10.4933 34.375 11.3714 33.6559 12.0899C32.9369 12.8082 32.0589 12.661 31.5872 12.5821C31.4885 12.5654 31.3476 12.542 31.2688 12.5391C30.8656 12.902 30.2446 12.8896 29.8568 12.5019Z" fill="#FA6D8E"/>
<path d="M57.4548 40.0731C57.4547 40.073 57.4547 40.073 57.4545 40.0729C57.054 39.6719 57.0543 39.0224 57.4551 38.6219C58.1741 37.9034 59.0523 38.0506 59.5239 38.1297C59.5936 38.1414 59.684 38.1565 59.759 38.1654C59.7503 38.0904 59.7351 37.9997 59.7234 37.9302C59.6449 37.4584 59.4987 36.5802 60.2177 35.8619C60.9366 35.1435 61.8147 35.2909 62.2863 35.3702C62.3558 35.3818 62.4457 35.3969 62.5205 35.4058C62.5116 35.331 62.4966 35.2409 62.485 35.1714C62.4063 34.6996 62.2599 33.8214 62.9789 33.1031C63.6977 32.3849 64.5758 32.5324 65.0474 32.6114C65.1465 32.6281 65.2876 32.6518 65.3663 32.6545C65.7705 32.3002 66.3884 32.3129 66.772 32.6965C66.7737 32.6982 66.7753 32.6998 66.7768 32.7016C67.1731 33.1031 67.1753 33.7448 66.7761 34.1436C66.0571 34.8617 65.1792 34.7143 64.7075 34.6351C64.6381 34.6236 64.5481 34.6084 64.4733 34.5995C64.4822 34.6743 64.4972 34.7645 64.5089 34.834C64.5875 35.3056 64.734 36.1837 64.0152 36.9021C63.2962 37.6204 62.4182 37.473 61.9465 37.3937C61.877 37.3819 61.7867 37.367 61.7119 37.358C61.7208 37.433 61.7359 37.5233 61.7475 37.593C61.8261 38.0648 61.9724 38.9428 61.2534 39.6612C60.5342 40.3797 59.6561 40.2325 59.1846 40.1534C59.0858 40.1368 58.9452 40.1134 58.8661 40.1105C58.4635 40.4733 57.8425 40.4607 57.4548 40.0731ZM61.3974 44.0119C61.3973 44.0118 61.3973 44.0118 61.3971 44.0117C60.9966 43.6107 60.9969 42.9612 61.3977 42.5606C62.1167 41.8422 62.9949 41.9894 63.4665 42.0685C63.5362 42.0802 63.6267 42.0953 63.7016 42.1042C63.6929 42.0292 63.6777 41.9385 63.6661 41.869C63.5875 41.3972 63.4413 40.519 64.1604 39.8005C64.8793 39.0822 65.7574 39.2297 66.2291 39.3089C66.2984 39.3206 66.3883 39.3357 66.4631 39.3446C66.4542 39.2697 66.4392 39.1797 66.4276 39.1102C66.3489 38.6384 66.2025 37.7602 66.9217 37.0419C67.6404 36.3237 68.5185 36.4712 68.9902 36.5502C69.0892 36.5669 69.2304 36.5906 69.3092 36.5932C69.7133 36.2387 70.3311 36.2516 70.7148 36.6353C70.7164 36.6369 70.7179 36.6385 70.7196 36.6401C71.116 37.0417 71.1181 37.6836 70.7189 38.0822C69.9999 38.8004 69.1219 38.6529 68.6504 38.5739C68.581 38.5621 68.4909 38.547 68.4162 38.538C68.4249 38.613 68.4401 38.703 68.4516 38.7726C68.5303 39.2443 68.6768 40.1224 67.9579 40.8407C67.2389 41.559 66.3608 41.4116 65.8893 41.3324C65.8198 41.3206 65.7295 41.3055 65.6547 41.2965C65.6636 41.3715 65.6785 41.462 65.6901 41.5317C65.7688 42.0035 65.9149 42.8816 65.1961 43.5999C64.477 44.3184 63.5989 44.1712 63.1273 44.0921C63.0286 44.0754 62.8878 44.052 62.8089 44.0491C62.4062 44.4122 61.7851 44.3995 61.3974 44.0119Z" fill="#FA6D8E"/>
<path d="M27.2608 69.6436C20.5302 69.6436 13.802 67.085 8.67803 61.9661C5.48793 58.7791 3.16307 54.8138 1.95434 50.4985C1.80153 49.953 2.12 49.3868 2.66554 49.234C3.21122 49.0808 3.77742 49.3997 3.93023 49.9452C5.04389 53.9213 7.18708 57.5761 10.1282 60.5144C19.5751 69.9522 34.9461 69.9521 44.3932 60.5145L57.9396 46.9823L51.0423 40.0916L37.4944 53.6252C34.6732 56.4436 30.9663 57.8529 27.2606 57.8533C23.5541 57.8535 19.8487 56.4441 17.0269 53.6252C14.2971 50.898 12.7937 47.2666 12.7937 43.3999C12.7937 39.5331 14.2971 35.9017 17.0269 33.1746L30.5733 19.6426L23.6761 12.7517L10.1282 26.2851C5.07973 31.3288 2.52396 38.3023 3.11601 45.4174C3.16307 45.9821 2.74338 46.478 2.17868 46.525C1.61453 46.5718 1.1181 46.1521 1.07118 45.5875C0.428917 37.8693 3.20151 30.3048 8.67803 24.8335L22.9511 10.5757C23.3517 10.1753 24.0006 10.1753 24.4013 10.5757L32.7503 18.9167C32.9429 19.1091 33.0511 19.3702 33.0511 19.6426C33.0511 19.9149 32.9427 20.1759 32.7501 20.3684L18.4773 34.6262C16.1356 36.9657 14.8459 40.0815 14.8459 43.3998C14.8459 46.718 16.1356 49.8338 18.4773 52.1735C23.3206 57.0118 31.201 57.0121 36.0442 52.1735L50.3173 37.9154C50.7179 37.515 51.3672 37.5153 51.7676 37.9154L60.1166 46.2565C60.3092 46.4488 60.4174 46.71 60.4174 46.9823C60.4174 47.2547 60.3092 47.5157 60.1166 47.7082L45.8435 61.9661C40.7209 67.0838 33.9896 69.6436 27.2608 69.6436Z" fill="#111111"/>
<path d="M23.6762 29.011C23.4139 29.011 23.1515 28.911 22.9511 28.7109L14.6021 20.3698C14.2013 19.9693 14.2009 19.3198 14.6014 18.919C15.0018 18.518 15.6515 18.5179 16.0523 18.9183L24.4013 27.2593C24.8021 27.6599 24.8025 28.3094 24.402 28.7102C24.2017 28.9106 23.9389 29.011 23.6762 29.011ZM51.0424 56.3508C50.78 56.3508 50.5175 56.2508 50.3172 56.0506L41.9683 47.7096C41.5673 47.309 41.5671 46.6595 41.9676 46.2587C42.368 45.8579 43.0176 45.8575 43.4185 46.258L51.7674 54.5991C52.1684 54.9996 52.1687 55.6491 51.7681 56.0499C51.5678 56.2505 51.3052 56.3508 51.0424 56.3508ZM27.1036 9.32679C26.8409 9.32679 26.5781 9.22652 26.3777 9.02597C25.9773 8.62502 25.9776 7.97551 26.3784 7.57511C27.0975 6.85679 27.9755 7.00371 28.4472 7.08291C28.5169 7.09454 28.6075 7.10972 28.6825 7.11862C28.6737 7.04365 28.6585 6.95309 28.6469 6.88333C28.5684 6.41152 28.422 5.53328 29.1411 4.81496C29.8599 4.09664 30.738 4.24438 31.2096 4.32332C31.279 4.33494 31.3691 4.34999 31.4438 4.35902C31.4349 4.28419 31.4199 4.19404 31.4084 4.12469C31.3297 3.65288 31.1832 2.77464 31.9024 2.05646C32.6214 1.33814 33.4993 1.48574 33.971 1.56468C34.0701 1.58136 34.2112 1.60503 34.29 1.60763C34.696 1.25168 35.3174 1.26632 35.7005 1.65469C36.0968 2.05632 36.099 2.69803 35.6998 3.09666C34.9811 3.81498 34.103 3.66738 33.6313 3.58831C33.562 3.57668 33.4718 3.56163 33.3972 3.5526C33.406 3.62743 33.4211 3.71758 33.4326 3.78707C33.5112 4.25875 33.6577 5.13684 32.9387 5.85516C32.2199 6.57348 31.3418 6.42588 30.87 6.34695C30.8005 6.33532 30.7103 6.32014 30.6356 6.31111C30.6444 6.38607 30.6594 6.47649 30.6711 6.54612C30.7497 7.0178 30.896 7.89603 30.177 8.61435C29.4578 9.33267 28.5796 9.18548 28.1082 9.10654C28.0093 9.08999 27.8687 9.06646 27.7897 9.06373C27.5951 9.2391 27.3492 9.32665 27.1036 9.32679ZM30.5823 12.8021C30.3195 12.8021 30.0569 12.7018 29.8564 12.5012C29.4559 12.1003 29.4563 11.4507 29.8571 11.0504C30.5761 10.332 31.4544 10.4792 31.9259 10.5582C31.9957 10.5699 32.0862 10.585 32.1612 10.5939C32.1524 10.519 32.1373 10.4284 32.1258 10.3586C32.0471 9.88697 31.9009 9.00874 32.62 8.29042C33.339 7.57196 34.217 7.71956 34.6887 7.79863C34.758 7.81026 34.848 7.82544 34.9228 7.83434C34.9139 7.75951 34.8989 7.6695 34.8874 7.6C34.8088 7.12819 34.6622 6.24996 35.3814 5.53178C36.1001 4.81346 36.9781 4.96106 37.4499 5.04013C37.5491 5.05668 37.6902 5.08048 37.7689 5.08308C38.1746 4.72741 38.796 4.74164 39.1794 5.12987C39.5757 5.5315 39.578 6.17322 39.1789 6.57198C38.46 7.29043 37.5818 7.14283 37.1102 7.06376C37.0409 7.05213 36.9509 7.03695 36.876 7.02806C36.8848 7.10289 36.9 7.19303 36.9116 7.26239C36.9902 7.7342 37.1368 8.61244 36.4176 9.33062C35.6988 10.0489 34.8208 9.90147 34.3491 9.82226C34.2796 9.81064 34.1895 9.79559 34.1146 9.78656C34.1234 9.86153 34.1385 9.95181 34.1501 10.0214C34.2287 10.4933 34.375 11.3714 33.656 12.0897C32.9368 12.808 32.0587 12.6609 31.5872 12.5819C31.4883 12.5653 31.3477 12.5418 31.2687 12.539C31.0737 12.7144 30.828 12.802 30.5823 12.8021ZM58.1831 40.3665C57.9182 40.3665 57.6542 40.2657 57.4548 40.0632C57.0586 39.6616 57.0563 39.0205 57.4553 38.6219C58.1744 37.9033 59.0523 38.0505 59.5241 38.1297C59.5938 38.1413 59.6844 38.1565 59.7595 38.1654C59.7507 38.0905 59.7356 37.9999 59.7239 37.9301C59.6454 37.4583 59.499 36.5802 60.218 35.8619C60.9366 35.1437 61.8149 35.2911 62.2867 35.3701C62.356 35.3818 62.446 35.3968 62.5209 35.4058C62.512 35.331 62.4969 35.2409 62.4853 35.1714C62.4067 34.6997 62.2601 33.8216 62.9791 33.1033C63.6983 32.3848 64.5762 32.5321 65.0478 32.6116C65.147 32.6282 65.288 32.6518 65.3667 32.6546C65.7724 32.2986 66.3939 32.3131 66.7772 32.7014C67.1735 33.103 67.1758 33.7447 66.7766 34.1435C66.0578 34.8619 65.1797 34.7145 64.7081 34.6351C64.6386 34.6235 64.5486 34.6084 64.4738 34.5994C64.4827 34.6742 64.4977 34.7644 64.5093 34.8339C64.588 35.3056 64.7345 36.1837 64.0155 36.9021C63.2966 37.6204 62.4186 37.4728 61.947 37.3938C61.8775 37.3821 61.7874 37.3671 61.7125 37.3581C61.7213 37.433 61.7363 37.5233 61.748 37.5929C61.8265 38.0647 61.9729 38.9428 61.2539 39.6612C60.5347 40.3798 59.6568 40.2324 59.1851 40.1534C59.0858 40.1368 58.9442 40.113 58.8655 40.1105C58.6709 40.281 58.4267 40.3665 58.1831 40.3665ZM62.1231 44.3125C61.8603 44.3125 61.5976 44.2122 61.3972 44.0117C60.9967 43.6108 60.997 42.9612 61.3979 42.5608C62.1171 41.8425 62.995 41.9896 63.4667 42.0686C63.5364 42.0803 63.6269 42.0955 63.702 42.1043C63.6932 42.0294 63.678 41.9388 63.6664 41.8691C63.5879 41.3972 63.4415 40.5191 64.1605 39.8008C64.8797 39.0824 65.7576 39.2301 66.2292 39.309C66.2986 39.3207 66.3887 39.3359 66.4635 39.3447C66.4546 39.2699 66.4395 39.1798 66.4279 39.1103C66.3493 38.6386 66.2028 37.7605 66.9218 37.0422C67.6406 36.3237 68.5189 36.4711 68.9904 36.5505C69.0894 36.5671 69.2306 36.5908 69.3093 36.5935C69.715 36.2375 70.3363 36.2518 70.7198 36.6403C71.1161 37.0418 71.1184 37.6836 70.7192 38.0824C70.0004 38.8008 69.122 38.6535 68.6506 38.574C68.5812 38.5624 68.4912 38.5474 68.4164 38.5383C68.4253 38.6132 68.4403 38.7033 68.452 38.7728C68.5306 39.2445 68.6771 40.1226 67.9581 40.841C67.239 41.5592 66.361 41.4117 65.8895 41.3327C65.82 41.321 65.7298 41.3059 65.655 41.297C65.6638 41.3719 65.6788 41.4622 65.6905 41.5319C65.769 42.0037 65.9153 42.8818 65.1963 43.6001C64.4773 44.3184 63.5991 44.1712 63.1276 44.0923C63.0288 44.0757 62.888 44.0522 62.8092 44.0495C62.6144 44.2248 62.3688 44.3124 62.1231 44.3125Z" fill="#111111"/>
<path d="M56.6344 9.66247C56.6344 10.6595 56.3719 11.6389 55.8734 12.5024C55.3749 13.3658 54.6579 14.0828 53.7944 14.5814C52.9326 15.084 51.952 15.3468 50.9544 15.3425C49.448 15.3425 48.0033 14.744 46.938 13.6788C45.8728 12.6136 45.2744 11.1689 45.2744 9.66247C45.2744 8.15604 45.8728 6.71131 46.938 5.64611C48.0033 4.5809 49.448 3.98247 50.9544 3.98247C51.952 3.97817 52.9326 4.24097 53.7944 4.74359C54.6579 5.24211 55.3749 5.95911 55.8734 6.82256C56.3719 7.686 56.6344 8.66545 56.6344 9.66247Z" fill="#FC89A4"/>
<path d="M53.7948 14.5799C55.3633 14.5799 56.6348 12.3777 56.6348 9.66107C56.6348 6.94444 55.3633 4.74219 53.7948 4.74219C52.2263 4.74219 50.9548 6.94444 50.9548 9.66107C50.9548 12.3777 52.2263 14.5799 53.7948 14.5799Z" fill="#FF3262"/>
<path d="M51.9869 15.2371C51.6475 15.309 51.3012 15.3436 50.9543 15.3404C49.5849 15.3404 48.2716 14.7964 47.3033 13.8281C46.335 12.8598 45.791 11.5465 45.791 10.1771C45.791 8.80774 46.335 7.49445 47.3033 6.52616C48.2716 5.55786 49.5849 5.01388 50.9543 5.01388C51.3012 5.01065 51.6475 5.04527 51.9869 5.11714C50.8197 5.35415 49.7703 5.98739 49.0166 6.90955C48.2629 7.83172 47.8511 8.98611 47.8511 10.1771C47.8511 11.3681 48.2629 12.5225 49.0166 13.4447C49.7703 14.3668 50.8197 15.0001 51.9869 15.2371Z" fill="#FFE6EC"/>
<path d="M50.9544 16.3742C49.729 16.3742 48.5311 16.0108 47.5122 15.33C46.4933 14.6492 45.6991 13.6815 45.2302 12.5494C44.7612 11.4172 44.6385 10.1714 44.8776 8.96955C45.1167 7.76767 45.7068 6.66367 46.5733 5.79716C47.4398 4.93065 48.5438 4.34055 49.7457 4.10148C50.9476 3.86241 52.1933 3.98511 53.3255 4.45406C54.4576 4.92301 55.4253 5.71715 56.1061 6.73606C56.7869 7.75497 57.1503 8.95288 57.1503 10.1783C57.1503 11.8216 56.4975 13.3975 55.3356 14.5595C54.1736 15.7214 52.5977 16.3742 50.9544 16.3742Z" stroke="#111111" stroke-width="2"/>
<path d="M45.1718 27.205C47.1132 28.7039 49.4492 29.6046 51.8944 29.7969C48.8048 30.0303 45.7388 29.1064 43.2924 27.205C41.7538 26.0277 40.6282 24.6337 40.6282 23.2086C40.6282 18.8405 45.2338 15.3398 50.9547 15.3398H51.8944C46.6175 15.7013 42.4869 19.078 42.4869 23.2189C42.4869 24.6337 43.6332 26.0277 45.1718 27.205Z" fill="white"/>
<path d="M62.9277 24.292C62.9277 25.9288 61.6275 26.3583 59.8863 27.67C57.4077 29.5997 54.3562 30.6475 51.2149 30.6475C48.0737 30.6475 45.0222 29.5997 42.5436 27.67C40.7675 26.3583 39.5022 25.952 39.5022 24.292C39.5022 19.3817 44.7491 14.3438 51.2149 14.3438C57.6807 14.3438 62.9277 19.3817 62.9277 24.292Z" fill="#FFE6EC"/>
<path d="M62.9277 24.292C62.9277 25.9288 61.6275 26.3583 59.8863 27.6816C58.487 28.7224 56.9152 29.5083 55.243 30.0033C53.0839 30.664 50.7979 30.7981 48.5763 30.3941C46.3548 29.9902 44.2623 29.0601 42.4739 27.6816C40.7675 26.3583 39.5022 25.952 39.5022 24.292C39.5022 19.3817 44.7491 14.3438 51.2149 14.3438C52.5981 14.3425 53.9715 14.574 55.2778 15.0286C59.747 16.5377 62.9277 20.4729 62.9277 24.292Z" fill="#FC89A4"/>
<path d="M62.9271 24.2925C62.9271 25.9292 61.627 26.3587 59.8858 27.6821C58.4865 28.7229 56.9147 29.5088 55.2425 30.0037C53.5703 29.5088 51.9984 28.7229 50.5992 27.6821C48.8927 26.3587 47.6274 25.9525 47.6274 24.2925C47.6274 20.4734 50.8081 16.5382 55.2773 15.0059C59.7465 16.5382 62.9271 20.4734 62.9271 24.2925Z" fill="#FF3262"/>
<path d="M51.987 29.7969C48.8581 30.0397 45.7501 29.1164 43.2611 27.205C41.6605 26.0277 40.5349 25.6663 40.5349 24.1896C40.5349 19.8215 45.2025 15.3398 50.9543 15.3398H51.987C46.7308 15.8458 42.6312 20.09 42.6312 24.1793C42.6312 25.6353 43.7878 26.0174 45.3367 27.1946C47.2649 28.6697 49.5697 29.5716 51.987 29.7969Z" fill="#FFE6EC"/>
<path d="M50.9543 30.831C47.9374 30.8214 45.0068 29.8239 42.6105 27.9912C42.28 27.7433 41.9806 27.5368 41.6914 27.3406C40.6588 26.6074 39.5022 25.8433 39.5022 24.1601C39.5022 18.9968 44.9649 14.3086 50.9543 14.3086C56.9436 14.3086 62.4063 19.0381 62.4063 24.2323C62.4063 25.9156 61.2911 26.6797 60.2171 27.4129C59.928 27.6091 59.6285 27.8156 59.2981 28.0635C56.8926 29.8704 53.9628 30.8422 50.9543 30.831Z" stroke="#111111" stroke-width="2"/>
</g>
<defs>
<clipPath id="clip0_1461_98896">
<rect width="70.0399" height="70.0399" fill="white" transform="translate(0.980225 0.480469)"/>
</clipPath>
</defs>
</svg>
