<svg width="102" height="30" viewBox="0 0 102 30" fill="none" xmlns="http://www.w3.org/2000/svg">
<g clip-path="url(#clip0_1532_267709)">
<path d="M52.6213 23.0957H48.4845V15.2668C48.4845 13.2739 47.7665 12.2774 46.3308 12.2774C45.6478 12.2774 45.0918 12.5768 44.6629 13.1755C44.2339 13.7743 44.0193 14.5206 44.0193 15.4143V23.0957H39.8693V15.1864C39.8693 13.247 39.1645 12.2774 37.7549 12.2774C37.0458 12.2774 36.4766 12.5634 36.0476 13.1353C35.6274 13.7073 35.4173 14.4848 35.4173 15.4679V23.0957H31.2673V9.91745L35.4173 8.81927V11.5133H35.4698C35.8988 10.7804 36.4986 10.1861 37.269 9.73031C38.0483 9.26559 38.8975 9.03322 39.8168 9.03322C41.7167 9.03322 43.0168 9.88671 43.7173 11.5937C44.7416 9.88671 46.2475 9.03322 48.235 9.03322C51.1592 9.03322 52.6213 10.8743 52.6213 14.5563V23.0957Z" fill="black"/>
<path d="M61.5695 23.4309C59.3281 23.4309 57.5639 22.7919 56.2769 21.5139C54.9987 20.2269 54.3595 18.4842 54.3595 16.2857C54.3595 14.0157 55.0249 12.2417 56.3557 10.9637C57.6865 9.67674 59.4857 9.03326 61.7533 9.03326C63.9859 9.03326 65.7369 9.67674 67.0064 10.9637C68.2759 12.2417 68.9107 13.9352 68.9107 16.0444C68.9107 18.3234 68.2541 20.1242 66.9408 21.4469C65.6362 22.7696 63.8458 23.4309 61.5695 23.4309ZM61.6746 12.2774C60.6939 12.2774 59.9322 12.6215 59.3894 13.3096C58.8466 13.9978 58.5751 14.9719 58.5751 16.2321C58.5751 18.8685 59.617 20.1867 61.7008 20.1867C63.6882 20.1867 64.682 18.8327 64.682 16.1248C64.682 13.5599 63.6795 12.2774 61.6746 12.2774Z" fill="black"/>
<path d="M84.2312 23.0957H80.0812V21.2056H80.0287C79.0831 22.6891 77.6954 23.4309 75.8656 23.4309C74.1846 23.4309 72.8319 22.8276 71.8075 21.6211C70.7831 20.4056 70.271 18.7121 70.271 16.5404C70.271 14.2704 70.8357 12.4517 71.9651 11.0843C73.0946 9.71695 74.5742 9.03326 76.4041 9.03326C78.1376 9.03326 79.3458 9.6678 80.0287 10.9369H80.0812V6.43348L84.2312 5.70135V23.0957ZM80.16 16.4197V15.3875C80.16 14.4938 79.9061 13.752 79.3984 13.1622C78.8905 12.5723 78.2295 12.2774 77.4153 12.2774C76.4959 12.2774 75.778 12.6483 75.2615 13.3901C74.7449 14.1229 74.4866 15.1328 74.4866 16.4197C74.4866 17.6262 74.7362 18.5556 75.2352 19.2081C75.7343 19.8605 76.4259 20.1867 77.3102 20.1867C78.1507 20.1867 78.8336 19.8426 79.3589 19.1544C79.893 18.4663 80.16 17.5548 80.16 16.4197Z" fill="black"/>
<path d="M98.0784 23.0957H94.1517V21.1251H94.0991C93.1974 22.6623 91.8622 23.4309 90.0936 23.4309C88.7891 23.4309 87.7604 23.0555 87.0074 22.3048C86.2632 21.5451 85.8911 20.5352 85.8911 19.2752C85.8911 16.6119 87.4364 15.0747 90.527 14.6636L94.1779 14.1676C94.1779 12.6662 93.3812 11.9155 91.7878 11.9155C90.1856 11.9155 87.9449 12.5856 86.5003 13.5597V10.3692C87.0781 10.0653 88.5833 9.61417 89.5815 9.38181C90.5883 9.14945 91.5032 9.03326 92.3263 9.03326C96.161 9.03326 98.0784 10.986 98.0784 14.8915V23.0957ZM94.1779 17.519V16.594L91.7353 16.9157C90.3869 17.0945 89.7128 17.7157 89.7128 18.7791C89.7128 19.2617 89.8748 19.6594 90.1987 19.9722C90.5314 20.2761 90.9779 20.428 91.5382 20.428C92.3174 20.428 92.9522 20.1554 93.4425 19.6103C93.9328 19.0562 94.1779 18.3591 94.1779 17.519Z" fill="black"/>
<path d="M24.0553 5H9.98244V8.77506H20.2802V19.0728H24.0553V5Z" fill="#6932FF"/>
<path d="M20.28 8.77502H6.95181V12.5501H16.5049V22.1033H20.28V8.77502Z" fill="#FFC71C"/>
<path d="M16.5051 12.5502H3.92157V16.3253H12.73V25.1337H16.5051V12.5502Z" fill="#FF4C79"/>
</g>
<defs>
<clipPath id="clip0_1532_267709">
<rect width="98" height="19.8085" fill="white" transform="translate(2 5)"/>
</clipPath>
</defs>
</svg>
