<svg width="98" height="29" viewBox="0 0 98 29" fill="none" xmlns="http://www.w3.org/2000/svg">
<g clip-path="url(#clip0_1894_485085)">
<path d="M50.6213 23.0957H46.4845V15.2668C46.4845 13.2739 45.7665 12.2774 44.3308 12.2774C43.6478 12.2774 43.0918 12.5768 42.6629 13.1755C42.2339 13.7743 42.0193 14.5206 42.0193 15.4143V23.0957H37.8693V15.1864C37.8693 13.247 37.1645 12.2774 35.7549 12.2774C35.0458 12.2774 34.4766 12.5634 34.0476 13.1353C33.6274 13.7073 33.4173 14.4848 33.4173 15.4679V23.0957H29.2673V9.91745L33.4173 8.81927V11.5133H33.4698C33.8988 10.7804 34.4986 10.1861 35.269 9.73031C36.0483 9.26559 36.8975 9.03322 37.8168 9.03322C39.7167 9.03322 41.0168 9.88671 41.7173 11.5937C42.7416 9.88671 44.2475 9.03322 46.235 9.03322C49.1592 9.03322 50.6213 10.8743 50.6213 14.5563V23.0957Z" fill="white"/>
<path d="M59.5695 23.4309C57.3281 23.4309 55.5639 22.7919 54.2769 21.5139C52.9987 20.2269 52.3595 18.4842 52.3595 16.2857C52.3595 14.0157 53.0249 12.2417 54.3557 10.9637C55.6865 9.67674 57.4857 9.03326 59.7533 9.03326C61.9859 9.03326 63.7369 9.67674 65.0064 10.9637C66.2759 12.2417 66.9107 13.9352 66.9107 16.0444C66.9107 18.3234 66.2541 20.1242 64.9408 21.4469C63.6362 22.7696 61.8458 23.4309 59.5695 23.4309ZM59.6746 12.2774C58.6939 12.2774 57.9322 12.6215 57.3894 13.3096C56.8466 13.9978 56.5751 14.9719 56.5751 16.2321C56.5751 18.8685 57.617 20.1867 59.7008 20.1867C61.6882 20.1867 62.682 18.8327 62.682 16.1248C62.682 13.5599 61.6795 12.2774 59.6746 12.2774Z" fill="white"/>
<path d="M82.2312 23.0957H78.0812V21.2056H78.0287C77.0831 22.6891 75.6954 23.4309 73.8656 23.4309C72.1846 23.4309 70.8319 22.8276 69.8075 21.6211C68.7831 20.4056 68.271 18.7121 68.271 16.5404C68.271 14.2704 68.8357 12.4517 69.9651 11.0843C71.0946 9.71695 72.5742 9.03326 74.4041 9.03326C76.1376 9.03326 77.3458 9.6678 78.0287 10.9369H78.0812V6.43348L82.2312 5.70135V23.0957ZM78.16 16.4197V15.3875C78.16 14.4938 77.9061 13.752 77.3984 13.1622C76.8905 12.5723 76.2295 12.2774 75.4153 12.2774C74.4959 12.2774 73.778 12.6483 73.2615 13.3901C72.7449 14.1229 72.4866 15.1328 72.4866 16.4197C72.4866 17.6262 72.7362 18.5556 73.2352 19.2081C73.7343 19.8605 74.4259 20.1867 75.3102 20.1867C76.1507 20.1867 76.8336 19.8426 77.3589 19.1544C77.893 18.4663 78.16 17.5548 78.16 16.4197Z" fill="white"/>
<path d="M96.0784 23.0957H92.1517V21.1251H92.0991C91.1974 22.6623 89.8622 23.4309 88.0936 23.4309C86.7891 23.4309 85.7604 23.0555 85.0074 22.3048C84.2632 21.5451 83.8911 20.5352 83.8911 19.2752C83.8911 16.6119 85.4364 15.0747 88.527 14.6636L92.1779 14.1676C92.1779 12.6662 91.3812 11.9155 89.7878 11.9155C88.1856 11.9155 85.9449 12.5856 84.5003 13.5597V10.3692C85.0781 10.0653 86.5833 9.61417 87.5815 9.38181C88.5883 9.14945 89.5032 9.03326 90.3263 9.03326C94.161 9.03326 96.0784 10.986 96.0784 14.8915V23.0957ZM92.1779 17.519V16.594L89.7353 16.9157C88.3869 17.0945 87.7128 17.7157 87.7128 18.7791C87.7128 19.2617 87.8748 19.6594 88.1987 19.9722C88.5314 20.2761 88.9779 20.428 89.5382 20.428C90.3174 20.428 90.9522 20.1554 91.4425 19.6103C91.9328 19.0562 92.1779 18.3591 92.1779 17.519Z" fill="white"/>
<path d="M22.0553 5H7.98244V8.77506H18.2802V19.0728H22.0553V5Z" fill="#6932FF"/>
<path d="M18.28 8.77502H4.95181V12.5501H14.5049V22.1033H18.28V8.77502Z" fill="#FFC71C"/>
<path d="M14.5051 12.5502H1.92157V16.3253H10.73V25.1337H14.5051V12.5502Z" fill="#FF4C79"/>
</g>
<defs>
<clipPath id="clip0_1894_485085">
<rect width="98" height="19.8085" fill="white" transform="translate(0 5)"/>
</clipPath>
</defs>
</svg>
