<svg width="38" height="38" viewBox="0 0 38 38" fill="none" xmlns="http://www.w3.org/2000/svg">
<path d="M0.96875 0.96875H37.2188V37.2188H0.96875V0.96875ZM34.2483 28.5731C33.9844 26.9197 32.907 25.5301 29.713 24.2332C28.6013 23.7116 27.3668 23.3511 26.9962 22.5133C26.8593 22.0139 26.8392 21.744 26.9278 21.448C27.1553 20.4733 28.3113 20.1812 29.2176 20.4511C29.8076 20.6324 30.3514 21.0855 30.6917 21.8125C32.2525 20.7915 32.2525 20.7915 33.342 20.1128C32.9332 19.4804 32.7298 19.2045 32.4579 18.9326C31.5053 17.8693 30.2366 17.3256 28.1764 17.3719L27.1131 17.5068C26.092 17.7565 25.1173 18.3023 24.5292 19.0253C22.8074 20.9747 23.3048 24.3722 25.3892 25.7799C27.4494 27.3205 30.4662 27.6588 30.8508 29.1088C31.2133 30.877 29.5378 31.4429 27.8803 31.2395C26.6579 30.9656 25.9772 30.3554 25.2301 29.2216L22.467 30.8085C22.7832 31.5315 23.1457 31.8497 23.6894 32.4841C26.3176 35.1344 32.8889 34.9994 34.067 30.9656C34.1093 30.8307 34.4295 29.9023 34.1798 28.4744L34.2483 28.5731ZM20.6807 17.6297H17.2853C17.2853 20.5558 17.2712 23.4659 17.2712 26.3981C17.2712 28.259 17.3658 29.9667 17.0617 30.4924C16.5643 31.5335 15.2774 31.4006 14.6954 31.2153C14.0973 30.9213 13.7932 30.5125 13.4408 29.9244C13.3461 29.7674 13.2756 29.6304 13.2494 29.6304L10.4944 31.3301C10.9556 32.2827 11.6283 33.1003 12.4962 33.6199C13.7872 34.3912 15.5211 34.641 17.3376 34.2342C18.5218 33.8918 19.5428 33.189 20.0725 32.1015C20.8458 30.6978 20.6807 28.9739 20.6747 27.0486C20.6908 23.9452 20.6747 20.8398 20.6747 17.7142L20.6807 17.6297Z" fill="#EFD81D"/>
</svg>
