<svg width="36" height="36" viewBox="0 0 36 36" fill="none" xmlns="http://www.w3.org/2000/svg">
<path d="M2 18C2 9.16344 9.16344 2 18 2V2C26.8366 2 34 9.16344 34 18V18C34 26.8366 26.8366 34 18 34V34C9.16344 34 2 26.8366 2 18V18Z" fill="#D9EEFF"/>
<path d="M24.6668 13.9998C24.6668 13.2665 24.0668 12.6665 23.3335 12.6665H12.6668C11.9335 12.6665 11.3335 13.2665 11.3335 13.9998M24.6668 13.9998V21.9998C24.6668 22.7332 24.0668 23.3332 23.3335 23.3332H12.6668C11.9335 23.3332 11.3335 22.7332 11.3335 21.9998V13.9998M24.6668 13.9998L18.0002 18.6665L11.3335 13.9998" stroke="#0B68FF" stroke-width="1.33333" stroke-linecap="round" stroke-linejoin="round"/>
<path d="M18 32C10.268 32 4 25.732 4 18H0C0 27.9411 8.05887 36 18 36V32ZM32 18C32 25.732 25.732 32 18 32V36C27.9411 36 36 27.9411 36 18H32ZM18 4C25.732 4 32 10.268 32 18H36C36 8.05887 27.9411 0 18 0V4ZM18 0C8.05887 0 0 8.05887 0 18H4C4 10.268 10.268 4 18 4V0Z" fill="#F4FAFF"/>
</svg>
