<svg width="37" height="36" viewBox="0 0 37 36" fill="none" xmlns="http://www.w3.org/2000/svg">
<path d="M2.5 18C2.5 9.16344 9.66344 2 18.5 2V2C27.3366 2 34.5 9.16344 34.5 18V18C34.5 26.8366 27.3366 34 18.5 34V34C9.66344 34 2.5 26.8366 2.5 18V18Z" fill="#D9EEFF"/>
<path d="M24.5 20C24.5 20.3536 24.3595 20.6928 24.1095 20.9428C23.8594 21.1929 23.5203 21.3333 23.1667 21.3333H15.1667L12.5 24V13.3333C12.5 12.9797 12.6405 12.6406 12.8905 12.3905C13.1406 12.1405 13.4797 12 13.8333 12H23.1667C23.5203 12 23.8594 12.1405 24.1095 12.3905C24.3595 12.6406 24.5 12.9797 24.5 13.3333V20Z" stroke="#0B68FF" stroke-width="1.33333" stroke-linecap="round" stroke-linejoin="round"/>
<path d="M18.5 32C10.768 32 4.5 25.732 4.5 18H0.5C0.5 27.9411 8.55887 36 18.5 36V32ZM32.5 18C32.5 25.732 26.232 32 18.5 32V36C28.4411 36 36.5 27.9411 36.5 18H32.5ZM18.5 4C26.232 4 32.5 10.268 32.5 18H36.5C36.5 8.05887 28.4411 0 18.5 0V4ZM18.5 0C8.55887 0 0.5 8.05887 0.5 18H4.5C4.5 10.268 10.768 4 18.5 4V0Z" fill="#F4FAFF"/>
</svg>
