<svg width="12" height="13" viewBox="0 0 12 13" fill="none" xmlns="http://www.w3.org/2000/svg">
<g clip-path="url(#clip0_9803_144851)">
<path d="M7 1.73438H3C2.73478 1.73438 2.48043 1.83973 2.29289 2.02727C2.10536 2.2148 2 2.46916 2 2.73438V10.7344C2 10.9996 2.10536 11.2539 2.29289 11.4415C2.48043 11.629 2.73478 11.7344 3 11.7344H9C9.26522 11.7344 9.51957 11.629 9.70711 11.4415C9.89464 11.2539 10 10.9996 10 10.7344V4.73438M7 1.73438L10 4.73438M7 1.73438V4.73438H10M8 7.23438H4M8 9.23438H4M5 5.23438H4" stroke="#238AFE" stroke-width="1.5" stroke-linecap="round" stroke-linejoin="round"/>
</g>
<defs>
<clipPath id="clip0_9803_144851">
<rect width="12" height="12" fill="white" transform="translate(0 0.734375)"/>
</clipPath>
</defs>
</svg>
