<svg width="16" height="13" viewBox="0 0 16 13" fill="none" xmlns="http://www.w3.org/2000/svg">
<path d="M3.86281 0.996231L0.698748 4.23563C0.57319 4.36119 0.491577 4.5558 0.491577 4.7253C0.491577 5.12081 0.767805 5.39076 1.15703 5.39076C1.34537 5.39076 1.49604 5.32798 1.6216 5.19615L2.91485 3.85268L3.74353 2.89844L3.69331 4.22935V12.0579C3.69331 12.4534 3.97581 12.7359 4.36504 12.7359C4.75427 12.7359 5.0305 12.4534 5.0305 12.0579V4.22935L4.98655 2.89844L5.80896 3.85268L7.10221 5.19615C7.22777 5.32798 7.38471 5.39076 7.57305 5.39076C7.956 5.39076 8.23223 5.12081 8.23223 4.7253C8.23223 4.5558 8.15062 4.36119 8.02506 4.23563L4.861 0.996231C4.58477 0.707448 4.14532 0.70117 3.86281 0.996231ZM12.1371 12.5162L15.3011 9.27678C15.4267 9.14495 15.5083 8.95033 15.5083 8.78083C15.5083 8.3916 15.2321 8.12165 14.8429 8.12165C14.6545 8.12165 14.5039 8.18443 14.3783 8.30999L13.085 9.65346L12.2564 10.6077L12.3066 9.27678V1.44824C12.3066 1.06529 12.0241 0.776505 11.6349 0.776505C11.2519 0.776505 10.9694 1.06529 10.9694 1.44824V9.27678L11.0133 10.6077L10.1909 9.65346L8.89769 8.30999C8.77213 8.18443 8.61518 8.12165 8.43312 8.12165C8.04389 8.12165 7.76766 8.3916 7.76766 8.78083C7.76766 8.95033 7.84928 9.14495 7.97484 9.27678L11.1389 12.5162C11.4151 12.8112 11.8546 12.8175 12.1371 12.5162Z" fill="#81878D"/>
</svg>
