<svg width="16" height="10" viewBox="0 0 16 10" fill="none" xmlns="http://www.w3.org/2000/svg">
<path d="M7.2 8.33333H15.2C15.4122 8.33333 15.6157 8.42113 15.7657 8.57741C15.9157 8.73369 16 8.94565 16 9.16667C16 9.38768 15.9157 9.59964 15.7657 9.75592C15.6157 9.9122 15.4122 10 15.2 10H7.2C6.98783 10 6.78434 9.9122 6.63431 9.75592C6.48429 9.59964 6.4 9.38768 6.4 9.16667C6.4 8.94565 6.48429 8.73369 6.63431 8.57741C6.78434 8.42113 6.98783 8.33333 7.2 8.33333ZM15.2 1.66667H0.8C0.587827 1.66667 0.384343 1.57887 0.234314 1.42259C0.0842848 1.26631 0 1.05435 0 0.833333C0 0.61232 0.0842848 0.400358 0.234314 0.244078C0.384343 0.0877975 0.587827 0 0.8 0H15.2C15.4122 0 15.6157 0.0877975 15.7657 0.244078C15.9157 0.400358 16 0.61232 16 0.833333C16 1.05435 15.9157 1.26631 15.7657 1.42259C15.6157 1.57887 15.4122 1.66667 15.2 1.66667ZM0.8 4.16667H15.2C15.4122 4.16667 15.6157 4.25446 15.7657 4.41074C15.9157 4.56702 16 4.77899 16 5C16 5.22101 15.9157 5.43297 15.7657 5.58926C15.6157 5.74554 15.4122 5.83333 15.2 5.83333H0.8C0.587827 5.83333 0.384343 5.74554 0.234314 5.58926C0.0842848 5.43297 0 5.22101 0 5C0 4.77899 0.0842848 4.56702 0.234314 4.41074C0.384343 4.25446 0.587827 4.16667 0.8 4.16667Z" fill="#81878D"/>
</svg>
