<svg width="20" height="17" viewBox="0 0 20 17" fill="none" xmlns="http://www.w3.org/2000/svg">
<path d="M18.8066 7.79967H17.7519C17.3074 3.98019 13.9927 0.914062 9.99996 0.914062C7.79264 0.914062 5.78874 1.87835 4.40258 3.38504C4.03344 3.74665 4.0485 4.22879 4.34984 4.50753C4.65872 4.79381 5.10319 4.79381 5.47987 4.44727C6.60235 3.23438 8.21452 2.47349 9.99996 2.47349C13.1791 2.47349 15.748 4.80134 16.1774 7.79967H15.0248C14.4447 7.79967 14.2865 8.22907 14.6255 8.69615L16.426 11.2425C16.7048 11.6191 17.1266 11.6267 17.3978 11.2425L19.2059 8.70368C19.5449 8.22907 19.3942 7.79967 18.8066 7.79967ZM1.19331 9.61523H2.25554C2.70001 13.4347 6.01474 16.5008 9.99996 16.5008C12.2223 16.5008 14.2262 15.529 15.6124 14.0223C15.974 13.6607 15.9589 13.1786 15.6576 12.8998C15.3487 12.6136 14.9118 12.6136 14.5276 12.9676C13.4202 14.1805 11.808 14.9414 9.99996 14.9414C6.82836 14.9414 4.25944 12.6136 3.83003 9.61523H4.97512C5.54767 9.61523 5.7134 9.18583 5.3744 8.71875L3.56636 6.17243C3.29516 5.79576 2.87328 5.78823 2.60208 6.17243L0.79404 8.71122C0.4475 9.18583 0.605703 9.61523 1.19331 9.61523Z" fill="#555A60"/>
</svg>
