<svg width="16" height="13" viewBox="0 0 16 13" fill="none" xmlns="http://www.w3.org/2000/svg">
<path d="M1.77734 0.352905C1.25753 0.352905 1.024 0.737113 0.956194 1.10625C0.895926 1.41513 0.880859 1.80687 0.880859 2.24381C0.880859 5.77701 2.34989 7.38918 5.83036 7.38918H10.7949L12.5879 7.28371L10.3881 9.29515L8.70061 10.9977C8.54241 11.1484 8.45201 11.3593 8.45201 11.5929C8.45201 12.0599 8.79855 12.3989 9.28069 12.3989C9.49163 12.3989 9.69503 12.3161 9.8909 12.1202L14.8404 7.17824C15.0212 7.00497 15.1191 6.77897 15.1191 6.55296C15.1191 6.31942 15.0212 6.09342 14.8404 5.92015L9.87584 0.963117C9.69503 0.789847 9.49163 0.699445 9.28069 0.699445C8.79855 0.699445 8.45201 1.04599 8.45201 1.50553C8.45201 1.7466 8.54994 1.95 8.70061 2.10067L10.3881 3.81077L12.5954 5.82221L10.7949 5.70921H5.93583C3.45731 5.70921 2.57589 4.69219 2.57589 2.19107C2.57589 1.7692 2.59849 1.47539 2.59849 1.18159C2.59849 0.691912 2.26702 0.352905 1.77734 0.352905Z" fill="#1A85FF"/>
</svg>
