<svg width="19" height="22" viewBox="0 0 19 22" fill="none" xmlns="http://www.w3.org/2000/svg">
<path d="M14.5001 14C13.9999 13.9992 13.5046 14.0992 13.0439 14.2941C12.5833 14.489 12.1666 14.7748 11.8188 15.1344L7.49696 12.3594C7.83433 11.4845 7.83433 10.5155 7.49696 9.64062L11.8188 6.86562C12.4268 7.48742 13.232 7.87858 14.0966 7.97214C14.9612 8.0657 15.8315 7.85585 16.5584 7.3785C17.2854 6.90116 17.8238 6.186 18.0816 5.35543C18.3393 4.52486 18.3004 3.63052 17.9715 2.82548C17.6425 2.02044 17.044 1.35476 16.2784 0.942359C15.5127 0.529962 14.6275 0.396495 13.7743 0.564802C12.9211 0.733109 12.1529 1.19272 11.6012 1.86498C11.0496 2.53724 10.7487 3.38035 10.7501 4.25C10.7516 4.7147 10.8374 5.17528 11.0032 5.60937L6.68133 8.38437C6.16101 7.84981 5.49306 7.48258 4.76292 7.32965C4.03277 7.17671 3.2736 7.24503 2.58249 7.52585C1.89137 7.80667 1.29972 8.28724 0.883176 8.9061C0.466636 9.52497 0.244141 10.254 0.244141 11C0.244141 11.746 0.466636 12.475 0.883176 13.0939C1.29972 13.7128 1.89137 14.1933 2.58249 14.4742C3.2736 14.755 4.03277 14.8233 4.76292 14.6704C5.49306 14.5174 6.16101 14.1502 6.68133 13.6156L11.0032 16.3906C10.8374 16.8247 10.7516 17.2853 10.7501 17.75C10.7501 18.4917 10.97 19.2167 11.3821 19.8334C11.7941 20.4501 12.3798 20.9307 13.065 21.2145C13.7502 21.4984 14.5042 21.5726 15.2317 21.4279C15.9591 21.2832 16.6273 20.9261 17.1517 20.4016C17.6762 19.8772 18.0333 19.209 18.178 18.4816C18.3227 17.7542 18.2485 17.0002 17.9646 16.3149C17.6808 15.6297 17.2002 15.044 16.5835 14.632C15.9668 14.2199 15.2418 14 14.5001 14ZM14.5001 2C14.9451 2 15.3801 2.13196 15.7501 2.37919C16.1201 2.62643 16.4085 2.97783 16.5788 3.38896C16.7491 3.8001 16.7937 4.2525 16.7069 4.68895C16.62 5.12541 16.4057 5.52632 16.0911 5.84099C15.7764 6.15566 15.3755 6.36995 14.939 6.45677C14.5026 6.54358 14.0502 6.49903 13.639 6.32873C13.2279 6.15843 12.8765 5.87004 12.6293 5.50003C12.382 5.13002 12.2501 4.69501 12.2501 4.25C12.2526 3.65402 12.4904 3.08316 12.9118 2.66174C13.3332 2.24031 13.9041 2.00247 14.5001 2ZM4.00008 13.25C3.55508 13.25 3.12006 13.118 2.75005 12.8708C2.38004 12.6236 2.09165 12.2722 1.92135 11.861C1.75106 11.4499 1.7065 10.9975 1.79332 10.561C1.88013 10.1246 2.09443 9.72368 2.40909 9.40901C2.72376 9.09434 3.12467 8.88005 3.56113 8.79323C3.99759 8.70642 4.44999 8.75097 4.86112 8.92127C5.27225 9.09157 5.62366 9.37996 5.87089 9.74997C6.11812 10.12 6.25008 10.555 6.25008 11C6.24762 11.596 6.00977 12.1668 5.58835 12.5883C5.16692 13.0097 4.59606 13.2475 4.00008 13.25ZM14.5001 20C14.0551 20 13.6201 19.868 13.2501 19.6208C12.88 19.3736 12.5917 19.0222 12.4214 18.611C12.2511 18.1999 12.2065 17.7475 12.2933 17.311C12.3801 16.8746 12.5944 16.4737 12.9091 16.159C13.2238 15.8443 13.6247 15.63 14.0611 15.5432C14.4976 15.4564 14.95 15.501 15.3611 15.6713C15.7723 15.8416 16.1237 16.13 16.3709 16.5C16.6181 16.87 16.7501 17.305 16.7501 17.75C16.7476 18.346 16.5098 18.9168 16.0883 19.3383C15.6669 19.7597 15.0961 19.9975 14.5001 20Z" fill="#555A60"/>
</svg>
