<svg width="10" height="10" viewBox="0 0 10 10" fill="none" xmlns="http://www.w3.org/2000/svg">
<path d="M5.00879 9.7666C5.26807 9.7666 5.46143 9.63916 5.66797 9.30518L6.45898 8.01318H7.79932C9.12207 8.01318 9.86475 7.24854 9.86475 5.94336V2.52881C9.86475 1.22363 9.12207 0.458984 7.79932 0.458984H2.19629C0.87793 0.458984 0.130859 1.22363 0.130859 2.52881V5.94336C0.130859 7.25293 0.87793 8.01318 2.19629 8.01318H3.5542L4.34961 9.30518C4.55176 9.63916 4.74951 9.7666 5.00879 9.7666ZM5.00879 8.8833L4.25293 7.50342C4.09912 7.21338 3.98047 7.13428 3.65967 7.13428H2.22705C1.40088 7.13428 1.00537 6.7168 1.00537 5.91699V2.55518C1.00537 1.75537 1.40088 1.33789 2.22705 1.33789H7.77295C8.59473 1.33789 8.99023 1.75537 8.99023 2.55518V5.91699C8.99023 6.7168 8.59473 7.13428 7.77295 7.13428H6.35791C6.03271 7.13428 5.90967 7.21338 5.75586 7.50342L5.00879 8.8833Z" fill="#1A85FF"/>
</svg>
