<svg width="14" height="13" viewBox="0 0 14 13" fill="none" xmlns="http://www.w3.org/2000/svg">
<path d="M7.0113 12.1285C7.34466 12.1285 7.59326 11.9646 7.85882 11.5352L8.87584 9.8741H10.5991C12.2998 9.8741 13.2547 8.89098 13.2547 7.2129V2.82276C13.2547 1.14468 12.2998 0.16156 10.5991 0.16156H3.39523C1.70019 0.16156 0.739676 1.14468 0.739676 2.82276V7.2129C0.739676 8.89663 1.70019 9.8741 3.39523 9.8741H5.14111L6.16378 11.5352C6.42369 11.9646 6.67794 12.1285 7.0113 12.1285ZM7.0113 10.9928L6.03948 9.21869C5.84173 8.84578 5.68917 8.74408 5.27672 8.74408H3.43478C2.37256 8.74408 1.86405 8.20732 1.86405 7.179V2.85666C1.86405 1.82834 2.37256 1.29158 3.43478 1.29158H10.5652C11.6218 1.29158 12.1303 1.82834 12.1303 2.85666V7.179C12.1303 8.20732 11.6218 8.74408 10.5652 8.74408H8.74588C8.32778 8.74408 8.16957 8.84578 7.97182 9.21869L7.0113 10.9928Z" fill="#1A85FF"/>
</svg>
