<svg width="14" height="10" viewBox="0 0 14 10" fill="none" xmlns="http://www.w3.org/2000/svg">
<path d="M12.4 4.39449C12.6765 4.75616 12.6765 5.24441 12.4 5.60549C11.529 6.74241 9.43955 9.08332 7.00005 9.08332C4.56055 9.08332 2.47105 6.74241 1.60013 5.60549C1.4656 5.43232 1.39258 5.21928 1.39258 4.99999C1.39258 4.7807 1.4656 4.56766 1.60013 4.39449C2.47105 3.25757 4.56055 0.916656 7.00005 0.916656C9.43955 0.916656 11.529 3.25757 12.4 4.39449V4.39449Z" stroke="#1A85FF" stroke-width="1.03704" stroke-linecap="round" stroke-linejoin="round"/>
<path d="M7 6.74997C7.9665 6.74997 8.75 5.96647 8.75 4.99997C8.75 4.03347 7.9665 3.24997 7 3.24997C6.0335 3.24997 5.25 4.03347 5.25 4.99997C5.25 5.96647 6.0335 6.74997 7 6.74997Z" stroke="#1A85FF" stroke-width="1.03704" stroke-linecap="round" stroke-linejoin="round"/>
</svg>
