<svg width="12" height="12" viewBox="0 0 12 12" fill="none" xmlns="http://www.w3.org/2000/svg">
<path d="M0.276436 4.19007C0.276436 6.60267 2.30483 8.98702 5.45759 11.0211C5.63274 11.1341 5.84745 11.2471 5.99435 11.2471C6.14125 11.2471 6.35596 11.1341 6.53111 11.0211C9.68952 8.98702 11.7123 6.60267 11.7123 4.19007C11.7123 2.10518 10.2715 0.658752 8.4239 0.658752C7.34473 0.658752 6.50286 1.15031 5.99435 1.89613C5.49714 1.15596 4.64962 0.658752 3.57045 0.658752C1.71721 0.658752 0.276436 2.10518 0.276436 4.19007ZM1.44036 4.18442C1.44036 2.76059 2.37828 1.79442 3.63825 1.79442C4.65527 1.79442 5.22593 2.41029 5.58189 2.94705C5.74009 3.1787 5.84745 3.25215 5.99435 3.25215C6.1469 3.25215 6.24295 3.17305 6.40681 2.94705C6.79102 2.42159 7.33908 1.79442 8.35045 1.79442C9.61607 1.79442 10.554 2.76059 10.554 4.18442C10.554 6.17326 8.48605 8.3768 6.1017 9.95884C6.05085 9.99274 6.01695 10.0153 5.99435 10.0153C5.97175 10.0153 5.93785 9.99274 5.89265 9.95884C3.5083 8.3768 1.44036 6.17326 1.44036 4.18442Z" fill="#1A85FF"/>
</svg>
