<svg width="8" height="12" viewBox="0 0 8 12" fill="none" xmlns="http://www.w3.org/2000/svg">
<path d="M6.95001 5.01269L2.23334 0.30436C2.15587 0.226253 2.0637 0.164258 1.96215 0.121951C1.8606 0.0796434 1.75168 0.0578613 1.64167 0.0578613C1.53166 0.0578613 1.42274 0.0796434 1.32119 0.121951C1.21964 0.164258 1.12747 0.226253 1.05001 0.30436C0.894796 0.460495 0.807678 0.671705 0.807678 0.89186C0.807678 1.11201 0.894796 1.32322 1.05001 1.47936L5.17501 5.64603L1.05001 9.77103C0.894796 9.92716 0.807678 10.1384 0.807678 10.3585C0.807678 10.5787 0.894796 10.7899 1.05001 10.946C1.12718 11.0248 1.21922 11.0874 1.32078 11.1303C1.42235 11.1732 1.53142 11.1956 1.64167 11.196C1.75193 11.1956 1.861 11.1732 1.96256 11.1303C2.06412 11.0874 2.15616 11.0248 2.23334 10.946L6.95001 6.23769C7.03459 6.15966 7.1021 6.06495 7.14827 5.95953C7.19445 5.85412 7.21828 5.74028 7.21828 5.62519C7.21828 5.51011 7.19445 5.39627 7.14827 5.29085C7.1021 5.18544 7.03459 5.09073 6.95001 5.01269V5.01269Z" fill="#1A85FF"/>
</svg>
