<svg width="10" height="10" viewBox="0 0 10 10" fill="none" xmlns="http://www.w3.org/2000/svg">
<path d="M0.548828 3.59229C0.548828 5.46875 2.12646 7.32324 4.57861 8.90527C4.71484 8.99316 4.88184 9.08105 4.99609 9.08105C5.11035 9.08105 5.27734 8.99316 5.41357 8.90527C7.87012 7.32324 9.44336 5.46875 9.44336 3.59229C9.44336 1.9707 8.32275 0.845703 6.88574 0.845703C6.04639 0.845703 5.3916 1.22803 4.99609 1.80811C4.60938 1.23242 3.9502 0.845703 3.11084 0.845703C1.66943 0.845703 0.548828 1.9707 0.548828 3.59229ZM1.4541 3.58789C1.4541 2.48047 2.18359 1.729 3.16357 1.729C3.95459 1.729 4.39844 2.20801 4.67529 2.62549C4.79834 2.80566 4.88184 2.86279 4.99609 2.86279C5.11475 2.86279 5.18945 2.80127 5.31689 2.62549C5.61572 2.2168 6.04199 1.729 6.82861 1.729C7.81299 1.729 8.54248 2.48047 8.54248 3.58789C8.54248 5.13477 6.93408 6.84863 5.07959 8.0791C5.04004 8.10547 5.01367 8.12305 4.99609 8.12305C4.97852 8.12305 4.95215 8.10547 4.91699 8.0791C3.0625 6.84863 1.4541 5.13477 1.4541 3.58789Z" fill="#1A85FF"/>
</svg>
