<svg width="38" height="38" viewBox="0 0 38 38" fill="none" xmlns="http://www.w3.org/2000/svg">
<path fill-rule="evenodd" clip-rule="evenodd" d="M13.5822 4.08076C13.8031 4.58695 13.5718 5.17636 13.0656 5.39725C10.8449 6.36634 8.89539 7.86468 7.38751 9.76127C5.87962 11.6579 4.85929 13.8949 4.41572 16.277C3.97215 18.659 4.11885 21.1134 4.84298 23.4256C5.56711 25.7378 6.84663 27.8375 8.56968 29.541C10.2927 31.2444 12.4068 32.4999 14.7272 33.1976C17.0475 33.8953 19.5035 34.0139 21.8803 33.5432C24.257 33.0724 26.4823 32.0266 28.3616 30.4972C30.2408 28.9677 31.7168 27.0012 32.6605 24.7696C32.8756 24.2609 33.4623 24.0229 33.971 24.238C34.4797 24.4531 34.7176 25.0399 34.5026 25.5485C33.4317 28.0811 31.7567 30.3127 29.624 32.0484C27.4914 33.784 24.9661 34.9709 22.2688 35.5051C19.5716 36.0393 16.7845 35.9046 14.1513 35.1129C11.5181 34.3211 9.11894 32.8964 7.16357 30.9632C5.2082 29.0301 3.75615 26.6473 2.93439 24.0233C2.11262 21.3994 1.94615 18.614 2.44952 15.9108C2.9529 13.2076 4.1108 10.6689 5.822 8.51661C7.53319 6.3643 9.74557 4.66394 12.2657 3.56419C12.7719 3.3433 13.3613 3.57458 13.5822 4.08076Z" fill="#101828"/>
<path fill-rule="evenodd" clip-rule="evenodd" d="M27.397 3.9489C27.0085 3.55636 26.3753 3.55309 25.9828 3.94159C25.5902 4.33009 25.587 4.96325 25.9755 5.35579L32.3359 11.7823L18.626 11.7823C18.0737 11.7823 17.626 12.23 17.626 12.7823C17.626 13.3345 18.0737 13.7823 18.626 13.7823L32.3555 13.7823L25.9755 20.2285C25.587 20.6211 25.5902 21.2542 25.9828 21.6427C26.3753 22.0312 27.0085 22.028 27.397 21.6354L35.4531 13.4956C35.8388 13.1059 35.8388 12.4784 35.4531 12.0887L27.397 3.9489Z" fill="#101828"/>
</svg>
