<svg width="24" height="24" viewBox="0 0 24 24" fill="none" xmlns="http://www.w3.org/2000/svg">
<path d="M5 15V9.5C5 7.84315 6.34315 6.5 8 6.5H12V1" stroke="black" stroke-width="1.5" stroke-linecap="round"/>
<path d="M19 15V9.5C19 7.84315 17.6569 6.5 16 6.5H12V1" stroke="black" stroke-width="1.5" stroke-linecap="round"/>
<path d="M15.5 13.5L8.5 20.5M10.5 14.25C10.5 14.9404 9.94036 15.5 9.25 15.5C8.55964 15.5 8 14.9404 8 14.25C8 13.5596 8.55964 13 9.25 13C9.94036 13 10.5 13.5596 10.5 14.25ZM16 19.75C16 20.4404 15.4404 21 14.75 21C14.0596 21 13.5 20.4404 13.5 19.75C13.5 19.0596 14.0596 18.5 14.75 18.5C15.4404 18.5 16 19.0596 16 19.75Z" stroke="#101828" stroke-width="1.5" stroke-linecap="round" stroke-linejoin="round"/>
</svg>
