<svg width="24" height="24" viewBox="0 0 24 24" fill="none" xmlns="http://www.w3.org/2000/svg">
<path d="M14 8L22 8" stroke="#101828" stroke-width="1.5" stroke-linecap="round" stroke-linejoin="round"/>
<path fill-rule="evenodd" clip-rule="evenodd" d="M2.5 1.5C1.94772 1.5 1.5 1.94772 1.5 2.5V12.5C1.5 12.7654 1.60552 13.0199 1.79331 13.2075L10.3825 21.7867L10.3827 21.7869C10.6613 22.0658 10.9921 22.287 11.3562 22.4379C11.7204 22.5889 12.1108 22.6666 12.505 22.6666C12.8992 22.6666 13.2896 22.5889 13.6538 22.4379C14.0178 22.287 14.3486 22.0659 14.6271 21.7871L14.6275 21.7867L21.7971 14.6171L21.7992 14.615C22.358 14.0529 22.6716 13.2926 22.6716 12.5C22.6716 11.7074 22.358 10.9471 21.7992 10.385L21.7971 10.3829L20.9627 9.54849C20.861 10.2899 20.5562 10.9665 20.1062 11.5204L20.3808 11.795L20.3817 11.7959C20.5674 11.9832 20.6716 12.2362 20.6716 12.5C20.6716 12.7638 20.5674 13.0168 20.3817 13.2041L20.3808 13.205L13.2129 20.3729L13.2125 20.3733C13.1196 20.4663 13.0093 20.54 12.8879 20.5903C12.7665 20.6407 12.6364 20.6666 12.505 20.6666C12.3736 20.6666 12.2435 20.6407 12.1221 20.5903C12.0007 20.54 11.8904 20.4663 11.7975 20.3733L11.7967 20.3725L3.5 12.0854V3.5H12.0858L14.4796 5.89379C15.0335 5.44378 15.7101 5.13896 16.4515 5.03729L13.2071 1.79289C13.0196 1.60536 12.7652 1.5 12.5 1.5H2.5ZM7.5 6.5C6.94772 6.5 6.5 6.94772 6.5 7.5C6.5 8.05228 6.94772 8.5 7.5 8.5H7.51C8.06228 8.5 8.51 8.05228 8.51 7.5C8.51 6.94772 8.06228 6.5 7.51 6.5H7.5Z" fill="#101828"/>
</svg>
