<svg width="24" height="24" viewBox="0 0 24 24" fill="none" xmlns="http://www.w3.org/2000/svg">
<g clip-path="url(#clip0_7970_394990)">
<path fill-rule="evenodd" clip-rule="evenodd" d="M12 1C11.7348 1 11.4804 1.10536 11.2929 1.29289C11.1053 1.48043 11 1.73478 11 2V12C11 12.5523 11.4477 13 12 13H22C22.5523 13 23 12.5523 23 12C23 10.5555 22.7155 9.12506 22.1627 7.79048C21.6099 6.4559 20.7996 5.24327 19.7782 4.22183C18.7567 3.20038 17.5441 2.39013 16.2095 1.83733C14.8749 1.28452 13.4445 1 12 1ZM13 11V3.05573C13.8386 3.14949 14.6615 3.3609 15.4441 3.68508C16.5361 4.13738 17.5282 4.80031 18.3639 5.63604C19.1997 6.47177 19.8626 7.46392 20.3149 8.55585C20.6391 9.33849 20.8505 10.1614 20.9443 11H13ZM8.39995 3.74653C8.90613 3.52564 9.13741 2.93623 8.91652 2.43004C8.69563 1.92385 8.10621 1.69258 7.60003 1.91347C5.9532 2.63212 4.50748 3.74324 3.38928 5.1497C2.48079 6.29238 1.81095 7.60174 1.41525 9H3.51265C3.84426 8.06043 4.3307 7.17933 4.95479 6.39436C5.86968 5.24362 7.05254 4.33452 8.39995 3.74653ZM3.93964 16H1.75446C2.3141 17.4317 3.16877 18.7331 4.26595 19.8178C5.54372 21.081 7.11148 22.0121 8.83219 22.5294C10.5529 23.0468 12.3741 23.1348 14.1367 22.7857C15.8993 22.4366 17.5495 21.6611 18.9431 20.5269C20.3367 19.3927 21.4312 17.9344 22.131 16.2795C22.3461 15.7708 22.1081 15.1841 21.5995 14.969C21.0908 14.7539 20.504 14.9919 20.2889 15.5005C19.7164 16.8546 18.8209 18.0477 17.6806 18.9757C16.5404 19.9037 15.1902 20.5382 13.7481 20.8238C12.306 21.1095 10.8159 21.0375 9.40808 20.6141C8.00023 20.1908 6.71751 19.4291 5.67206 18.3955C4.96419 17.6957 4.3797 16.8857 3.93964 16Z" fill="#101828"/>
<path d="M1 12L9 12" stroke="#101828" stroke-width="1.5" stroke-linecap="round" stroke-linejoin="round"/>
</g>
<defs>
<clipPath id="clip0_7970_394990">
<rect width="24" height="24" fill="white"/>
</clipPath>
</defs>
</svg>
