<svg width="24" height="24" viewBox="0 0 24 24" fill="none" xmlns="http://www.w3.org/2000/svg">
<path d="M6.43205 7.39378H6.43972M9.43205 16.6061H9.43972M4.89666 4.323H17.1798C18.0277 4.323 18.7152 5.01042 18.7152 5.85839V8.92917C18.7152 9.77714 18.0277 10.4646 17.1798 10.4646H4.89666C4.04868 10.4646 3.36127 9.77714 3.36127 8.92917V5.85839C3.36127 5.01042 4.04868 4.323 4.89666 4.323ZM7.89666 13.5353H20.1798C21.0277 13.5353 21.7152 14.2228 21.7152 15.0707V18.1415C21.7152 18.9895 21.0277 19.6769 20.1798 19.6769H7.89666C7.04868 19.6769 6.36127 18.9895 6.36127 18.1415V15.0707C6.36127 14.2228 7.04868 13.5353 7.89666 13.5353Z" stroke="#101828" stroke-width="1.5" stroke-linecap="round" stroke-linejoin="round"/>
<path d="M2.28479 14.5842L3.61577 15.9152C4.00629 16.3057 4.00629 16.9389 3.61577 17.3294L2.28479 18.6604" stroke="#101828" stroke-width="1.5" stroke-linecap="round"/>
</svg>
