<svg width="24" height="24" viewBox="0 0 24 24" fill="none" xmlns="http://www.w3.org/2000/svg">
<path fill-rule="evenodd" clip-rule="evenodd" d="M18.8512 18.51L18.8768 19.15H15.7423C15.5504 19.6833 15.2952 20.1863 14.9857 20.65H20.9C21.56 20.65 22 20.21 22 19.55C22 18.89 21.56 18.45 20.9 18.45H20.35C20.2588 16.1692 19.8649 14.3424 18.0386 12.7813C17.6629 12.4602 17.2267 12.1503 16.72 11.85C17.2186 11.5432 17.6503 11.2264 18.0239 10.8978C19.7934 9.34129 20.2592 7.52064 20.35 5.25005H20.9C21.56 5.25005 22 4.81005 22 4.15005C22 3.49005 21.56 3.05005 20.9 3.05005H8.80001C8.14001 3.05005 7.70001 3.49005 7.70001 4.15005C7.70001 4.81005 8.14001 5.25005 8.80001 5.25005H9.35001C9.42437 7.10896 9.69977 8.66629 10.7878 10.024C12.3698 10.3941 13.744 11.3044 14.7052 12.5496L14.8294 12.4733L15.9553 13.1405C17.2368 13.8999 17.885 14.6582 18.2558 15.429C18.6438 16.2358 18.7988 17.1987 18.8512 18.51ZM15.9339 10.5726L14.8707 11.2268L13.7447 10.5596C12.4633 9.80024 11.815 9.04188 11.4443 8.27109C11.0562 7.4643 10.9013 6.50138 10.8488 5.1901L10.8232 4.55005H18.8768L18.8512 5.1901C18.7999 6.47408 18.6233 7.44287 18.2212 8.2573C17.8318 9.04613 17.1696 9.81211 15.9339 10.5726Z" fill="black"/>
<circle cx="8.27072" cy="15.7293" r="3.97928" stroke="#101828" stroke-width="1.5"/>
<path d="M8.27069 15.7292V14.5469" stroke="#101828" stroke-width="1.5" stroke-linecap="round"/>
<rect x="6.77075" y="9.6311" width="3" height="1" rx="0.5" fill="#101828"/>
<rect x="11.7631" y="10.6311" width="2.26327" height="1" rx="0.5" transform="rotate(45 11.7631 10.6311)" fill="#101828"/>
</svg>
