<svg width="24" height="24" viewBox="0 0 24 24" fill="none" xmlns="http://www.w3.org/2000/svg">
<g clip-path="url(#clip0_7971_395145)">
<path fill-rule="evenodd" clip-rule="evenodd" d="M18.7243 18.4216L18.7491 19.0424H15.6604C15.4696 19.5758 15.215 20.0789 14.9057 20.5424H20.7683C21.4225 20.5424 21.8587 20.1062 21.8587 19.452C21.8587 18.7978 21.4225 18.3616 20.7683 18.3616H20.2231C20.1328 16.105 19.7437 14.2967 17.9422 12.7512C17.5675 12.4297 17.1317 12.1197 16.6248 11.8193C17.1236 11.5124 17.5549 11.1953 17.9275 10.8663C19.6732 9.32546 20.1333 7.52336 20.2231 5.27697H20.7683C21.4225 5.27697 21.8587 4.84081 21.8587 4.18658C21.8587 3.53235 21.4225 3.09619 20.7683 3.09619H8.77404C8.11981 3.09619 7.68365 3.53235 7.68365 4.18658C7.68365 4.84081 8.11981 5.27697 8.77404 5.27697H9.31924C9.39294 7.11963 9.66594 8.66336 10.7445 10.0092C12.317 10.3771 13.6825 11.2835 14.6357 12.5232L14.7508 12.4524L15.8601 13.1097C17.1286 13.8614 17.7692 14.6114 18.1354 15.3727C18.5189 16.17 18.6723 17.1223 18.7243 18.4216ZM15.8387 10.5418L14.7915 11.1862L13.6822 10.5289C12.4138 9.77717 11.7732 9.02723 11.407 8.26593C11.0235 7.46863 10.87 6.51628 10.818 5.21702L10.7932 4.59619H18.7491L18.7243 5.21702C18.6734 6.48899 18.4986 7.4472 18.1012 8.25213C17.7164 9.03148 17.0619 9.78905 15.8387 10.5418Z" fill="black"/>
<path d="M10.3296 16.0262V17.5001L11.0665 18.237M12.5453 20.1285L12.3734 22.0101C12.3512 22.2551 12.238 22.4828 12.0561 22.6484C11.8742 22.8139 11.6368 22.9052 11.3908 22.9042H9.26353C9.01756 22.9052 8.78016 22.8139 8.59824 22.6484C8.41631 22.4828 8.3031 22.2551 8.28096 22.0101L8.10901 20.1285M8.11392 14.8717L8.28587 12.9901C8.30794 12.746 8.42045 12.5189 8.60134 12.3535C8.78222 12.188 9.01841 12.0962 9.26353 12.096H11.4006C11.6466 12.095 11.884 12.1863 12.0659 12.3518C12.2478 12.5174 12.3611 12.7451 12.3832 12.9901L12.5551 14.8717M13.7686 17.5001C13.7686 19.3994 12.2289 20.9391 10.3296 20.9391C8.43032 20.9391 6.89062 19.3994 6.89062 17.5001C6.89062 15.6008 8.43032 14.0611 10.3296 14.0611C12.2289 14.0611 13.7686 15.6008 13.7686 17.5001Z" stroke="#101828" stroke-linecap="round" stroke-linejoin="round"/>
</g>
<defs>
<clipPath id="clip0_7971_395145">
<rect width="24" height="24" fill="white"/>
</clipPath>
</defs>
</svg>
