<svg width="24" height="24" viewBox="0 0 24 24" fill="none" xmlns="http://www.w3.org/2000/svg">
<path d="M11.0117 8.50586V11.0683M5.83499 8.50586V11.0683M2.59955 13.6308H14.2471M3.89373 9.78709H12.953C13.6677 9.78709 14.2471 10.3607 14.2471 11.0683V20.037C14.2471 20.7446 13.6677 21.3182 12.953 21.3182H3.89373C3.17897 21.3182 2.59955 20.7446 2.59955 20.037V11.0683C2.59955 10.3607 3.17897 9.78709 3.89373 9.78709Z" stroke="#101828" stroke-width="1.5" stroke-linecap="round" stroke-linejoin="round"/>
<path fill-rule="evenodd" clip-rule="evenodd" d="M19.1545 19.0485L19.1853 19.818H16.5766V20.4828C16.5766 20.781 16.5114 21.0639 16.3944 21.318H21.2357C21.9345 21.318 22.4004 20.8521 22.4004 20.1533C22.4004 19.4544 21.9345 18.9885 21.2357 18.9885H20.6533C20.5555 16.5445 20.1296 14.5929 18.1358 12.9269C17.7541 12.6079 17.3149 12.2994 16.8096 12C17.307 11.6938 17.7416 11.3783 18.1211 11.0517C20.0518 9.39042 20.5559 7.44497 20.6533 5.0114H21.2357C21.9345 5.0114 22.4004 4.5455 22.4004 3.84664C22.4004 3.14779 21.9345 2.68188 21.2357 2.68188H8.4233C7.72445 2.68188 7.25854 3.14779 7.25854 3.84664C7.25854 4.5455 7.72445 5.0114 8.4233 5.0114H9.00568C9.03891 5.8421 9.11006 6.61591 9.26779 7.34097H10.8108C10.6293 6.66768 10.5421 5.89113 10.5045 4.95145L10.4737 4.18188H19.1853L19.1545 4.95145C19.0999 6.31639 18.912 7.35641 18.4784 8.23479C18.1204 8.95988 17.5506 9.66318 16.5766 10.3568V13.6281C17.6021 14.328 18.1695 15.0323 18.5153 15.7513C18.9341 16.6221 19.0988 17.6562 19.1545 19.0485Z" fill="black"/>
</svg>
