<svg width="20" height="20" viewBox="0 0 20 20" fill="none" xmlns="http://www.w3.org/2000/svg">
<path d="M15.3418 13.2617C13.5514 13.2617 12.0035 12.9199 10.6982 12.2363C9.39289 11.5527 8.38704 10.5794 7.68066 9.31641C6.97428 8.05339 6.62109 6.55274 6.62109 4.81445C6.62109 4.07226 6.67643 3.39193 6.78711 2.77344C6.89778 2.15495 7.04427 1.66992 7.22656 1.31836C7.29817 1.17513 7.34537 1.0612 7.36816 0.976562C7.39095 0.891927 7.40234 0.800781 7.40234 0.703125C7.40234 0.540364 7.33561 0.382487 7.20215 0.229492C7.06868 0.0764973 6.89778 0 6.68945 0C6.65039 0 6.58529 0.00813803 6.49414 0.0244141C6.40299 0.0406901 6.28906 0.0781251 6.15234 0.136719C4.94791 0.625 3.88346 1.3444 2.95898 2.29492C2.03451 3.24544 1.31022 4.34407 0.786133 5.59082C0.262044 6.83757 0 8.14453 0 9.51172C0 10.9961 0.252279 12.3617 0.756836 13.6084C1.26139 14.8551 1.97265 15.9375 2.89062 16.8555C3.80859 17.7734 4.89095 18.4863 6.1377 18.9941C7.38444 19.502 8.75001 19.7559 10.2344 19.7559C11.6471 19.7559 12.959 19.5199 14.1699 19.0479C15.3808 18.5758 16.442 17.9004 17.3535 17.0215C18.265 16.1426 18.9844 15.0944 19.5117 13.877C19.5703 13.7467 19.6077 13.6312 19.624 13.5303C19.6403 13.4294 19.6484 13.3529 19.6484 13.3008C19.6484 13.0989 19.5784 12.9362 19.4385 12.8125C19.2985 12.6888 19.1536 12.627 19.0039 12.627C18.9258 12.627 18.8509 12.6335 18.7793 12.6465C18.7077 12.6595 18.6133 12.6855 18.4961 12.7246C18.2292 12.8353 17.9248 12.9297 17.583 13.0078C17.2412 13.0859 16.8799 13.1478 16.499 13.1934C16.1181 13.2389 15.7324 13.2617 15.3418 13.2617ZM1.5332 9.44336C1.5332 8.43425 1.70084 7.45443 2.03613 6.50391C2.37142 5.55338 2.84668 4.68424 3.46191 3.89648C4.07715 3.10872 4.80469 2.45117 5.64453 1.92383C5.48828 2.37305 5.36947 2.84994 5.28809 3.35449C5.20671 3.85905 5.16602 4.39128 5.16602 4.95117C5.16602 6.98242 5.56153 8.7256 6.35254 10.1807C7.14355 11.6358 8.28288 12.7507 9.77051 13.5254C11.2582 14.3001 13.0404 14.6875 15.1172 14.6875C15.6185 14.6875 16.0872 14.6566 16.5234 14.5947C16.9596 14.5329 17.3795 14.4304 17.7832 14.2871C17.2884 15.1009 16.6553 15.804 15.8838 16.3965C15.1123 16.989 14.2497 17.4431 13.2959 17.7588C12.3421 18.0745 11.3411 18.2324 10.293 18.2324C9.02996 18.2324 7.86459 18.0159 6.79688 17.583C5.72917 17.1501 4.80143 16.5397 4.01367 15.752C3.22591 14.9642 2.61556 14.0348 2.18262 12.9639C1.74967 11.8929 1.5332 10.7194 1.5332 9.44336Z" fill="#BBC2C9"/>
</svg>
