<svg width="22" height="22" viewBox="0 0 22 22" fill="none" xmlns="http://www.w3.org/2000/svg">
<path d="M10.5664 15.5859C11.2435 15.5859 11.8831 15.4557 12.4854 15.1953C13.0876 14.9349 13.6166 14.5752 14.0723 14.1162C14.528 13.6572 14.8861 13.1282 15.1465 12.5293C15.4069 11.9304 15.5371 11.2891 15.5371 10.6055C15.5371 9.92189 15.4069 9.27897 15.1465 8.67676C14.8861 8.07455 14.528 7.54395 14.0723 7.08496C13.6166 6.62597 13.0876 6.26627 12.4854 6.00586C11.8831 5.74544 11.2435 5.61523 10.5664 5.61523C9.88281 5.61523 9.24154 5.74544 8.64258 6.00586C8.04362 6.26627 7.51465 6.62597 7.05566 7.08496C6.59668 7.54395 6.23698 8.07455 5.97656 8.67676C5.71615 9.27897 5.58594 9.92189 5.58594 10.6055C5.58594 11.2891 5.71615 11.9304 5.97656 12.5293C6.23698 13.1282 6.59668 13.6572 7.05566 14.1162C7.51465 14.5752 8.04362 14.9349 8.64258 15.1953C9.24154 15.4557 9.88281 15.5859 10.5664 15.5859ZM10.5664 14.0918C9.92839 14.0918 9.34571 13.9339 8.81836 13.6182C8.29101 13.3024 7.86784 12.8808 7.54883 12.3535C7.22982 11.8262 7.07031 11.2435 7.07031 10.6055C7.07031 9.96746 7.22982 9.38477 7.54883 8.85742C7.86784 8.33008 8.29101 7.9069 8.81836 7.58789C9.34571 7.26888 9.92839 7.10938 10.5664 7.10938C11.2044 7.10938 11.7871 7.26888 12.3145 7.58789C12.8418 7.9069 13.2634 8.33008 13.5791 8.85742C13.8948 9.38477 14.0527 9.96746 14.0527 10.6055C14.0527 11.2435 13.8948 11.8262 13.5791 12.3535C13.2634 12.8808 12.8418 13.3024 12.3145 13.6182C11.7871 13.9339 11.2044 14.0918 10.5664 14.0918ZM11.4258 0.859375C11.4258 0.625 11.3412 0.423177 11.1719 0.253906C11.0026 0.0846353 10.8008 0 10.5664 0C10.3385 0 10.14 0.0846353 9.9707 0.253906C9.80143 0.423177 9.7168 0.625 9.7168 0.859375V2.91016C9.7168 3.13802 9.80143 3.33659 9.9707 3.50586C10.14 3.67513 10.3385 3.75977 10.5664 3.75977C10.8008 3.75977 11.0026 3.67513 11.1719 3.50586C11.3412 3.33659 11.4258 3.13802 11.4258 2.91016V0.859375ZM15.3906 4.58008C15.2279 4.74284 15.1465 4.94303 15.1465 5.18066C15.1465 5.41829 15.2279 5.61849 15.3906 5.78125C15.5534 5.94401 15.7536 6.02702 15.9912 6.03027C16.2289 6.03353 16.4323 5.95052 16.6016 5.78125L18.0566 4.32617C18.2194 4.16341 18.3008 3.96159 18.3008 3.7207C18.3008 3.47982 18.2194 3.278 18.0566 3.11523C17.8939 2.95247 17.6953 2.87109 17.4609 2.87109C17.2266 2.87109 17.028 2.95247 16.8652 3.11523L15.3906 4.58008ZM20.2832 11.4551C20.5176 11.4551 20.7194 11.3705 20.8887 11.2012C21.058 11.0319 21.1426 10.8334 21.1426 10.6055C21.1426 10.3711 21.058 10.1709 20.8887 10.0049C20.7194 9.83887 20.5176 9.75586 20.2832 9.75586H18.2422C18.0143 9.75586 17.8158 9.83887 17.6465 10.0049C17.4772 10.1709 17.3926 10.3711 17.3926 10.6055C17.3926 10.8334 17.4772 11.0319 17.6465 11.2012C17.8158 11.3705 18.0143 11.4551 18.2422 11.4551H20.2832ZM16.5918 15.4395C16.4291 15.2767 16.2289 15.1953 15.9912 15.1953C15.7536 15.1953 15.5534 15.2767 15.3906 15.4395C15.2279 15.6022 15.1465 15.8008 15.1465 16.0352C15.1465 16.2695 15.2279 16.4713 15.3906 16.6406L16.8652 18.1055C17.028 18.2682 17.2266 18.348 17.4609 18.3447C17.6953 18.3414 17.8939 18.2584 18.0566 18.0957C18.2194 17.933 18.3008 17.7328 18.3008 17.4951C18.3008 17.2575 18.2194 17.0573 18.0566 16.8945L16.5918 15.4395ZM11.4258 18.3008C11.4258 18.0664 11.3412 17.8646 11.1719 17.6953C11.0026 17.526 10.8008 17.4414 10.5664 17.4414C10.3385 17.4414 10.14 17.526 9.9707 17.6953C9.80143 17.8646 9.7168 18.0664 9.7168 18.3008V20.3516C9.7168 20.5795 9.80143 20.778 9.9707 20.9473C10.14 21.1166 10.3385 21.2012 10.5664 21.2012C10.8008 21.2012 11.0026 21.1166 11.1719 20.9473C11.3412 20.778 11.4258 20.5795 11.4258 20.3516V18.3008ZM3.07617 16.8848C2.91341 17.0475 2.83203 17.2477 2.83203 17.4854C2.83203 17.723 2.91016 17.9232 3.06641 18.0859C3.22917 18.2487 3.43099 18.3317 3.67188 18.335C3.91276 18.3382 4.11458 18.2584 4.27734 18.0957L5.73242 16.6406C5.89518 16.4779 5.97819 16.2777 5.98145 16.04C5.9847 15.8024 5.90495 15.6022 5.74219 15.4395C5.57943 15.2767 5.37761 15.1953 5.13672 15.1953C4.89583 15.1953 4.69401 15.2767 4.53125 15.4395L3.07617 16.8848ZM0.849609 9.75586C0.621744 9.75586 0.423177 9.83887 0.253906 10.0049C0.0846353 10.1709 0 10.3711 0 10.6055C0 10.8334 0.0846353 11.0319 0.253906 11.2012C0.423177 11.3705 0.621744 11.4551 0.849609 11.4551H2.89062C3.125 11.4551 3.32682 11.3705 3.49609 11.2012C3.66536 11.0319 3.75 10.8334 3.75 10.6055C3.75 10.3711 3.66536 10.1709 3.49609 10.0049C3.32682 9.83887 3.125 9.75586 2.89062 9.75586H0.849609ZM4.53125 5.78125C4.69401 5.94401 4.89421 6.02539 5.13184 6.02539C5.36947 6.02539 5.56966 5.94401 5.73242 5.78125C5.89518 5.625 5.97819 5.42481 5.98145 5.18066C5.9847 4.93652 5.90495 4.73633 5.74219 4.58008L4.28711 3.11523C4.13086 2.95898 3.93392 2.87923 3.69629 2.87598C3.45866 2.87272 3.25521 2.95247 3.08594 3.11523C2.92318 3.278 2.8418 3.47819 2.8418 3.71582C2.8418 3.95345 2.91992 4.15365 3.07617 4.31641L4.53125 5.78125Z" fill="#F2F7FF"/>
</svg>
