<svg width="24" height="25" viewBox="0 0 24 25" fill="none" xmlns="http://www.w3.org/2000/svg">
<path d="M21.21 16.4016C20.5738 17.8958 19.5788 19.2125 18.3119 20.2365C17.0449 21.2606 15.5447 21.9608 13.9424 22.276C12.3401 22.5912 10.6844 22.5118 9.12012 22.0446C7.55585 21.5775 6.1306 20.7369 4.969 19.5963C3.80739 18.4557 2.94479 17.0499 2.45661 15.5017C1.96843 13.9535 1.86954 12.3102 2.16857 10.7153C2.46761 9.12037 3.15547 7.6225 4.17202 6.35262C5.18857 5.08275 6.50286 4.07952 7.99998 3.43066M22 12.5381C22 11.2339 21.7413 9.94236 21.2388 8.73738C20.7362 7.5324 19.9996 6.43753 19.071 5.51528C18.1425 4.59303 17.0401 3.86146 15.8268 3.36234C14.6136 2.86322 13.3132 2.60632 12 2.60632V12.5381H22Z" stroke="#101828" stroke-width="2" stroke-linecap="round" stroke-linejoin="round"/>
</svg>
