<svg width="24" height="24" viewBox="0 0 24 24" fill="none" xmlns="http://www.w3.org/2000/svg">
<path d="M6.33988 6.54476C6.25955 6.86624 6.45504 7.19198 6.77653 7.27231C7.09802 7.35265 7.42375 7.15715 7.50409 6.83567L6.33988 6.54476ZM12.3828 4.11561C12.3553 4.44584 12.6007 4.73584 12.931 4.76335C13.2612 4.79086 13.5512 4.54546 13.5787 4.21523L12.3828 4.11561ZM16.091 3.76009C15.889 3.49737 15.5123 3.44812 15.2496 3.65008C14.9869 3.85205 14.9376 4.22874 15.1396 4.49145L16.091 3.76009ZM17.2565 5.96717L16.8634 6.42046L17.0326 6.56717H17.2565V5.96717ZM19.1138 6.86673L18.5174 6.93223L19.1138 6.86673ZM20.7735 21.9793L20.871 22.5714L21.432 22.479L21.3699 21.9139L20.7735 21.9793ZM15.4078 22.2546C15.0808 22.3085 14.8594 22.6172 14.9132 22.9441C14.967 23.2711 15.2757 23.4925 15.6027 23.4387L15.4078 22.2546ZM6.1603 7.06257L6.36217 7.62759L6.1603 7.06257ZM14.7041 4.01L14.906 4.57502L14.7041 4.01ZM16.0534 4.98247L15.4536 4.96967L16.0534 4.98247ZM15.69 22.0115L16.2899 22.0243L15.69 22.0115ZM14.4832 22.9803L14.366 23.5687H14.366L14.4832 22.9803ZM4.81263 21.0541L4.92983 20.4657H4.92983L4.81263 21.0541ZM4.00772 19.9398L3.41225 19.8662L4.00772 19.9398ZM5.49788 7.88956L6.09335 7.9632L5.49788 7.88956ZM9.35882 5.08095C9.30672 5.40819 9.52976 5.71572 9.85701 5.76783C10.1843 5.81994 10.4918 5.59689 10.5439 5.26964L9.35882 5.08095ZM15.4541 4.69401C15.5786 5.0011 15.9285 5.14912 16.2356 5.02462C16.5427 4.90011 16.6907 4.55024 16.5662 4.24315L15.4541 4.69401ZM13.159 8.91937L12.5612 8.86772L13.159 8.91937ZM12.9892 10.8847L13.587 10.9363V10.9363L12.9892 10.8847ZM12.7638 11.0678L12.6921 11.6635H12.6921L12.7638 11.0678ZM12.0137 10.9775L12.0854 10.3818H12.0854L12.0137 10.9775ZM11.03 12.5044L11.5428 12.1928L11.03 12.5044ZM12.0761 14.2261L11.5634 14.5377L11.5719 14.5517L11.5812 14.5653L12.0761 14.2261ZM6.81666 17.0441L6.46129 17.5276H6.46129L6.81666 17.0441ZM6.73818 16.8316L7.32026 16.9771L7.32026 16.9771L6.73818 16.8316ZM7.07686 15.4769L6.49478 15.3314L7.07686 15.4769ZM7.40263 15.3629L7.7588 14.8801H7.7588L7.40263 15.3629ZM8.04827 12.4258L8.64815 12.4139L8.04827 12.4258ZM11.4661 8.70947L11.4623 8.10949L11.4302 8.10969L11.3984 8.1133L11.4661 8.70947ZM12.9565 8.70003L12.9603 9.30002L12.9565 8.70003ZM7.50409 6.83567C7.83799 5.49942 8.39065 4.35518 9.01661 3.47738C9.64859 2.59115 10.3302 2.0106 10.9017 1.75249C11.4673 1.49708 11.7959 1.5938 11.9912 1.80291C12.2483 2.07823 12.4962 2.75431 12.3828 4.11561L13.5787 4.21523C13.6998 2.76192 13.4834 1.64256 12.8682 0.983873C12.1913 0.258985 11.2397 0.283134 10.4078 0.658851C9.58185 1.03187 8.74879 1.78613 8.03959 2.78066C7.32437 3.78362 6.70937 5.06609 6.33988 6.54476L7.50409 6.83567ZM15.1396 4.49145C15.2928 4.69068 15.6258 5.08682 15.959 5.46564C16.2839 5.83493 16.6512 6.23641 16.8634 6.42046L17.6496 5.51388C17.5102 5.39294 17.1975 5.05671 16.86 4.67305C16.5309 4.29891 16.2192 3.92685 16.091 3.76009L15.1396 4.49145ZM17.2565 6.56717H18.11V5.36717H17.2565V6.56717ZM18.5174 6.93223L20.1771 22.0448L21.3699 21.9139L19.7102 6.80123L18.5174 6.93223ZM20.676 21.3873L15.4078 22.2546L15.6027 23.4387L20.871 22.5714L20.676 21.3873ZM18.11 6.56717C18.3191 6.56717 18.4946 6.72447 18.5174 6.93223L19.7102 6.80123C19.6206 5.98509 18.9311 5.36717 18.11 5.36717V6.56717ZM6.36217 7.62759L14.906 4.57502L14.5022 3.44498L5.95842 6.49755L6.36217 7.62759ZM15.4536 4.96967L15.0901 21.9987L16.2899 22.0243L16.6533 4.99527L15.4536 4.96967ZM14.6004 22.3918L4.92983 20.4657L4.69542 21.6426L14.366 23.5687L14.6004 22.3918ZM4.60318 20.0135L6.09335 7.9632L4.90242 7.81593L3.41225 19.8662L4.60318 20.0135ZM4.92983 20.4657C4.71933 20.4237 4.57684 20.2265 4.60318 20.0135L3.41225 19.8662C3.30878 20.703 3.8685 21.4779 4.69542 21.6426L4.92983 20.4657ZM15.0901 21.9987C15.0847 22.2535 14.8504 22.4416 14.6004 22.3918L14.366 23.5687C15.348 23.7643 16.2685 23.0254 16.2899 22.0243L15.0901 21.9987ZM14.906 4.57502C15.1764 4.47842 15.4597 4.68261 15.4536 4.96967L16.6533 4.99527C16.6774 3.86765 15.5644 3.0655 14.5022 3.44498L14.906 4.57502ZM5.95842 6.49755C5.38561 6.70221 4.97707 7.21225 4.90242 7.81593L6.09335 7.9632C6.11235 7.80953 6.21635 7.67969 6.36217 7.62759L5.95842 6.49755ZM10.5439 5.26964C10.7637 3.88938 11.7223 2.9817 12.7132 2.78631C13.2033 2.68966 13.7117 2.76255 14.1779 3.04393C14.6461 3.32656 15.1091 3.84312 15.4541 4.69401L16.5662 4.24315C16.1438 3.20136 15.5298 2.45833 14.798 2.0166C14.0642 1.57361 13.2498 1.45738 12.481 1.60898C10.954 1.9101 9.65061 3.24846 9.35882 5.08095L10.5439 5.26964ZM12.5612 8.86772L12.3914 10.833L13.587 10.9363L13.7568 8.97103L12.5612 8.86772ZM12.8356 10.4721L12.0854 10.3818L11.942 11.5732L12.6921 11.6635L12.8356 10.4721ZM10.5172 12.8159L11.5634 14.5377L12.5889 13.9145L11.5428 12.1928L10.5172 12.8159ZM11.5812 14.5653C11.8495 14.9569 12 15.5029 11.9874 16.0603C11.9747 16.6184 11.8008 17.1219 11.5023 17.4578C11.2221 17.7732 10.7895 17.9918 10.1167 17.9306C9.41721 17.867 8.4448 17.4963 7.17203 16.5607L6.46129 17.5276C7.82795 18.5322 9.00766 19.0347 10.008 19.1257C11.0349 19.2191 11.8497 18.8736 12.3994 18.2548C12.9309 17.6566 13.1696 16.8556 13.187 16.0875C13.2045 15.3187 13.0026 14.5167 12.5711 13.887L11.5812 14.5653ZM7.32026 16.9771L7.65895 15.6224L6.49478 15.3314L6.15609 16.6861L7.32026 16.9771ZM7.04647 15.8458C7.46458 16.1542 8.04265 16.527 8.58342 16.7375C8.84802 16.8405 9.16218 16.9285 9.46984 16.9106C9.81251 16.8907 10.1772 16.7307 10.3751 16.3349L9.30178 15.7983C9.33873 15.7244 9.4189 15.7115 9.40022 15.7126C9.34652 15.7157 9.22248 15.6986 9.01878 15.6193C8.62297 15.4652 8.14407 15.1643 7.7588 14.8801L7.04647 15.8458ZM10.3751 16.3349C10.6186 15.848 10.4561 15.364 10.2835 15.0323C10.1072 14.6935 9.83257 14.3462 9.59119 14.042C9.33353 13.7174 9.09507 13.42 8.91442 13.1239C8.73217 12.8251 8.65174 12.5942 8.64815 12.4139L7.44839 12.4378C7.45819 12.93 7.66417 13.3787 7.89001 13.7489C8.11745 14.1217 8.40877 14.4825 8.65125 14.788C8.91001 15.1141 9.10586 15.3688 9.21904 15.5863C9.33599 15.811 9.28206 15.8377 9.30178 15.7983L10.3751 16.3349ZM8.64815 12.4139C8.62468 11.2341 8.79884 10.5813 9.15999 10.1716C9.52385 9.75891 10.1973 9.4574 11.5338 9.30564L11.3984 8.1133C9.9905 8.27316 8.93087 8.61694 8.25986 9.37804C7.58614 10.1422 7.4236 11.1918 7.44839 12.4378L8.64815 12.4139ZM11.4699 9.30946L12.9603 9.30002L12.9527 8.10004L11.4623 8.10949L11.4699 9.30946ZM7.17203 16.5607C7.29407 16.6504 7.36219 16.8094 7.32026 16.9771L6.15609 16.6861C6.07475 17.0114 6.20831 17.3416 6.46129 17.5276L7.17203 16.5607ZM12.0854 10.3818C10.7519 10.2212 9.81978 11.6681 10.5172 12.8159L11.5428 12.1928C11.3652 11.9006 11.6025 11.5323 11.942 11.5732L12.0854 10.3818ZM12.3914 10.833C12.4108 10.6088 12.6121 10.4452 12.8356 10.4721L12.6921 11.6635C13.1424 11.7177 13.5479 11.3881 13.587 10.9363L12.3914 10.833ZM7.65895 15.6224C7.58713 15.9097 7.25859 16.0022 7.04647 15.8458L7.7588 14.8801C7.30983 14.5489 6.63797 14.7586 6.49478 15.3314L7.65895 15.6224ZM13.7568 8.97103C13.7974 8.50061 13.4249 8.09705 12.9527 8.10004L12.9603 9.30002C12.726 9.3015 12.5411 9.1012 12.5612 8.86772L13.7568 8.97103Z" fill="#101828"/>
</svg>
