<svg width="17" height="17" viewBox="0 0 17 17" fill="none" xmlns="http://www.w3.org/2000/svg">
<path d="M12.25 1H4.75C2.67893 1 1 2.67893 1 4.75V12.25C1 14.3211 2.67893 16 4.75 16H12.25C14.3211 16 16 14.3211 16 12.25V4.75C16 2.67893 14.3211 1 12.25 1Z" stroke="transparent" stroke-width="1.6" stroke-linecap="round" stroke-linejoin="round"/>
<path d="M11.4988 8.02748C11.5914 8.65167 11.4847 9.28914 11.1941 9.84924C10.9035 10.4093 10.4437 10.8635 9.88002 11.1472C9.31638 11.4309 8.67764 11.5297 8.05464 11.4294C7.43165 11.3292 6.85612 11.035 6.40993 10.5889C5.96374 10.1427 5.6696 9.56714 5.56935 8.94414C5.46911 8.32115 5.56785 7.6824 5.85155 7.11876C6.13524 6.55512 6.58944 6.09529 7.14954 5.80466C7.70964 5.51404 8.34712 5.40742 8.9713 5.49998C9.608 5.5944 10.1974 5.89108 10.6526 6.34621C11.1077 6.80134 11.4044 7.39079 11.4988 8.02748Z" stroke="white" stroke-width="1.6" stroke-linecap="round" stroke-linejoin="round"/>
<path d="M12.625 4.375H12.6333" stroke="transparent" stroke-width="1.6" stroke-linecap="round" stroke-linejoin="round"/>
</svg>
