<svg width="20" height="20" viewBox="0 0 20 20" fill="none" xmlns="http://www.w3.org/2000/svg">
<path d="M8.34131 8.59805C6.03729 8.48692 4.43528 9.30827 3.53605 11.0629C2.18761 13.694 3.30244 18 7.8017 18C12.3013 18 12.4313 13.6522 12.4313 13.1963V8.10344C13.3939 8.7127 14.2051 9.07975 14.8656 9.20418C15.5261 9.32823 15.9456 9.3834 16.1252 9.36932V6.83521C15.5144 6.76164 14.9861 6.62116 14.5404 6.41416C13.8717 6.10346 12.5463 5.24141 12.5463 3.97788C12.5471 3.98414 12.5471 3.65818 12.5463 3H9.76098C9.75276 9.18892 9.75276 12.5878 9.76098 13.1967C9.7735 14.11 9.06484 15.388 7.62835 15.388C6.19147 15.388 5.4832 14.1112 5.4832 13.2879C5.4832 12.7839 5.65616 12.0533 6.37186 11.5121C6.79643 11.1912 7.38535 11.0633 8.34131 11.0633V8.59805V8.59805Z" stroke="#667085" stroke-width="1.6" stroke-linejoin="round"/>
</svg>
